font.ufo
<glyph name="exclam" format="1">
  <advance width="252"/>
  <unicode hex="0021"/>
  <outline>
    <contour>
      <point x="106" y="186" type="line"/>
      <point x="119" y="182"/>
      <point x="131" y="182"/>
      <point x="144" y="186" type="curve"/>
      <point x="161" y="694" type="line"/>
      <point x="137" y="698"/>
      <point x="115" y="697"/>
      <point x="97" y="690" type="curve"/>
    </contour>
    <contour>
      <point x="126" y="-15" type="curve" smooth="yes"/>
      <point x="153" y="-15"/>
      <point x="172" y="5"/>
      <point x="172" y="32" type="curve" smooth="yes"/>
      <point x="172" y="59"/>
      <point x="153" y="79"/>
      <point x="126" y="79" type="curve" smooth="yes"/>
      <point x="99" y="79"/>
      <point x="80" y="59"/>
      <point x="80" y="32" type="curve" smooth="yes"/>
      <point x="80" y="5"/>
      <point x="99" y="-15"/>
    </contour>
  </outline>
</glyph>
<glyph name="ampersand" format="1">
  <advance width="721"/>
  <unicode hex="0026"/>
  <outline>
    <contour>
      <point x="260" y="675" type="curve" smooth="yes"/>
      <point x="164" y="675"/>
      <point x="104" y="619"/>
      <point x="104" y="526" type="curve" smooth="yes"/>
      <point x="104" y="462"/>
      <point x="143" y="383"/>
      <point x="254" y="263" type="curve" smooth="yes"/>
      <point x="383" y="124"/>
      <point x="541" y="-17"/>
      <point x="642" y="-17" type="curve" smooth="yes"/>
      <point x="685" y="-17"/>
      <point x="706" y="8"/>
      <point x="706" y="31" type="curve" smooth="yes"/>
      <point x="706" y="42"/>
      <point x="701" y="53"/>
      <point x="692" y="61" type="curve"/>
      <point x="679" y="43"/>
      <point x="657" y="33"/>
      <point x="637" y="33" type="curve" smooth="yes"/>
      <point x="564" y="33"/>
      <point x="408" y="173"/>
      <point x="287" y="305" type="curve" smooth="yes"/>
      <point x="202" y="398"/>
      <point x="154" y="478"/>
      <point x="154" y="531" type="curve" smooth="yes"/>
      <point x="154" y="583"/>
      <point x="183" y="630"/>
      <point x="260" y="630" type="curve" smooth="yes"/>
      <point x="289" y="630"/>
      <point x="346" y="608"/>
      <point x="346" y="542" type="curve" smooth="yes"/>
      <point x="346" y="477"/>
      <point x="313" y="401"/>
      <point x="221" y="372" type="curve"/>
      <point x="238" y="339" type="line"/>
      <point x="312" y="361"/>
      <point x="399" y="436"/>
      <point x="399" y="541" type="curve" smooth="yes"/>
      <point x="399" y="631"/>
      <point x="317" y="675"/>
    </contour>
    <contour>
      <point x="232" y="377" type="line"/>
      <point x="88" y="325"/>
      <point x="40" y="229"/>
      <point x="40" y="155" type="curve" smooth="yes"/>
      <point x="40" y="58"/>
      <point x="107" y="-18"/>
      <point x="247" y="-18" type="curve" smooth="yes"/>
      <point x="400" y="-18"/>
      <point x="541" y="85"/>
      <point x="583" y="308" type="curve"/>
      <point x="535" y="302" type="line"/>
      <point x="499" y="113"/>
      <point x="373" y="26"/>
      <point x="256" y="26" type="curve" smooth="yes"/>
      <point x="141" y="26"/>
      <point x="100" y="98"/>
      <point x="100" y="167" type="curve" smooth="yes"/>
      <point x="100" y="238"/>
      <point x="154" y="308"/>
      <point x="251" y="341" type="curve"/>
    </contour>
    <contour>
      <point x="499" y="332" type="line"/>
      <point x="471" y="332"/>
      <point x="475" y="307"/>
      <point x="476" y="297" type="curve"/>
      <point x="534" y="291" type="line"/>
      <point x="564" y="293" type="line"/>
      <point x="613" y="296" type="line" smooth="yes"/>
      <point x="647" y="298"/>
      <point x="640" y="322"/>
      <point x="641" y="332" type="curve"/>
    </contour>
  </outline>
</glyph>
<glyph name="two" format="1">
  <advance width="439"/>
  <unicode hex="0032"/>
  <outline>
    <contour>
      <point x="222" y="620" type="curve" smooth="yes"/>
      <point x="121" y="620"/>
      <point x="51" y="563"/>
      <point x="51" y="495" type="curve" smooth="yes"/>
      <point x="51" y="457"/>
      <point x="75" y="445"/>
      <point x="98" y="445" type="curve"/>
      <point x="98" y="526"/>
      <point x="139" y="574"/>
      <point x="218" y="574" type="curve" smooth="yes"/>
      <point x="289" y="574"/>
      <point x="333" y="527"/>
      <point x="333" y="455" type="curve" smooth="yes"/>
      <point x="333" y="308"/>
      <point x="150" y="143"/>
      <point x="36" y="29" type="curve"/>
      <point x="34" y="16"/>
      <point x="37" y="9"/>
      <point x="40" y="0" type="curve"/>
      <point x="404" y="0" type="line"/>
      <point x="404" y="135" type="line"/>
      <point x="397" y="142"/>
      <point x="366" y="135"/>
      <point x="362" y="107" type="curve" smooth="yes"/>
      <point x="352" y="44" type="line"/>
      <point x="106" y="41" type="line"/>
      <point x="189" y="126"/>
      <point x="393" y="296"/>
      <point x="393" y="464" type="curve" smooth="yes"/>
      <point x="393" y="561"/>
      <point x="324" y="620"/>
    </contour>
  </outline>
</glyph>
<glyph name="nine" format="1">
  <advance width="431"/>
  <unicode hex="0039"/>
  <outline>
    <contour>
      <point x="206" y="620" type="curve" smooth="yes"/>
      <point x="90" y="620"/>
      <point x="24" y="529"/>
      <point x="24" y="424" type="curve" smooth="yes"/>
      <point x="24" y="322"/>
      <point x="78" y="258"/>
      <point x="186" y="258" type="curve" smooth="yes"/>
      <point x="259" y="258"/>
      <point x="318" y="284"/>
      <point x="367" y="326" type="curve"/>
      <point x="367" y="380" type="line"/>
      <point x="321" y="326"/>
      <point x="262" y="302"/>
      <point x="201" y="302" type="curve" smooth="yes"/>
      <point x="124" y="302"/>
      <point x="84" y="350"/>
      <point x="84" y="432" type="curve" smooth="yes"/>
      <point x="84" y="523"/>
      <point x="129" y="577"/>
      <point x="206" y="577" type="curve" smooth="yes"/>
      <point x="291" y="577"/>
      <point x="339" y="505"/>
      <point x="339" y="367" type="curve" smooth="yes"/>
      <point x="339" y="156"/>
      <point x="272" y="28"/>
      <point x="163" y="28" type="curve" smooth="yes"/>
      <point x="107" y="28"/>
      <point x="89" y="63"/>
      <point x="89" y="90" type="curve"/>
      <point x="56" y="86"/>
      <point x="49" y="64"/>
      <point x="49" y="45" type="curve" smooth="yes"/>
      <point x="49" y="11"/>
      <point x="83" y="-15"/>
      <point x="156" y="-15" type="curve" smooth="yes"/>
      <point x="310" y="-15"/>
      <point x="399" y="115"/>
      <point x="399" y="364" type="curve" smooth="yes"/>
      <point x="399" y="532"/>
      <point x="335" y="620"/>
    </contour>
  </outline>
</glyph>
<glyph name="colon" format="1">
  <advance width="172"/>
  <unicode hex="003A"/>
  <outline>
    <contour>
      <point x="86" y="-15" type="curve" smooth="yes"/>
      <point x="113" y="-15"/>
      <point x="132" y="5"/>
      <point x="132" y="32" type="curve" smooth="yes"/>
      <point x="132" y="59"/>
      <point x="113" y="79"/>
      <point x="86" y="79" type="curve" smooth="yes"/>
      <point x="59" y="79"/>
      <point x="40" y="59"/>
      <point x="40" y="32" type="curve" smooth="yes"/>
      <point x="40" y="5"/>
      <point x="59" y="-15"/>
    </contour>
    <contour>
      <point x="86" y="291" type="curve" smooth="yes"/>
      <point x="113" y="291"/>
      <point x="132" y="311"/>
      <point x="132" y="338" type="curve" smooth="yes"/>
      <point x="132" y="365"/>
      <point x="113" y="385"/>
      <point x="86" y="385" type="curve" smooth="yes"/>
      <point x="59" y="385"/>
      <point x="40" y="365"/>
      <point x="40" y="338" type="curve" smooth="yes"/>
      <point x="40" y="311"/>
      <point x="59" y="291"/>
    </contour>
  </outline>
</glyph>
<glyph name="less" format="1">
  <advance width="441"/>
  <unicode hex="003C"/>
  <outline>
    <contour>
      <point x="40" y="310" type="line"/>
      <point x="40" y="272" type="line"/>
      <point x="367" y="100" type="line"/>
      <point x="391" y="146" type="line"/>
      <point x="78" y="310" type="line"/>
      <point x="78" y="272" type="line"/>
      <point x="391" y="436" type="line"/>
      <point x="367" y="482" type="line"/>
    </contour>
  </outline>
</glyph>
<glyph name="equal" format="1">
  <advance width="470"/>
  <unicode hex="003D"/>
  <outline>
    <contour>
      <point x="50" y="383" type="line"/>
      <point x="50" y="333" type="line"/>
      <point x="420" y="333" type="line"/>
      <point x="420" y="383" type="line"/>
    </contour>
    <contour>
      <point x="50" y="254" type="line"/>
      <point x="50" y="204" type="line"/>
      <point x="420" y="204" type="line"/>
      <point x="420" y="254" type="line"/>
    </contour>
  </outline>
</glyph>
<glyph name="greater" format="1">
  <advance width="421"/>
  <unicode hex="003E"/>
  <outline>
    <contour>
      <point x="381" y="310" type="line"/>
      <point x="381" y="272" type="line"/>
      <point x="54" y="100" type="line"/>
      <point x="30" y="146" type="line"/>
      <point x="343" y="310" type="line"/>
      <point x="343" y="272" type="line"/>
      <point x="30" y="436" type="line"/>
      <point x="54" y="482" type="line"/>
    </contour>
  </outline>
</glyph>
<glyph name="question" format="1">
  <advance width="482"/>
  <unicode hex="003F"/>
  <outline>
    <contour>
      <point x="248" y="709" type="curve" smooth="yes"/>
      <point x="115" y="709"/>
      <point x="50" y="634"/>
      <point x="50" y="573" type="curve" smooth="yes"/>
      <point x="50" y="539"/>
      <point x="71" y="529"/>
      <point x="104" y="529" type="curve"/>
      <point x="104" y="600"/>
      <point x="146" y="668"/>
      <point x="245" y="668" type="curve" smooth="yes"/>
      <point x="324" y="668"/>
      <point x="372" y="612"/>
      <point x="372" y="547" type="curve" smooth="yes"/>
      <point x="372" y="460"/>
      <point x="293" y="390"/>
      <point x="187" y="363" type="curve"/>
      <point x="192" y="179" type="line"/>
      <point x="207" y="177"/>
      <point x="219" y="177"/>
      <point x="233" y="179" type="curve"/>
      <point x="239" y="332" type="line"/>
      <point x="325" y="353"/>
      <point x="432" y="427"/>
      <point x="432" y="548" type="curve" smooth="yes"/>
      <point x="432" y="646"/>
      <point x="359" y="709"/>
    </contour>
    <contour>
      <point x="212" y="79" type="curve" smooth="yes"/>
      <point x="185" y="79"/>
      <point x="166" y="59"/>
      <point x="166" y="32" type="curve" smooth="yes"/>
      <point x="166" y="5"/>
      <point x="185" y="-15"/>
      <point x="212" y="-15" type="curve" smooth="yes"/>
      <point x="239" y="-15"/>
      <point x="258" y="5"/>
      <point x="258" y="32" type="curve" smooth="yes"/>
      <point x="258" y="59"/>
      <point x="239" y="79"/>
    </contour>
  </outline>
</glyph>
<glyph name="C" format="1">
  <advance width="547"/>
  <unicode hex="0043"/>
  <outline>
    <contour>
      <point x="324" y="675" type="move" name="top"/>
    </contour>
    <contour>
      <point x="329" y="0" type="move" name="bottom"/>
    </contour>
    <contour>
      <point x="326" y="690" type="curve" smooth="yes"/>
      <point x="143" y="690"/>
      <point x="34" y="527"/>
      <point x="40" y="310" type="curve" smooth="yes"/>
      <point x="45" y="116"/>
      <point x="139" y="-15"/>
      <point x="319" y="-15" type="curve" smooth="yes"/>
      <point x="445" y="-15"/>
      <point x="521" y="49"/>
      <point x="521" y="80" type="curve" smooth="yes"/>
      <point x="521" y="88"/>
      <point x="517" y="96"/>
      <point x="509" y="100" type="curve"/>
      <point x="480" y="75"/>
      <point x="425" y="39"/>
      <point x="330" y="39" type="curve" smooth="yes"/>
      <point x="161" y="39"/>
      <point x="103" y="168"/>
      <point x="103" y="332" type="curve" smooth="yes"/>
      <point x="103" y="514"/>
      <point x="174" y="644"/>
      <point x="319" y="644" type="curve" smooth="yes"/>
      <point x="404" y="644"/>
      <point x="461" y="598"/>
      <point x="461" y="512" type="curve"/>
      <point x="499" y="513"/>
      <point x="514" y="532"/>
      <point x="514" y="563" type="curve" smooth="yes"/>
      <point x="514" y="637"/>
      <point x="431" y="690"/>
    </contour>
  </outline>
</glyph>
<glyph name="G" format="1">
  <advance width="612"/>
  <unicode hex="0047"/>
  <outline>
    <contour>
      <point x="315" y="675" type="move" name="top"/>
    </contour>
    <contour>
      <point x="287" y="0" type="move" name="bottom"/>
    </contour>
    <contour>
      <point x="346" y="692" type="curve" smooth="yes"/>
      <point x="143" y="692"/>
      <point x="34" y="533"/>
      <point x="40" y="310" type="curve" smooth="yes"/>
      <point x="46" y="105"/>
      <point x="146" y="-15"/>
      <point x="314" y="-15" type="curve" smooth="yes"/>
      <point x="400" y="-15"/>
      <point x="496" y="17"/>
      <point x="544" y="65" type="curve"/>
      <point x="544" y="268" type="line"/>
      <point x="485" y="268" type="line"/>
      <point x="485" y="80" type="line"/>
      <point x="448" y="51"/>
      <point x="385" y="32"/>
      <point x="325" y="32" type="curve" smooth="yes"/>
      <point x="160" y="32"/>
      <point x="102" y="168"/>
      <point x="102" y="329" type="curve" smooth="yes"/>
      <point x="102" y="515"/>
      <point x="179" y="646"/>
      <point x="332" y="646" type="curve" smooth="yes"/>
      <point x="423" y="646"/>
      <point x="487" y="608"/>
      <point x="487" y="512" type="curve"/>
      <point x="534" y="512"/>
      <point x="540" y="545"/>
      <point x="540" y="565" type="curve" smooth="yes"/>
      <point x="540" y="625"/>
      <point x="488" y="692"/>
    </contour>
    <contour>
      <point x="402" y="303" type="line"/>
      <point x="375" y="303"/>
      <point x="379" y="274"/>
      <point x="380" y="264" type="curve"/>
      <point x="486" y="258" type="line"/>
      <point x="544" y="260" type="line"/>
      <point x="568" y="263" type="line" smooth="yes"/>
      <point x="600" y="267"/>
      <point x="595" y="293"/>
      <point x="596" y="303" type="curve"/>
    </contour>
  </outline>
</glyph>
<glyph name="I" format="1">
  <advance width="299"/>
  <unicode hex="0049"/>
  <outline>
    <contour>
      <point x="154" y="675" type="move" name="top"/>
    </contour>
    <contour>
      <point x="280" y="10" type="move" name="ogonek"/>
    </contour>
    <contour>
      <point x="178" y="645" type="line"/>
      <point x="120" y="645" type="line"/>
      <point x="120" y="0" type="line"/>
      <point x="178" y="0" type="line"/>
    </contour>
    <contour>
      <point x="178" y="45" type="line"/>
      <point x="120" y="43" type="line"/>
      <point x="70" y="40" type="line" smooth="yes"/>
      <point x="37" y="38"/>
      <point x="43" y="10"/>
      <point x="42" y="0" type="curve"/>
      <point x="229" y="0" type="line" smooth="yes"/>
      <point x="257" y="0"/>
      <point x="253" y="29"/>
      <point x="252" y="39" type="curve"/>
    </contour>
    <contour>
      <point x="121" y="630" type="line"/>
      <point x="179" y="632" type="line"/>
      <point x="229" y="635" type="line" smooth="yes"/>
      <point x="262" y="637"/>
      <point x="256" y="665"/>
      <point x="257" y="675" type="curve"/>
      <point x="70" y="675" type="line" smooth="yes"/>
      <point x="42" y="675"/>
      <point x="46" y="646"/>
      <point x="47" y="636" type="curve"/>
    </contour>
  </outline>
</glyph>
<glyph name="S" format="1">
  <advance width="486"/>
  <unicode hex="0053"/>
  <outline>
    <contour>
      <point x="250" y="675" type="move" name="top"/>
    </contour>
    <contour>
      <point x="224" y="0" type="move" name="bottom"/>
    </contour>
    <contour>
      <point x="251" y="690" type="curve" smooth="yes"/>
      <point x="138" y="687"/>
      <point x="51" y="621"/>
      <point x="51" y="519" type="curve" smooth="yes"/>
      <point x="51" y="419"/>
      <point x="145" y="373"/>
      <point x="251" y="327" type="curve" smooth="yes"/>
      <point x="336" y="290"/>
      <point x="401" y="268"/>
      <point x="401" y="180" type="curve" smooth="yes"/>
      <point x="401" y="90"/>
      <point x="334" y="35"/>
      <point x="236" y="35" type="curve" smooth="yes"/>
      <point x="153" y="35"/>
      <point x="90" y="74"/>
      <point x="70" y="151" type="curve"/>
      <point x="42" y="151"/>
      <point x="25" y="128"/>
      <point x="25" y="99" type="curve" smooth="yes"/>
      <point x="25" y="30"/>
      <point x="124" y="-15"/>
      <point x="221" y="-15" type="curve" smooth="yes"/>
      <point x="368" y="-15"/>
      <point x="461" y="90"/>
      <point x="461" y="201" type="curve" smooth="yes"/>
      <point x="461" y="301"/>
      <point x="385" y="336"/>
      <point x="277" y="381" type="curve" smooth="yes"/>
      <point x="200" y="413"/>
      <point x="111" y="450"/>
      <point x="111" y="534" type="curve" smooth="yes"/>
      <point x="111" y="605"/>
      <point x="173" y="640"/>
      <point x="249" y="640" type="curve" smooth="yes"/>
      <point x="336" y="640"/>
      <point x="374" y="595"/>
      <point x="374" y="528" type="curve"/>
      <point x="398" y="528"/>
      <point x="429" y="541"/>
      <point x="429" y="585" type="curve" smooth="yes"/>
      <point x="429" y="669"/>
      <point x="313" y="692"/>
    </contour>
  </outline>
</glyph>
<glyph name="V" format="1">
  <advance width="605"/>
  <unicode hex="0056"/>
  <outline>
    <contour>
      <point x="54" y="646" type="line"/>
      <point x="277" y="0" type="line"/>
      <point x="319" y="0" type="line"/>
      <point x="559" y="649" type="line"/>
      <point x="506" y="643" type="line"/>
      <point x="284" y="24" type="line"/>
      <point x="319" y="41" type="line"/>
      <point x="119" y="648" type="line"/>
    </contour>
    <contour>
      <point x="501" y="630" type="line"/>
      <point x="552" y="632" type="line"/>
      <point x="572" y="635" type="line" smooth="yes"/>
      <point x="605" y="640"/>
      <point x="599" y="665"/>
      <point x="600" y="675" type="curve"/>
      <point x="454" y="675" type="line" smooth="yes"/>
      <point x="426" y="675"/>
      <point x="430" y="646"/>
      <point x="431" y="636" type="curve"/>
    </contour>
    <contour>
      <point x="60" y="630" type="line"/>
      <point x="125" y="632" type="line"/>
      <point x="175" y="635" type="line" smooth="yes"/>
      <point x="208" y="637"/>
      <point x="202" y="665"/>
      <point x="203" y="675" type="curve"/>
      <point x="29" y="675" type="line" smooth="yes"/>
      <point x="1" y="675"/>
      <point x="5" y="646"/>
      <point x="6" y="636" type="curve"/>
    </contour>
  </outline>
</glyph>
<glyph name="X" format="1">
  <advance width="606"/>
  <unicode hex="0058"/>
  <outline>
    <contour>
      <point x="301" y="378" type="line"/>
      <point x="60" y="26" type="line"/>
      <point x="117" y="20" type="line"/>
      <point x="332" y="349" type="line"/>
    </contour>
    <contour>
      <point x="127" y="655" type="line"/>
      <point x="59" y="648" type="line"/>
      <point x="476" y="33" type="line"/>
      <point x="555" y="24" type="line"/>
    </contour>
    <contour>
      <point x="462" y="637" type="line"/>
      <point x="281" y="335" type="line"/>
      <point x="312" y="306" type="line"/>
      <point x="529" y="649" type="line"/>
    </contour>
    <contour>
      <point x="168" y="0" type="line"/>
      <point x="196" y="0"/>
      <point x="192" y="29"/>
      <point x="191" y="39" type="curve"/>
      <point x="134" y="45" type="line"/>
      <point x="72" y="42" type="line"/>
      <point x="38" y="40" type="line" smooth="yes"/>
      <point x="5" y="38"/>
      <point x="11" y="10"/>
      <point x="10" y="0" type="curve"/>
    </contour>
    <contour>
      <point x="465" y="632" type="line"/>
      <point x="527" y="635" type="line"/>
      <point x="546" y="637" type="line" smooth="yes"/>
      <point x="579" y="640"/>
      <point x="573" y="667"/>
      <point x="574" y="677" type="curve"/>
      <point x="425" y="677" type="line" smooth="yes"/>
      <point x="397" y="677"/>
      <point x="401" y="648"/>
      <point x="402" y="638" type="curve"/>
    </contour>
    <contour>
      <point x="541" y="45" type="line"/>
      <point x="469" y="43" type="line"/>
      <point x="439" y="40" type="line" smooth="yes"/>
      <point x="406" y="37"/>
      <point x="412" y="10"/>
      <point x="411" y="0" type="curve"/>
      <point x="572" y="0" type="line" smooth="yes"/>
      <point x="600" y="0"/>
      <point x="596" y="29"/>
      <point x="595" y="39" type="curve"/>
    </contour>
    <contour>
      <point x="70" y="632" type="line"/>
      <point x="141" y="634" type="line"/>
      <point x="175" y="637" type="line" smooth="yes"/>
      <point x="208" y="640"/>
      <point x="202" y="667"/>
      <point x="203" y="677" type="curve"/>
      <point x="39" y="677" type="line" smooth="yes"/>
      <point x="11" y="677"/>
      <point x="15" y="648"/>
      <point x="16" y="638" type="curve"/>
    </contour>
  </outline>
</glyph>
<glyph name="bracketleft" format="1">
  <advance width="208"/>
  <unicode hex="005B"/>
  <outline>
    <contour>
      <point x="114" y="645" type="line"/>
      <point x="198" y="645" type="line"/>
      <point x="198" y="685" type="line"/>
      <point x="60" y="685" type="line"/>
      <point x="60" y="-180" type="line"/>
      <point x="198" y="-180" type="line"/>
      <point x="198" y="-140" type="line"/>
      <point x="114" y="-140" type="line"/>
    </contour>
  </outline>
</glyph>
<glyph name="underscore" format="1">
  <advance width="380"/>
  <unicode hex="005F"/>
  <outline>
    <contour>
      <point x="-40" y="-89" type="line"/>
      <point x="-40" y="-139" type="line"/>
      <point x="420" y="-139" type="line"/>
      <point x="420" y="-89" type="line"/>
    </contour>
  </outline>
</glyph>
<glyph name="i" format="1">
  <advance width="283"/>
  <unicode hex="0069"/>
  <outline>
    <contour>
      <point x="144" y="586" type="curve" smooth="yes"/>
      <point x="170" y="586"/>
      <point x="187" y="603"/>
      <point x="187" y="629" type="curve" smooth="yes"/>
      <point x="187" y="655"/>
      <point x="170" y="672"/>
      <point x="144" y="672" type="curve" smooth="yes"/>
      <point x="118" y="672"/>
      <point x="101" y="655"/>
      <point x="101" y="629" type="curve" smooth="yes"/>
      <point x="101" y="603"/>
      <point x="118" y="586"/>
    </contour>
    <contour>
      <point x="180" y="500" type="line"/>
      <point x="49" y="485" type="line"/>
      <point x="49" y="472"/>
      <point x="48" y="450"/>
      <point x="69" y="448" type="curve" smooth="yes"/>
      <point x="125" y="443" type="line"/>
      <point x="125" y="0" type="line"/>
      <point x="180" y="0" type="line"/>
    </contour>
    <contour>
      <point x="176" y="41" type="line"/>
      <point x="125" y="39" type="line"/>
      <point x="80" y="36" type="line" smooth="yes"/>
      <point x="47" y="34"/>
      <point x="53" y="10"/>
      <point x="52" y="0" type="curve"/>
      <point x="234" y="0" type="line" smooth="yes"/>
      <point x="262" y="0"/>
      <point x="258" y="25"/>
      <point x="257" y="35" type="curve"/>
    </contour>
  </outline>
</glyph>
<glyph name="o" format="1">
  <advance width="499"/>
  <unicode hex="006F"/>
  <outline>
    <contour>
      <point x="252" y="485" type="move" name="top"/>
    </contour>
    <contour>
      <point x="256" y="500" type="curve" smooth="yes"/>
      <point x="126" y="500"/>
      <point x="38" y="393"/>
      <point x="40" y="225" type="curve" smooth="yes"/>
      <point x="42" y="74"/>
      <point x="114" y="-15"/>
      <point x="241" y="-15" type="curve" smooth="yes"/>
      <point x="381" y="-15"/>
      <point x="461" y="100"/>
      <point x="459" y="261" type="curve" smooth="yes"/>
      <point x="457" y="465"/>
      <point x="333" y="500"/>
    </contour>
    <contour>
      <point x="250" y="455" type="curve" smooth="yes"/>
      <point x="358" y="456"/>
      <point x="399" y="347"/>
      <point x="399" y="243" type="curve" smooth="yes"/>
      <point x="399" y="122"/>
      <point x="347" y="31"/>
      <point x="249" y="30" type="curve" smooth="yes"/>
      <point x="145" y="29"/>
      <point x="100" y="128"/>
      <point x="100" y="241" type="curve" smooth="yes"/>
      <point x="100" y="358"/>
      <point x="151" y="454"/>
    </contour>
  </outline>
</glyph>
<glyph name="r" format="1">
  <advance width="395"/>
  <unicode hex="0072"/>
  <outline>
    <contour>
      <point x="220" y="485" type="move" name="top"/>
    </contour>
    <contour>
      <point x="157" y="0" type="move" name="bottom"/>
    </contour>
    <contour>
      <point x="334" y="500" type="curve" smooth="yes"/>
      <point x="289" y="500"/>
      <point x="221" y="460"/>
      <point x="181" y="421" type="curve"/>
      <point x="178" y="421" type="line"/>
      <point x="172" y="496" type="line"/>
      <point x="49" y="480" type="line"/>
      <point x="49" y="467"/>
      <point x="48" y="447"/>
      <point x="69" y="445" type="curve" smooth="yes"/>
      <point x="125" y="439" type="line"/>
      <point x="125" y="39" type="line"/>
      <point x="80" y="36" type="line" smooth="yes"/>
      <point x="47" y="34"/>
      <point x="53" y="10"/>
      <point x="52" y="0" type="curve"/>
      <point x="244" y="0" type="line" smooth="yes"/>
      <point x="272" y="0"/>
      <point x="268" y="25"/>
      <point x="267" y="35" type="curve"/>
      <point x="180" y="41" type="line"/>
      <point x="180" y="377" type="line"/>
      <point x="226" y="419"/>
      <point x="268" y="446"/>
      <point x="303" y="446" type="curve" smooth="yes"/>
      <point x="336" y="446"/>
      <point x="341" y="410"/>
      <point x="341" y="375" type="curve"/>
      <point x="357" y="374"/>
      <point x="369" y="376"/>
      <point x="378" y="384" type="curve"/>
      <point x="386" y="394"/>
      <point x="390" y="430"/>
      <point x="390" y="451" type="curve" smooth="yes"/>
      <point x="390" y="489"/>
      <point x="360" y="500"/>
    </contour>
  </outline>
</glyph>
<glyph name="s" format="1">
  <advance width="384"/>
  <unicode hex="0073"/>
  <outline>
    <contour>
      <point x="193" y="485" type="move" name="top"/>
    </contour>
    <contour>
      <point x="193" y="0" type="move" name="bottom"/>
    </contour>
    <contour>
      <point x="212" y="500" type="curve" smooth="yes"/>
      <point x="126" y="501"/>
      <point x="43" y="451"/>
      <point x="41" y="363" type="curve" smooth="yes"/>
      <point x="40" y="276"/>
      <point x="126" y="247"/>
      <point x="206" y="218" type="curve" smooth="yes"/>
      <point x="275" y="192"/>
      <point x="309" y="173"/>
      <point x="308" y="122" type="curve" smooth="yes"/>
      <point x="307" y="62"/>
      <point x="251" y="29"/>
      <point x="188" y="30" type="curve" smooth="yes"/>
      <point x="123" y="31"/>
      <point x="77" y="68"/>
      <point x="65" y="119" type="curve"/>
      <point x="42" y="120"/>
      <point x="24" y="103"/>
      <point x="23" y="76" type="curve" smooth="yes"/>
      <point x="22" y="19"/>
      <point x="100" y="-13"/>
      <point x="174" y="-15" type="curve" smooth="yes"/>
      <point x="295" y="-17"/>
      <point x="360" y="66"/>
      <point x="361" y="143" type="curve" smooth="yes"/>
      <point x="363" y="219"/>
      <point x="304" y="243"/>
      <point x="223" y="275" type="curve" smooth="yes"/>
      <point x="143" y="305"/>
      <point x="92" y="326"/>
      <point x="93" y="376" type="curve" smooth="yes"/>
      <point x="94" y="424"/>
      <point x="141" y="456"/>
      <point x="202" y="455" type="curve" smooth="yes"/>
      <point x="264" y="454"/>
      <point x="288" y="420"/>
      <point x="287" y="377" type="curve"/>
      <point x="304" y="376"/>
      <point x="338" y="384"/>
      <point x="339" y="421" type="curve" smooth="yes"/>
      <point x="340" y="475"/>
      <point x="269" y="499"/>
    </contour>
  </outline>
</glyph>
<glyph name="u" format="1">
  <advance width="564"/>
  <unicode hex="0075"/>
  <outline>
    <contour>
      <point x="283" y="485" type="move" name="top"/>
    </contour>
    <contour>
      <point x="514" y="10" type="move" name="ogonek"/>
    </contour>
    <contour>
      <point x="467" y="54" type="line"/>
      <point x="467" y="485" type="line"/>
      <point x="358" y="485" type="line" smooth="yes"/>
      <point x="330" y="485"/>
      <point x="334" y="460"/>
      <point x="335" y="450" type="curve"/>
      <point x="412" y="444" type="line"/>
      <point x="412" y="97" type="line"/>
      <point x="372" y="62"/>
      <point x="333" y="37"/>
      <point x="273" y="37" type="curve" smooth="yes"/>
      <point x="196" y="37"/>
      <point x="149" y="91"/>
      <point x="149" y="195" type="curve" smooth="yes"/>
      <point x="149" y="485" type="line"/>
      <point x="41" y="485" type="line" smooth="yes"/>
      <point x="13" y="485"/>
      <point x="17" y="460"/>
      <point x="18" y="450" type="curve"/>
      <point x="94" y="444" type="line"/>
      <point x="94" y="186" type="line" smooth="yes"/>
      <point x="94" y="33"/>
      <point x="186" y="-15"/>
      <point x="262" y="-15" type="curve" smooth="yes"/>
      <point x="338" y="-15"/>
      <point x="384" y="19"/>
      <point x="417" y="53" type="curve"/>
      <point x="428" y="1" type="line"/>
      <point x="543" y="10" type="line"/>
      <point x="543" y="23"/>
      <point x="544" y="46"/>
      <point x="523" y="48" type="curve" smooth="yes"/>
    </contour>
  </outline>
</glyph>
<glyph name="w" format="1">
  <advance width="697"/>
  <unicode hex="0077"/>
  <outline>
    <contour>
      <point x="365" y="485" type="move" name="top"/>
    </contour>
    <contour>
      <point x="94" y="482" type="line"/>
      <point x="31" y="480" type="line"/>
      <point x="193" y="0" type="line"/>
      <point x="228" y="0" type="line"/>
      <point x="366" y="368" type="line"/>
      <point x="332" y="369" type="line"/>
      <point x="461" y="0" type="line"/>
      <point x="496" y="0" type="line"/>
      <point x="672" y="479" type="line"/>
      <point x="615" y="473" type="line"/>
      <point x="471" y="33" type="line"/>
      <point x="500" y="33" type="line"/>
      <point x="369" y="444" type="line"/>
      <point x="348" y="444" type="line"/>
      <point x="203" y="33" type="line"/>
      <point x="229" y="33" type="line"/>
    </contour>
    <contour>
      <point x="26" y="485" type="line"/>
      <point x="6" y="485"/>
      <point x="4" y="460"/>
      <point x="5" y="450" type="curve"/>
      <point x="43" y="444" type="line"/>
      <point x="104" y="446" type="line"/>
      <point x="148" y="449" type="line" smooth="yes"/>
      <point x="181" y="451"/>
      <point x="175" y="475"/>
      <point x="176" y="485" type="curve"/>
    </contour>
    <contour>
      <point x="567" y="485" type="line"/>
      <point x="539" y="485"/>
      <point x="543" y="460"/>
      <point x="544" y="450" type="curve"/>
      <point x="605" y="444" type="line"/>
      <point x="652" y="448" type="line"/>
      <point x="664" y="449" type="line" smooth="yes"/>
      <point x="694" y="451"/>
      <point x="694" y="475"/>
      <point x="692" y="485" type="curve"/>
    </contour>
  </outline>
</glyph>
<glyph name="z" format="1">
  <advance width="388"/>
  <unicode hex="007A"/>
  <outline>
    <contour>
      <point x="211" y="485" type="move" name="top"/>
    </contour>
    <contour>
      <point x="52" y="485" type="line"/>
      <point x="52" y="360" type="line"/>
      <point x="59" y="353"/>
      <point x="90" y="360"/>
      <point x="92" y="388" type="curve" smooth="yes"/>
      <point x="95" y="445" type="line"/>
      <point x="305" y="450" type="line"/>
      <point x="15" y="22" type="line"/>
      <point x="17" y="13"/>
      <point x="20" y="6"/>
      <point x="24" y="0" type="curve"/>
      <point x="373" y="0" type="line"/>
      <point x="373" y="129" type="line"/>
      <point x="366" y="136"/>
      <point x="336" y="129"/>
      <point x="334" y="101" type="curve" smooth="yes"/>
      <point x="329" y="43" type="line"/>
      <point x="85" y="39" type="line"/>
      <point x="372" y="463" type="line"/>
      <point x="369" y="473"/>
      <point x="366" y="479"/>
      <point x="362" y="485" type="curve"/>
    </contour>
  </outline>
</glyph>
<glyph name="cent" format="1">
  <advance width="468"/>
  <unicode hex="00A2"/>
  <outline>
    <contour>
      <point x="282" y="500" type="curve" smooth="yes"/>
      <point x="128" y="500"/>
      <point x="47" y="374"/>
      <point x="50" y="219" type="curve" smooth="yes"/>
      <point x="52" y="86"/>
      <point x="116" y="-16"/>
      <point x="243" y="-16" type="curve" smooth="yes"/>
      <point x="326" y="-16"/>
      <point x="418" y="27"/>
      <point x="418" y="67" type="curve" smooth="yes"/>
      <point x="418" y="75"/>
      <point x="415" y="81"/>
      <point x="408" y="86" type="curve"/>
      <point x="361" y="49"/>
      <point x="316" y="33"/>
      <point x="268" y="33" type="curve" smooth="yes"/>
      <point x="143" y="33"/>
      <point x="110" y="141"/>
      <point x="110" y="237" type="curve" smooth="yes"/>
      <point x="110" y="355"/>
      <point x="159" y="458"/>
      <point x="266" y="458" type="curve" smooth="yes"/>
      <point x="339" y="458"/>
      <point x="366" y="409"/>
      <point x="367" y="363" type="curve"/>
      <point x="394" y="363"/>
      <point x="415" y="373"/>
      <point x="415" y="409" type="curve" smooth="yes"/>
      <point x="415" y="462"/>
      <point x="366" y="500"/>
    </contour>
    <contour>
      <point x="287" y="10" type="line"/>
      <point x="241" y="5" type="line"/>
      <point x="233" y="-102" type="line"/>
      <point x="250" y="-108"/>
      <point x="274" y="-108"/>
      <point x="293" y="-102" type="curve"/>
    </contour>
    <contour>
      <point x="293" y="592" type="line"/>
      <point x="274" y="598"/>
      <point x="250" y="597"/>
      <point x="233" y="592" type="curve"/>
      <point x="242" y="473" type="line"/>
      <point x="286" y="473" type="line"/>
    </contour>
  </outline>
</glyph>
<glyph name="sterling" format="1">
  <advance width="498"/>
  <unicode hex="00A3"/>
  <outline>
    <contour>
      <point x="342" y="615" type="curve" smooth="yes"/>
      <point x="238" y="615"/>
      <point x="173" y="552"/>
      <point x="161" y="389" type="curve" smooth="yes"/>
      <point x="159" y="366"/>
      <point x="138" y="160"/>
      <point x="130" y="119" type="curve" smooth="yes"/>
      <point x="117" y="54"/>
      <point x="92" y="40"/>
      <point x="50" y="28" type="curve"/>
      <point x="50" y="20"/>
      <point x="52" y="6"/>
      <point x="56" y="0" type="curve"/>
      <point x="417" y="0" type="line" smooth="yes"/>
      <point x="445" y="0"/>
      <point x="450" y="20"/>
      <point x="448" y="40" type="curve"/>
      <point x="143" y="40" type="line"/>
      <point x="158" y="54"/>
      <point x="171" y="77"/>
      <point x="178" y="118" type="curve" smooth="yes"/>
      <point x="187" y="168"/>
      <point x="206" y="358"/>
      <point x="209" y="389" type="curve" smooth="yes"/>
      <point x="220" y="524"/>
      <point x="272" y="571"/>
      <point x="327" y="571" type="curve" smooth="yes"/>
      <point x="381" y="571"/>
      <point x="395" y="539"/>
      <point x="395" y="496" type="curve"/>
      <point x="412" y="496"/>
      <point x="446" y="501"/>
      <point x="446" y="544" type="curve" smooth="yes"/>
      <point x="446" y="597"/>
      <point x="388" y="615"/>
    </contour>
    <contour>
      <point x="380" y="318" type="line"/>
      <point x="58" y="318" type="line"/>
      <point x="58" y="273" type="line"/>
      <point x="380" y="273" type="line"/>
    </contour>
  </outline>
</glyph>
<glyph name="yen" format="1">
  <advance width="549"/>
  <unicode hex="00A5"/>
  <outline>
    <contour>
      <point x="315" y="305" type="line"/>
      <point x="259" y="305" type="line"/>
      <point x="259" y="0" type="line"/>
      <point x="315" y="0" type="line"/>
    </contour>
    <contour>
      <point x="315" y="45" type="line"/>
      <point x="259" y="43" type="line"/>
      <point x="209" y="40" type="line" smooth="yes"/>
      <point x="176" y="38"/>
      <point x="182" y="10"/>
      <point x="181" y="0" type="curve"/>
      <point x="366" y="0" type="line" smooth="yes"/>
      <point x="394" y="0"/>
      <point x="390" y="29"/>
      <point x="389" y="39" type="curve"/>
    </contour>
    <contour>
      <point x="56" y="582" type="line"/>
      <point x="277" y="258" type="line"/>
      <point x="300" y="258" type="line"/>
      <point x="500" y="585" type="line"/>
      <point x="442" y="579" type="line"/>
      <point x="267" y="282" type="line"/>
      <point x="310" y="299" type="line"/>
      <point x="130" y="584" type="line"/>
    </contour>
    <contour>
      <point x="436" y="566" type="line"/>
      <point x="491" y="568" type="line"/>
      <point x="511" y="571" type="line" smooth="yes"/>
      <point x="544" y="576"/>
      <point x="538" y="601"/>
      <point x="539" y="611" type="curve"/>
      <point x="389" y="611" type="line" smooth="yes"/>
      <point x="361" y="611"/>
      <point x="365" y="582"/>
      <point x="366" y="572" type="curve"/>
    </contour>
    <contour>
      <point x="65" y="566" type="line"/>
      <point x="132" y="568" type="line"/>
      <point x="180" y="571" type="line" smooth="yes"/>
      <point x="213" y="573"/>
      <point x="207" y="601"/>
      <point x="208" y="611" type="curve"/>
      <point x="34" y="611" type="line" smooth="yes"/>
      <point x="6" y="611"/>
      <point x="10" y="582"/>
      <point x="11" y="572" type="curve"/>
    </contour>
    <contour>
      <point x="440" y="317" type="line"/>
      <point x="118" y="317" type="line"/>
      <point x="118" y="272" type="line"/>
      <point x="440" y="272" type="line"/>
    </contour>
    <contour>
      <point x="440" y="221" type="line"/>
      <point x="118" y="221" type="line"/>
      <point x="118" y="176" type="line"/>
      <point x="440" y="176" type="line"/>
    </contour>
  </outline>
</glyph>
<glyph name="brokenbar" format="1">
  <advance width="254"/>
  <unicode hex="00A6"/>
  <outline>
    <contour>
      <point x="154" y="170" type="line"/>
      <point x="100" y="170" type="line"/>
      <point x="100" y="-196" type="line"/>
      <point x="154" y="-196" type="line"/>
    </contour>
    <contour>
      <point x="100" y="335" type="line"/>
      <point x="154" y="335" type="line"/>
      <point x="154" y="701" type="line"/>
      <point x="100" y="701" type="line"/>
    </contour>
  </outline>
</glyph>
<glyph name="copyright" format="1">
  <advance width="638"/>
  <unicode hex="00A9"/>
  <outline>
    <contour>
      <point x="320" y="580" type="curve" smooth="yes"/>
      <point x="159" y="580"/>
      <point x="50" y="473"/>
      <point x="50" y="311" type="curve" smooth="yes"/>
      <point x="50" y="150"/>
      <point x="158" y="42"/>
      <point x="319" y="42" type="curve" smooth="yes"/>
      <point x="482" y="42"/>
      <point x="588" y="150"/>
      <point x="588" y="310" type="curve" smooth="yes"/>
      <point x="588" y="473"/>
      <point x="480" y="580"/>
    </contour>
    <contour>
      <point x="320" y="537" type="curve" smooth="yes"/>
      <point x="445" y="537"/>
      <point x="538" y="449"/>
      <point x="538" y="310" type="curve" smooth="yes"/>
      <point x="538" y="175"/>
      <point x="449" y="85"/>
      <point x="320" y="85" type="curve" smooth="yes"/>
      <point x="189" y="85"/>
      <point x="100" y="175"/>
      <point x="100" y="310" type="curve" smooth="yes"/>
      <point x="100" y="441"/>
      <point x="185" y="537"/>
    </contour>
    <contour>
      <point x="415" y="409" type="curve" smooth="yes"/>
      <point x="415" y="440"/>
      <point x="388" y="462"/>
      <point x="339" y="462" type="curve" smooth="yes"/>
      <point x="249" y="462"/>
      <point x="202" y="389"/>
      <point x="203" y="300" type="curve" smooth="yes"/>
      <point x="204" y="223"/>
      <point x="245" y="164"/>
      <point x="328" y="164" type="curve" smooth="yes"/>
      <point x="376" y="164"/>
      <point x="417" y="190"/>
      <point x="417" y="212" type="curve" smooth="yes"/>
      <point x="417" y="220"/>
      <point x="415" y="223"/>
      <point x="411" y="226" type="curve"/>
      <point x="384" y="205"/>
      <point x="358" y="204"/>
      <point x="337" y="204" type="curve" smooth="yes"/>
      <point x="265" y="204"/>
      <point x="250" y="258"/>
      <point x="250" y="310" type="curve" smooth="yes"/>
      <point x="250" y="373"/>
      <point x="277" y="427"/>
      <point x="329" y="427" type="curve" smooth="yes"/>
      <point x="366" y="427"/>
      <point x="383" y="406"/>
      <point x="383" y="382" type="curve"/>
      <point x="398" y="382"/>
      <point x="415" y="391"/>
    </contour>
  </outline>
</glyph>
<glyph name="degree" format="1">
  <advance width="307"/>
  <unicode hex="00B0"/>
  <outline>
    <contour>
      <point x="50" y="579" type="curve" smooth="yes"/>
      <point x="50" y="520"/>
      <point x="93" y="479"/>
      <point x="154" y="479" type="curve" smooth="yes"/>
      <point x="213" y="479"/>
      <point x="257" y="520"/>
      <point x="257" y="579" type="curve" smooth="yes"/>
      <point x="257" y="639"/>
      <point x="214" y="678"/>
      <point x="154" y="678" type="curve" smooth="yes"/>
      <point x="95" y="678"/>
      <point x="50" y="639"/>
    </contour>
    <contour>
      <point x="95" y="580" type="curve" smooth="yes"/>
      <point x="95" y="615"/>
      <point x="118" y="640"/>
      <point x="154" y="640" type="curve" smooth="yes"/>
      <point x="189" y="640"/>
      <point x="212" y="615"/>
      <point x="212" y="579" type="curve" smooth="yes"/>
      <point x="212" y="544"/>
      <point x="190" y="518"/>
      <point x="154" y="518" type="curve" smooth="yes"/>
      <point x="119" y="518"/>
      <point x="95" y="544"/>
    </contour>
  </outline>
</glyph>
<glyph name="plusminus" format="1">
  <advance width="470"/>
  <unicode hex="00B1"/>
  <outline>
    <contour>
      <point x="50" y="316" type="line"/>
      <point x="50" y="266" type="line"/>
      <point x="420" y="266" type="line"/>
      <point x="420" y="316" type="line"/>
    </contour>
    <contour>
      <point x="261" y="476" type="line"/>
      <point x="209" y="476" type="line"/>
      <point x="209" y="142" type="line"/>
      <point x="261" y="142" type="line"/>
    </contour>
    <contour>
      <point x="50" y="116" type="line"/>
      <point x="50" y="66" type="line"/>
      <point x="420" y="66" type="line"/>
      <point x="420" y="116" type="line"/>
    </contour>
  </outline>
</glyph>
<glyph name="twosuperior" format="1">
  <advance width="313"/>
  <unicode hex="00B2"/>
  <outline>
    <contour>
      <point x="156" y="621" type="curve" smooth="yes"/>
      <point x="91" y="621"/>
      <point x="44" y="588"/>
      <point x="44" y="545" type="curve" smooth="yes"/>
      <point x="44" y="516"/>
      <point x="67" y="508"/>
      <point x="86" y="509" type="curve"/>
      <point x="86" y="554"/>
      <point x="104" y="586"/>
      <point x="150" y="586" type="curve" smooth="yes"/>
      <point x="191" y="586"/>
      <point x="212" y="562"/>
      <point x="212" y="528" type="curve" smooth="yes"/>
      <point x="212" y="446"/>
      <point x="101" y="359"/>
      <point x="35" y="304" type="curve"/>
      <point x="34" y="297"/>
      <point x="38" y="282"/>
      <point x="40" y="277" type="curve"/>
      <point x="278" y="277" type="line"/>
      <point x="278" y="366" type="line"/>
      <point x="269" y="370"/>
      <point x="249" y="366"/>
      <point x="246" y="347" type="curve" smooth="yes"/>
      <point x="241" y="314" type="line"/>
      <point x="74" y="314" type="line"/>
      <point x="92" y="308" type="line"/>
      <point x="132" y="340"/>
      <point x="266" y="433"/>
      <point x="266" y="529" type="curve" smooth="yes"/>
      <point x="266" y="584"/>
      <point x="224" y="621"/>
    </contour>
  </outline>
</glyph>
<glyph name="acute" format="1">
  <advance width="600"/>
  <unicode hex="00B4"/>
  <outline>
    <contour>
      <point x="265" y="485" type="move" name="_top"/>
    </contour>
    <contour>
      <point x="408" y="635" type="line"/>
      <point x="397" y="657"/>
      <point x="373" y="678"/>
      <point x="350" y="679" type="curve"/>
      <point x="186" y="555" type="line"/>
      <point x="192" y="545"/>
      <point x="200" y="535"/>
      <point x="212" y="529" type="curve"/>
    </contour>
  </outline>
</glyph>
<glyph name="paragraph" format="1">
  <advance width="563"/>
  <unicode hex="00B6"/>
  <outline>
    <contour>
      <point x="281" y="677" type="line"/>
      <point x="122" y="677"/>
      <point x="50" y="591"/>
      <point x="50" y="490" type="curve" smooth="yes"/>
      <point x="50" y="332"/>
      <point x="188" y="300"/>
      <point x="257" y="300" type="curve"/>
      <point x="257" y="-90" type="line"/>
      <point x="317" y="-90" type="line"/>
      <point x="317" y="632" type="line"/>
      <point x="379" y="632" type="line"/>
      <point x="379" y="-90" type="line"/>
      <point x="439" y="-90" type="line"/>
      <point x="439" y="632" type="line"/>
      <point x="512" y="638" type="line"/>
      <point x="513" y="648"/>
      <point x="517" y="677"/>
      <point x="489" y="677" type="curve" smooth="yes"/>
    </contour>
  </outline>
</glyph>
<glyph name="periodcentered" format="1">
  <advance width="172"/>
  <unicode hex="00B7"/>
  <outline>
    <contour>
      <point x="86" y="204" type="curve" smooth="yes"/>
      <point x="113" y="204"/>
      <point x="132" y="224"/>
      <point x="132" y="251" type="curve" smooth="yes"/>
      <point x="132" y="278"/>
      <point x="113" y="298"/>
      <point x="86" y="298" type="curve" smooth="yes"/>
      <point x="59" y="298"/>
      <point x="40" y="278"/>
      <point x="40" y="251" type="curve" smooth="yes"/>
      <point x="40" y="224"/>
      <point x="59" y="204"/>
    </contour>
  </outline>
</glyph>
<glyph name="guillemotright" format="1">
  <advance width="539"/>
  <unicode hex="00BB"/>
  <outline>
    <contour>
      <point x="34" y="436" type="line"/>
      <point x="57" y="460" type="line"/>
      <point x="301" y="261" type="line"/>
      <point x="305" y="241"/>
      <point x="305" y="239"/>
      <point x="301" y="221" type="curve"/>
      <point x="57" y="21" type="line"/>
      <point x="33" y="45" type="line"/>
      <point x="235" y="238" type="line"/>
      <point x="235" y="243" type="line"/>
    </contour>
    <contour>
      <point x="209" y="436" type="line"/>
      <point x="232" y="460" type="line"/>
      <point x="476" y="261" type="line"/>
      <point x="480" y="241"/>
      <point x="480" y="239"/>
      <point x="476" y="221" type="curve"/>
      <point x="232" y="21" type="line"/>
      <point x="208" y="45" type="line"/>
      <point x="410" y="238" type="line"/>
      <point x="410" y="243" type="line"/>
    </contour>
  </outline>
</glyph>
<glyph name="onequarter" format="1">
  <advance width="600"/>
  <unicode hex="00BC"/>
  <outline>
    <contour>
      <point x="512" y="620" type="line"/>
      <point x="460" y="620" type="line"/>
      <point x="106" y="0" type="line"/>
      <point x="158" y="0" type="line"/>
    </contour>
    <contour>
      <point x="148" y="597" type="line"/>
      <point x="148" y="613"/>
      <point x="140" y="620"/>
      <point x="129" y="620" type="curve" smooth="yes"/>
      <point x="121" y="620"/>
      <point x="112" y="619"/>
      <point x="103" y="614" type="curve" smooth="yes"/>
      <point x="27" y="573" type="line"/>
      <point x="27" y="566"/>
      <point x="38" y="544"/>
      <point x="55" y="549" type="curve" smooth="yes"/>
      <point x="96" y="562" type="line"/>
      <point x="96" y="276" type="line"/>
      <point x="148" y="276" type="line"/>
    </contour>
    <contour>
      <point x="148" y="309" type="line"/>
      <point x="96" y="308" type="line"/>
      <point x="58" y="306" type="line" smooth="yes"/>
      <point x="34" y="305"/>
      <point x="38" y="282"/>
      <point x="37" y="276" type="curve"/>
      <point x="184" y="276" type="line" smooth="yes"/>
      <point x="207" y="276"/>
      <point x="205" y="300"/>
      <point x="204" y="305" type="curve"/>
    </contour>
    <contour>
      <point x="519" y="338" type="line"/>
      <point x="505" y="341"/>
      <point x="491" y="340"/>
      <point x="476" y="336" type="curve"/>
      <point x="308" y="101" type="line"/>
      <point x="309" y="89"/>
      <point x="316" y="79"/>
      <point x="322" y="70" type="curve"/>
      <point x="573" y="70" type="line"/>
      <point x="573" y="105" type="line"/>
      <point x="326" y="105" type="line"/>
      <point x="343" y="94" type="line"/>
      <point x="506" y="322" type="line"/>
      <point x="469" y="304" type="line"/>
      <point x="469" y="-9" type="line"/>
      <point x="520" y="-3" type="line"/>
    </contour>
  </outline>
</glyph>
<glyph name="Aacute" format="1">
  <advance width="597"/>
  <unicode hex="00C1"/>
  <outline>
    <contour>
      <point x="127" y="45" type="line"/>
      <point x="78" y="43" type="line"/>
      <point x="38" y="40" type="line" smooth="yes"/>
      <point x="5" y="38"/>
      <point x="11" y="10"/>
      <point x="10" y="0" type="curve"/>
      <point x="178" y="0" type="line" smooth="yes"/>
      <point x="206" y="0"/>
      <point x="202" y="29"/>
      <point x="201" y="39" type="curve"/>
    </contour>
    <contour>
      <point x="522" y="45" type="line"/>
      <point x="460" y="43" type="line"/>
      <point x="410" y="40" type="line" smooth="yes"/>
      <point x="377" y="38"/>
      <point x="383" y="10"/>
      <point x="382" y="0" type="curve"/>
      <point x="563" y="0" type="line" smooth="yes"/>
      <point x="591" y="0"/>
      <point x="587" y="29"/>
      <point x="586" y="39" type="curve"/>
    </contour>
    <contour>
      <point x="167" y="281" type="line"/>
      <point x="167" y="236" type="line"/>
      <point x="420" y="236" type="line"/>
      <point x="420" y="281" type="line"/>
    </contour>
    <contour>
      <point x="473" y="0" type="line"/>
      <point x="535" y="0" type="line"/>
      <point x="328" y="676" type="line"/>
      <point x="309" y="679"/>
      <point x="291" y="679"/>
      <point x="272" y="676" type="curve"/>
      <point x="72" y="22" type="line"/>
      <point x="120" y="20" type="line"/>
      <point x="305" y="650" type="line"/>
      <point x="281" y="650" type="line"/>
    </contour>
    <contour>
      <point x="442" y="835" type="line"/>
      <point x="431" y="857"/>
      <point x="407" y="878"/>
      <point x="384" y="879" type="curve"/>
      <point x="220" y="755" type="line"/>
      <point x="226" y="745"/>
      <point x="234" y="735"/>
      <point x="246" y="729" type="curve"/>
    </contour>
  </outline>
</glyph>
<glyph name="Ccedilla" format="1">
  <advance width="547"/>
  <unicode hex="00C7"/>
  <outline>
    <contour>
      <point x="326" y="690" type="curve" smooth="yes"/>
      <point x="143" y="690"/>
      <point x="34" y="527"/>
      <point x="40" y="310" type="curve" smooth="yes"/>
      <point x="45" y="116"/>
      <point x="139" y="-15"/>
      <point x="319" y="-15" type="curve" smooth="yes"/>
      <point x="445" y="-15"/>
      <point x="521" y="49"/>
      <point x="521" y="80" type="curve" smooth="yes"/>
      <point x="521" y="88"/>
      <point x="517" y="96"/>
      <point x="509" y="100" type="curve"/>
      <point x="480" y="75"/>
      <point x="425" y="39"/>
      <point x="330" y="39" type="curve" smooth="yes"/>
      <point x="161" y="39"/>
      <point x="103" y="168"/>
      <point x="103" y="332" type="curve" smooth="yes"/>
      <point x="103" y="514"/>
      <point x="174" y="644"/>
      <point x="319" y="644" type="curve" smooth="yes"/>
      <point x="404" y="644"/>
      <point x="461" y="598"/>
      <point x="461" y="512" type="curve"/>
      <point x="499" y="513"/>
      <point x="514" y="532"/>
      <point x="514" y="563" type="curve" smooth="yes"/>
      <point x="514" y="637"/>
      <point x="431" y="690"/>
    </contour>
    <contour>
      <point x="347" y="18" type="line"/>
      <point x="312" y="18" type="line"/>
      <point x="287" y="-77" type="line"/>
      <point x="348" y="-77"/>
      <point x="361" y="-92"/>
      <point x="361" y="-112" type="curve" smooth="yes"/>
      <point x="361" y="-136"/>
      <point x="343" y="-151"/>
      <point x="312" y="-151" type="curve" smooth="yes"/>
      <point x="289" y="-151"/>
      <point x="275" y="-143"/>
      <point x="261" y="-132" type="curve"/>
      <point x="255" y="-136"/>
      <point x="247" y="-146"/>
      <point x="249" y="-161" type="curve"/>
      <point x="263" y="-176"/>
      <point x="287" y="-189"/>
      <point x="322" y="-189" type="curve" smooth="yes"/>
      <point x="374" y="-189"/>
      <point x="413" y="-160"/>
      <point x="413" y="-110" type="curve" smooth="yes"/>
      <point x="413" y="-71"/>
      <point x="390" y="-41"/>
      <point x="333" y="-41" type="curve"/>
    </contour>
  </outline>
</glyph>
<glyph name="Eacute" format="1">
  <advance width="547"/>
  <unicode hex="00C9"/>
  <outline>
    <contour>
      <point x="178" y="630" type="line"/>
      <point x="440" y="625" type="line"/>
      <point x="450" y="513" type="line"/>
      <point x="460" y="512"/>
      <point x="489" y="508"/>
      <point x="489" y="536" type="curve" smooth="yes"/>
      <point x="489" y="675" type="line"/>
      <point x="71" y="675" type="line" smooth="yes"/>
      <point x="42" y="675"/>
      <point x="46" y="647"/>
      <point x="47" y="637" type="curve"/>
      <point x="120" y="630" type="line"/>
      <point x="120" y="43" type="line"/>
      <point x="70" y="40" type="line" smooth="yes"/>
      <point x="37" y="38"/>
      <point x="43" y="10"/>
      <point x="42" y="0" type="curve"/>
      <point x="501" y="0" type="line"/>
      <point x="501" y="129" type="line" smooth="yes"/>
      <point x="501" y="159"/>
      <point x="472" y="153"/>
      <point x="462" y="152" type="curve"/>
      <point x="452" y="51" type="line"/>
      <point x="178" y="45" type="line"/>
      <point x="178" y="315" type="line"/>
      <point x="374" y="304" type="line"/>
      <point x="378" y="326"/>
      <point x="378" y="350"/>
      <point x="374" y="369" type="curve"/>
      <point x="178" y="358" type="line"/>
    </contour>
    <contour>
      <point x="444" y="835" type="line"/>
      <point x="433" y="857"/>
      <point x="409" y="878"/>
      <point x="386" y="879" type="curve"/>
      <point x="222" y="755" type="line"/>
      <point x="228" y="745"/>
      <point x="236" y="735"/>
      <point x="248" y="729" type="curve"/>
    </contour>
  </outline>
</glyph>
<glyph name="Idieresis" format="1">
  <advance width="299"/>
  <unicode hex="00CF"/>
  <outline>
    <contour>
      <point x="178" y="645" type="line"/>
      <point x="120" y="645" type="line"/>
      <point x="120" y="0" type="line"/>
      <point x="178" y="0" type="line"/>
    </contour>
    <contour>
      <point x="178" y="45" type="line"/>
      <point x="120" y="43" type="line"/>
      <point x="70" y="40" type="line" smooth="yes"/>
      <point x="37" y="38"/>
      <point x="43" y="10"/>
      <point x="42" y="0" type="curve"/>
      <point x="229" y="0" type="line" smooth="yes"/>
      <point x="257" y="0"/>
      <point x="253" y="29"/>
      <point x="252" y="39" type="curve"/>
    </contour>
    <contour>
      <point x="121" y="630" type="line"/>
      <point x="179" y="632" type="line"/>
      <point x="229" y="635" type="line" smooth="yes"/>
      <point x="262" y="637"/>
      <point x="256" y="665"/>
      <point x="257" y="675" type="curve"/>
      <point x="70" y="675" type="line" smooth="yes"/>
      <point x="42" y="675"/>
      <point x="46" y="646"/>
      <point x="47" y="636" type="curve"/>
    </contour>
    <contour>
      <point x="76" y="750" type="curve" smooth="yes"/>
      <point x="102" y="750"/>
      <point x="122" y="771"/>
      <point x="122" y="797" type="curve" smooth="yes"/>
      <point x="122" y="822"/>
      <point x="102" y="844"/>
      <point x="76" y="844" type="curve" smooth="yes"/>
      <point x="49" y="844"/>
      <point x="28" y="822"/>
      <point x="28" y="797" type="curve" smooth="yes"/>
      <point x="28" y="771"/>
      <point x="49" y="750"/>
    </contour>
    <contour>
      <point x="232" y="750" type="curve" smooth="yes"/>
      <point x="260" y="750"/>
      <point x="280" y="771"/>
      <point x="280" y="797" type="curve" smooth="yes"/>
      <point x="280" y="822"/>
      <point x="260" y="844"/>
      <point x="232" y="844" type="curve" smooth="yes"/>
      <point x="207" y="844"/>
      <point x="186" y="822"/>
      <point x="186" y="797" type="curve" smooth="yes"/>
      <point x="186" y="771"/>
      <point x="207" y="750"/>
    </contour>
  </outline>
</glyph>
<glyph name="Ntilde" format="1">
  <advance width="682"/>
  <unicode hex="00D1"/>
  <outline>
    <contour>
      <point x="478" y="675" type="line"/>
      <point x="450" y="675"/>
      <point x="454" y="646"/>
      <point x="455" y="636" type="curve"/>
      <point x="529" y="630" type="line"/>
      <point x="529" y="89" type="line"/>
      <point x="543" y="93" type="line"/>
      <point x="169" y="675" type="line"/>
      <point x="70" y="675" type="line" smooth="yes"/>
      <point x="42" y="675"/>
      <point x="46" y="646"/>
      <point x="47" y="636" type="curve"/>
      <point x="121" y="630" type="line"/>
      <point x="121" y="43" type="line"/>
      <point x="70" y="40" type="line" smooth="yes"/>
      <point x="37" y="38"/>
      <point x="43" y="10"/>
      <point x="42" y="0" type="curve"/>
      <point x="221" y="0" type="line" smooth="yes"/>
      <point x="249" y="0"/>
      <point x="245" y="29"/>
      <point x="244" y="39" type="curve"/>
      <point x="170" y="45" type="line"/>
      <point x="170" y="583" type="line"/>
      <point x="159" y="579" type="line"/>
      <point x="532" y="0" type="line"/>
      <point x="549" y="0"/>
      <point x="560" y="3"/>
      <point x="577" y="11" type="curve"/>
      <point x="577" y="632" type="line"/>
      <point x="629" y="635" type="line" smooth="yes"/>
      <point x="662" y="637"/>
      <point x="656" y="665"/>
      <point x="657" y="675" type="curve"/>
    </contour>
    <contour>
      <point x="201" y="757" type="line"/>
      <point x="209" y="780"/>
      <point x="228" y="806"/>
      <point x="255" y="806" type="curve" smooth="yes"/>
      <point x="308" y="806"/>
      <point x="333" y="756"/>
      <point x="395" y="756" type="curve" smooth="yes"/>
      <point x="457" y="756"/>
      <point x="490" y="801"/>
      <point x="500" y="851" type="curve"/>
      <point x="470" y="860" type="line"/>
      <point x="463" y="831"/>
      <point x="441" y="808"/>
      <point x="408" y="808" type="curve" smooth="yes"/>
      <point x="355" y="808"/>
      <point x="332" y="860"/>
      <point x="273" y="860" type="curve" smooth="yes"/>
      <point x="231" y="860"/>
      <point x="186" y="831"/>
      <point x="171" y="768" type="curve"/>
    </contour>
  </outline>
</glyph>
<glyph name="Otilde" format="1">
  <advance width="629"/>
  <unicode hex="00D5"/>
  <outline>
    <contour>
      <point x="326" y="690" type="curve" smooth="yes"/>
      <point x="138" y="690"/>
      <point x="35" y="531"/>
      <point x="40" y="310" type="curve" smooth="yes"/>
      <point x="45" y="110"/>
      <point x="140" y="-15"/>
      <point x="298" y="-15" type="curve" smooth="yes"/>
      <point x="496" y="-15"/>
      <point x="592" y="143"/>
      <point x="589" y="358" type="curve" smooth="yes"/>
      <point x="585" y="642"/>
      <point x="424" y="690"/>
    </contour>
    <contour>
      <point x="315" y="644" type="curve" smooth="yes"/>
      <point x="471" y="645"/>
      <point x="531" y="507"/>
      <point x="531" y="335" type="curve" smooth="yes"/>
      <point x="531" y="162"/>
      <point x="465" y="32"/>
      <point x="314" y="31" type="curve" smooth="yes"/>
      <point x="158" y="30"/>
      <point x="99" y="168"/>
      <point x="99" y="333" type="curve" smooth="yes"/>
      <point x="99" y="513"/>
      <point x="165" y="643"/>
    </contour>
    <contour>
      <point x="195" y="757" type="line"/>
      <point x="203" y="780"/>
      <point x="222" y="806"/>
      <point x="249" y="806" type="curve" smooth="yes"/>
      <point x="302" y="806"/>
      <point x="327" y="756"/>
      <point x="389" y="756" type="curve" smooth="yes"/>
      <point x="451" y="756"/>
      <point x="484" y="801"/>
      <point x="494" y="851" type="curve"/>
      <point x="464" y="860" type="line"/>
      <point x="457" y="831"/>
      <point x="435" y="808"/>
      <point x="402" y="808" type="curve" smooth="yes"/>
      <point x="349" y="808"/>
      <point x="326" y="860"/>
      <point x="267" y="860" type="curve" smooth="yes"/>
      <point x="225" y="860"/>
      <point x="180" y="831"/>
      <point x="165" y="768" type="curve"/>
    </contour>
  </outline>
</glyph>
<glyph name="Odieresis" format="1">
  <advance width="629"/>
  <unicode hex="00D6"/>
  <outline>
    <contour>
      <point x="326" y="690" type="curve" smooth="yes"/>
      <point x="138" y="690"/>
      <point x="35" y="531"/>
      <point x="40" y="310" type="curve" smooth="yes"/>
      <point x="45" y="110"/>
      <point x="140" y="-15"/>
      <point x="298" y="-15" type="curve" smooth="yes"/>
      <point x="496" y="-15"/>
      <point x="592" y="143"/>
      <point x="589" y="358" type="curve" smooth="yes"/>
      <point x="585" y="642"/>
      <point x="424" y="690"/>
    </contour>
    <contour>
      <point x="315" y="644" type="curve" smooth="yes"/>
      <point x="471" y="645"/>
      <point x="531" y="507"/>
      <point x="531" y="335" type="curve" smooth="yes"/>
      <point x="531" y="162"/>
      <point x="465" y="32"/>
      <point x="314" y="31" type="curve" smooth="yes"/>
      <point x="158" y="30"/>
      <point x="99" y="168"/>
      <point x="99" y="333" type="curve" smooth="yes"/>
      <point x="99" y="513"/>
      <point x="165" y="643"/>
    </contour>
    <contour>
      <point x="252" y="750" type="curve" smooth="yes"/>
      <point x="278" y="750"/>
      <point x="298" y="771"/>
      <point x="298" y="797" type="curve" smooth="yes"/>
      <point x="298" y="822"/>
      <point x="278" y="844"/>
      <point x="252" y="844" type="curve" smooth="yes"/>
      <point x="225" y="844"/>
      <point x="204" y="822"/>
      <point x="204" y="797" type="curve" smooth="yes"/>
      <point x="204" y="771"/>
      <point x="225" y="750"/>
    </contour>
    <contour>
      <point x="408" y="750" type="curve" smooth="yes"/>
      <point x="436" y="750"/>
      <point x="456" y="771"/>
      <point x="456" y="797" type="curve" smooth="yes"/>
      <point x="456" y="822"/>
      <point x="436" y="844"/>
      <point x="408" y="844" type="curve" smooth="yes"/>
      <point x="383" y="844"/>
      <point x="362" y="822"/>
      <point x="362" y="797" type="curve" smooth="yes"/>
      <point x="362" y="771"/>
      <point x="383" y="750"/>
    </contour>
  </outline>
</glyph>
<glyph name="Thorn" format="1">
  <advance width="604"/>
  <unicode hex="00DE"/>
  <outline>
    <contour>
      <point x="158" y="546" type="line"/>
      <point x="162" y="505" type="line"/>
      <point x="229" y="505" type="line" smooth="yes"/>
      <point x="387" y="505"/>
      <point x="458" y="461"/>
      <point x="458" y="346" type="curve" smooth="yes"/>
      <point x="458" y="238"/>
      <point x="391" y="188"/>
      <point x="242" y="188" type="curve" smooth="yes"/>
      <point x="222" y="188"/>
      <point x="180" y="189"/>
      <point x="157" y="191" type="curve"/>
      <point x="157" y="149" type="line"/>
      <point x="181" y="147"/>
      <point x="227" y="146"/>
      <point x="250" y="146" type="curve" smooth="yes"/>
      <point x="403" y="146"/>
      <point x="525" y="196"/>
      <point x="525" y="359" type="curve" smooth="yes"/>
      <point x="525" y="460"/>
      <point x="453" y="546"/>
      <point x="274" y="546" type="curve" smooth="yes"/>
    </contour>
    <contour>
      <point x="178" y="45" type="line"/>
      <point x="120" y="43" type="line"/>
      <point x="70" y="40" type="line" smooth="yes"/>
      <point x="37" y="38"/>
      <point x="43" y="10"/>
      <point x="42" y="0" type="curve"/>
      <point x="229" y="0" type="line" smooth="yes"/>
      <point x="257" y="0"/>
      <point x="253" y="29"/>
      <point x="252" y="39" type="curve"/>
    </contour>
    <contour>
      <point x="120" y="647" type="line"/>
      <point x="120" y="0" type="line"/>
      <point x="178" y="0" type="line"/>
      <point x="178" y="647" type="line"/>
    </contour>
    <contour>
      <point x="70" y="677" type="line"/>
      <point x="42" y="677"/>
      <point x="46" y="648"/>
      <point x="47" y="638" type="curve"/>
      <point x="121" y="632" type="line"/>
      <point x="179" y="634" type="line"/>
      <point x="229" y="637" type="line" smooth="yes"/>
      <point x="262" y="639"/>
      <point x="256" y="667"/>
      <point x="257" y="677" type="curve"/>
    </contour>
  </outline>
</glyph>
<glyph name="ae" format="1">
  <advance width="767"/>
  <unicode hex="00E6"/>
  <outline>
    <contour>
      <point x="229" y="485" type="move" name="top"/>
    </contour>
    <contour>
      <point x="421" y="-10" type="move" name="ogonek"/>
    </contour>
    <contour>
      <point x="579" y="500" type="curve" smooth="yes"/>
      <point x="510" y="500"/>
      <point x="443" y="464"/>
      <point x="400" y="397" type="curve"/>
      <point x="373" y="494"/>
      <point x="250" y="500"/>
      <point x="231" y="500" type="curve" smooth="yes"/>
      <point x="141" y="501"/>
      <point x="79" y="457"/>
      <point x="79" y="401" type="curve" smooth="yes"/>
      <point x="79" y="364"/>
      <point x="105" y="355"/>
      <point x="125" y="357" type="curve"/>
      <point x="128" y="386"/>
      <point x="142" y="456"/>
      <point x="234" y="456" type="curve" smooth="yes"/>
      <point x="320" y="456"/>
      <point x="355" y="395"/>
      <point x="355" y="331" type="curve" smooth="yes"/>
      <point x="355" y="242" type="line"/>
      <point x="325" y="251"/>
      <point x="285" y="258"/>
      <point x="240" y="258" type="curve" smooth="yes"/>
      <point x="89" y="258"/>
      <point x="50" y="182"/>
      <point x="50" y="115" type="curve" smooth="yes"/>
      <point x="50" y="35"/>
      <point x="106" y="-15"/>
      <point x="200" y="-15" type="curve" smooth="yes"/>
      <point x="295" y="-15"/>
      <point x="360" y="36"/>
      <point x="390" y="73" type="curve"/>
      <point x="425" y="13"/>
      <point x="484" y="-15"/>
      <point x="553" y="-15" type="curve" smooth="yes"/>
      <point x="643" y="-15"/>
      <point x="725" y="34"/>
      <point x="725" y="67" type="curve" smooth="yes"/>
      <point x="725" y="74"/>
      <point x="722" y="82"/>
      <point x="715" y="87" type="curve"/>
      <point x="669" y="50"/>
      <point x="625" y="34"/>
      <point x="576" y="34" type="curve" smooth="yes"/>
      <point x="457" y="34"/>
      <point x="417" y="130"/>
      <point x="417" y="229" type="curve" smooth="yes"/>
      <point x="417" y="245"/>
      <point x="418" y="256"/>
      <point x="419" y="268" type="curve"/>
      <point x="736" y="268" type="line"/>
      <point x="736" y="314" type="line" smooth="yes"/>
      <point x="736" y="397"/>
      <point x="699" y="500"/>
    </contour>
    <contour>
      <point x="235" y="215" type="curve" smooth="yes"/>
      <point x="289" y="215"/>
      <point x="331" y="200"/>
      <point x="355" y="185" type="curve"/>
      <point x="355" y="94" type="line"/>
      <point x="320" y="60"/>
      <point x="274" y="33"/>
      <point x="215" y="33" type="curve" smooth="yes"/>
      <point x="155" y="33"/>
      <point x="114" y="65"/>
      <point x="114" y="128" type="curve"/>
      <point x="114" y="177"/>
      <point x="149" y="215"/>
    </contour>
    <contour>
      <point x="567" y="458" type="curve" smooth="yes"/>
      <point x="640" y="458"/>
      <point x="676" y="389"/>
      <point x="674" y="307" type="curve"/>
      <point x="425" y="307" type="line"/>
      <point x="444" y="397"/>
      <point x="498" y="458"/>
    </contour>
  </outline>
</glyph>
<glyph name="icircumflex" format="1">
  <advance width="283"/>
  <unicode hex="00EE"/>
  <outline>
    <contour>
      <point x="180" y="500" type="line"/>
      <point x="49" y="485" type="line"/>
      <point x="49" y="472"/>
      <point x="48" y="450"/>
      <point x="69" y="448" type="curve" smooth="yes"/>
      <point x="125" y="443" type="line"/>
      <point x="125" y="0" type="line"/>
      <point x="180" y="0" type="line"/>
    </contour>
    <contour>
      <point x="176" y="41" type="line"/>
      <point x="125" y="39" type="line"/>
      <point x="80" y="36" type="line" smooth="yes"/>
      <point x="47" y="34"/>
      <point x="53" y="10"/>
      <point x="52" y="0" type="curve"/>
      <point x="234" y="0" type="line" smooth="yes"/>
      <point x="262" y="0"/>
      <point x="258" y="25"/>
      <point x="257" y="35" type="curve"/>
    </contour>
    <contour>
      <point x="167" y="674" type="line"/>
      <point x="152" y="678"/>
      <point x="128" y="679"/>
      <point x="109" y="674" type="curve"/>
      <point x="-21" y="555" type="line"/>
      <point x="-15" y="545"/>
      <point x="-7" y="535"/>
      <point x="5" y="529" type="curve"/>
      <point x="161" y="633" type="line"/>
      <point x="115" y="633" type="line"/>
      <point x="271" y="529" type="line"/>
      <point x="283" y="535"/>
      <point x="291" y="545"/>
      <point x="297" y="555" type="curve"/>
    </contour>
  </outline>
</glyph>
<glyph name="ucircumflex" format="1">
  <advance width="564"/>
  <unicode hex="00FB"/>
  <outline>
    <contour>
      <point x="467" y="54" type="line"/>
      <point x="467" y="485" type="line"/>
      <point x="358" y="485" type="line" smooth="yes"/>
      <point x="330" y="485"/>
      <point x="334" y="460"/>
      <point x="335" y="450" type="curve"/>
      <point x="412" y="444" type="line"/>
      <point x="412" y="97" type="line"/>
      <point x="372" y="62"/>
      <point x="333" y="37"/>
      <point x="273" y="37" type="curve" smooth="yes"/>
      <point x="196" y="37"/>
      <point x="149" y="91"/>
      <point x="149" y="195" type="curve" smooth="yes"/>
      <point x="149" y="485" type="line"/>
      <point x="41" y="485" type="line" smooth="yes"/>
      <point x="13" y="485"/>
      <point x="17" y="460"/>
      <point x="18" y="450" type="curve"/>
      <point x="94" y="444" type="line"/>
      <point x="94" y="186" type="line" smooth="yes"/>
      <point x="94" y="33"/>
      <point x="186" y="-15"/>
      <point x="262" y="-15" type="curve" smooth="yes"/>
      <point x="338" y="-15"/>
      <point x="384" y="19"/>
      <point x="417" y="53" type="curve"/>
      <point x="428" y="1" type="line"/>
      <point x="543" y="10" type="line"/>
      <point x="543" y="23"/>
      <point x="544" y="46"/>
      <point x="523" y="48" type="curve" smooth="yes"/>
    </contour>
    <contour>
      <point x="312" y="674" type="line"/>
      <point x="297" y="678"/>
      <point x="273" y="679"/>
      <point x="254" y="674" type="curve"/>
      <point x="124" y="555" type="line"/>
      <point x="130" y="545"/>
      <point x="138" y="535"/>
      <point x="150" y="529" type="curve"/>
      <point x="306" y="633" type="line"/>
      <point x="260" y="633" type="line"/>
      <point x="416" y="529" type="line"/>
      <point x="428" y="535"/>
      <point x="436" y="545"/>
      <point x="442" y="555" type="curve"/>
    </contour>
  </outline>
</glyph>
<glyph name="Ccaron" format="1">
  <advance width="547"/>
  <unicode hex="010C"/>
  <outline>
    <contour>
      <point x="326" y="690" type="curve" smooth="yes"/>
      <point x="143" y="690"/>
      <point x="34" y="527"/>
      <point x="40" y="310" type="curve" smooth="yes"/>
      <point x="45" y="116"/>
      <point x="139" y="-15"/>
      <point x="319" y="-15" type="curve" smooth="yes"/>
      <point x="445" y="-15"/>
      <point x="521" y="49"/>
      <point x="521" y="80" type="curve" smooth="yes"/>
      <point x="521" y="88"/>
      <point x="517" y="96"/>
      <point x="509" y="100" type="curve"/>
      <point x="480" y="75"/>
      <point x="425" y="39"/>
      <point x="330" y="39" type="curve" smooth="yes"/>
      <point x="161" y="39"/>
      <point x="103" y="168"/>
      <point x="103" y="332" type="curve" smooth="yes"/>
      <point x="103" y="514"/>
      <point x="174" y="644"/>
      <point x="319" y="644" type="curve" smooth="yes"/>
      <point x="404" y="644"/>
      <point x="461" y="598"/>
      <point x="461" y="512" type="curve"/>
      <point x="499" y="513"/>
      <point x="514" y="532"/>
      <point x="514" y="563" type="curve" smooth="yes"/>
      <point x="514" y="637"/>
      <point x="431" y="690"/>
    </contour>
    <contour>
      <point x="353" y="734" type="line"/>
      <point x="338" y="730"/>
      <point x="314" y="729"/>
      <point x="295" y="734" type="curve"/>
      <point x="165" y="853" type="line"/>
      <point x="171" y="863"/>
      <point x="179" y="873"/>
      <point x="191" y="879" type="curve"/>
      <point x="347" y="775" type="line"/>
      <point x="301" y="775" type="line"/>
      <point x="457" y="879" type="line"/>
      <point x="469" y="873"/>
      <point x="477" y="863"/>
      <point x="483" y="853" type="curve"/>
    </contour>
  </outline>
</glyph>
<glyph name="Dcaron" format="1">
  <advance width="652"/>
  <unicode hex="010E"/>
  <outline>
    <contour>
      <point x="178" y="647" type="line"/>
      <point x="120" y="647" type="line"/>
      <point x="120" y="0" type="line"/>
      <point x="178" y="0" type="line"/>
    </contour>
    <contour>
      <point x="178" y="42" type="line"/>
      <point x="120" y="43" type="line"/>
      <point x="70" y="40" type="line" smooth="yes"/>
      <point x="37" y="38"/>
      <point x="43" y="10"/>
      <point x="42" y="0" type="curve"/>
      <point x="273" y="0" type="line" smooth="yes"/>
      <point x="498" y="0"/>
      <point x="612" y="119"/>
      <point x="612" y="346" type="curve" smooth="yes"/>
      <point x="612" y="564"/>
      <point x="518" y="677"/>
      <point x="273" y="677" type="curve" smooth="yes"/>
      <point x="70" y="677" type="line" smooth="yes"/>
      <point x="42" y="677"/>
      <point x="46" y="648"/>
      <point x="47" y="638" type="curve"/>
      <point x="121" y="632" type="line"/>
      <point x="179" y="634" type="line"/>
      <point x="229" y="636" type="line" smooth="yes"/>
      <point x="438" y="644"/>
      <point x="550" y="558"/>
      <point x="550" y="338" type="curve" smooth="yes"/>
      <point x="550" y="134"/>
      <point x="438" y="42"/>
      <point x="252" y="42" type="curve" smooth="yes"/>
    </contour>
    <contour>
      <point x="302" y="736" type="line"/>
      <point x="287" y="732"/>
      <point x="263" y="731"/>
      <point x="244" y="736" type="curve"/>
      <point x="114" y="855" type="line"/>
      <point x="120" y="865"/>
      <point x="128" y="875"/>
      <point x="140" y="881" type="curve"/>
      <point x="296" y="777" type="line"/>
      <point x="250" y="777" type="line"/>
      <point x="406" y="881" type="line"/>
      <point x="418" y="875"/>
      <point x="426" y="865"/>
      <point x="432" y="855" type="curve"/>
    </contour>
  </outline>
</glyph>
<glyph name="dcaron" format="1">
  <advance width="578"/>
  <unicode hex="010F"/>
  <outline>
    <contour>
      <point x="502" y="715" type="curve"/>
      <point x="515" y="673"/>
      <point x="510" y="595"/>
      <point x="491" y="548" type="curve"/>
      <point x="491" y="541"/>
      <point x="510" y="530"/>
      <point x="517" y="534" type="curve"/>
      <point x="556" y="579"/>
      <point x="571" y="645"/>
      <point x="568" y="713" type="curve"/>
      <point x="558" y="729"/>
      <point x="521" y="728"/>
    </contour>
    <component base="d"/>
  </outline>
</glyph>
<glyph name="Edotaccent" format="1">
  <advance width="547"/>
  <unicode hex="0116"/>
  <outline>
    <contour>
      <point x="178" y="630" type="line"/>
      <point x="440" y="625" type="line"/>
      <point x="450" y="513" type="line"/>
      <point x="460" y="512"/>
      <point x="489" y="508"/>
      <point x="489" y="536" type="curve" smooth="yes"/>
      <point x="489" y="675" type="line"/>
      <point x="71" y="675" type="line" smooth="yes"/>
      <point x="42" y="675"/>
      <point x="46" y="647"/>
      <point x="47" y="637" type="curve"/>
      <point x="120" y="630" type="line"/>
      <point x="120" y="43" type="line"/>
      <point x="70" y="40" type="line" smooth="yes"/>
      <point x="37" y="38"/>
      <point x="43" y="10"/>
      <point x="42" y="0" type="curve"/>
      <point x="501" y="0" type="line"/>
      <point x="501" y="129" type="line" smooth="yes"/>
      <point x="501" y="159"/>
      <point x="472" y="153"/>
      <point x="462" y="152" type="curve"/>
      <point x="452" y="51" type="line"/>
      <point x="178" y="45" type="line"/>
      <point x="178" y="315" type="line"/>
      <point x="374" y="304" type="line"/>
      <point x="378" y="326"/>
      <point x="378" y="350"/>
      <point x="374" y="369" type="curve"/>
      <point x="178" y="358" type="line"/>
    </contour>
    <contour>
      <point x="299" y="797" type="curve" smooth="yes"/>
      <point x="325" y="797"/>
      <point x="342" y="814"/>
      <point x="342" y="840" type="curve" smooth="yes"/>
      <point x="342" y="866"/>
      <point x="325" y="883"/>
      <point x="299" y="883" type="curve" smooth="yes"/>
      <point x="273" y="883"/>
      <point x="256" y="866"/>
      <point x="256" y="840" type="curve" smooth="yes"/>
      <point x="256" y="814"/>
      <point x="273" y="797"/>
    </contour>
  </outline>
</glyph>
<glyph name="Eogonek" format="1">
  <advance width="547"/>
  <unicode hex="0118"/>
  <outline>
    <contour>
      <point x="178" y="630" type="line"/>
      <point x="440" y="625" type="line"/>
      <point x="450" y="513" type="line"/>
      <point x="460" y="512"/>
      <point x="489" y="508"/>
      <point x="489" y="536" type="curve" smooth="yes"/>
      <point x="489" y="675" type="line"/>
      <point x="71" y="675" type="line" smooth="yes"/>
      <point x="42" y="675"/>
      <point x="46" y="647"/>
      <point x="47" y="637" type="curve"/>
      <point x="120" y="630" type="line"/>
      <point x="120" y="43" type="line"/>
      <point x="70" y="40" type="line" smooth="yes"/>
      <point x="37" y="38"/>
      <point x="43" y="10"/>
      <point x="42" y="0" type="curve"/>
      <point x="501" y="0" type="line"/>
      <point x="501" y="129" type="line" smooth="yes"/>
      <point x="501" y="159"/>
      <point x="472" y="153"/>
      <point x="462" y="152" type="curve"/>
      <point x="452" y="51" type="line"/>
      <point x="178" y="45" type="line"/>
      <point x="178" y="315" type="line"/>
      <point x="374" y="304" type="line"/>
      <point x="378" y="326"/>
      <point x="378" y="350"/>
      <point x="374" y="369" type="curve"/>
      <point x="178" y="358" type="line"/>
    </contour>
    <contour>
      <point x="549" y="39" type="line"/>
      <point x="491" y="22"/>
      <point x="434" y="-17"/>
      <point x="434" y="-77" type="curve" smooth="yes"/>
      <point x="434" y="-128"/>
      <point x="475" y="-154"/>
      <point x="522" y="-154" type="curve" smooth="yes"/>
      <point x="558" y="-154"/>
      <point x="592" y="-139"/>
      <point x="606" y="-119" type="curve"/>
      <point x="608" y="-111"/>
      <point x="605" y="-94"/>
      <point x="599" y="-90" type="curve"/>
      <point x="587" y="-99"/>
      <point x="572" y="-113"/>
      <point x="541" y="-113" type="curve" smooth="yes"/>
      <point x="509" y="-113"/>
      <point x="488" y="-98"/>
      <point x="488" y="-66" type="curve" smooth="yes"/>
      <point x="488" y="-29"/>
      <point x="517" y="-3"/>
      <point x="568" y="15" type="curve"/>
    </contour>
  </outline>
</glyph>
<glyph name="eogonek" format="1">
  <advance width="452"/>
  <unicode hex="0119"/>
  <outline>
    <contour>
      <point x="264" y="500" type="curve" smooth="yes"/>
      <point x="150" y="500"/>
      <point x="40" y="407"/>
      <point x="40" y="223" type="curve" smooth="yes"/>
      <point x="40" y="61"/>
      <point x="126" y="-15"/>
      <point x="238" y="-15" type="curve" smooth="yes"/>
      <point x="328" y="-15"/>
      <point x="410" y="34"/>
      <point x="410" y="67" type="curve" smooth="yes"/>
      <point x="410" y="74"/>
      <point x="407" y="82"/>
      <point x="400" y="87" type="curve"/>
      <point x="355" y="51"/>
      <point x="312" y="34"/>
      <point x="261" y="34" type="curve" smooth="yes"/>
      <point x="142" y="34"/>
      <point x="102" y="130"/>
      <point x="102" y="232" type="curve" smooth="yes"/>
      <point x="102" y="361"/>
      <point x="165" y="458"/>
      <point x="252" y="458" type="curve" smooth="yes"/>
      <point x="331" y="458"/>
      <point x="366" y="377"/>
      <point x="358" y="287" type="curve"/>
      <point x="385" y="307" type="line"/>
      <point x="74" y="307" type="line"/>
      <point x="77" y="268" type="line"/>
      <point x="421" y="268" type="line"/>
      <point x="421" y="314" type="line" smooth="yes"/>
      <point x="421" y="397"/>
      <point x="384" y="500"/>
    </contour>
    <contour>
      <point x="370" y="54" type="line"/>
      <point x="312" y="37"/>
      <point x="255" y="-2"/>
      <point x="255" y="-62" type="curve" smooth="yes"/>
      <point x="255" y="-113"/>
      <point x="296" y="-139"/>
      <point x="343" y="-139" type="curve" smooth="yes"/>
      <point x="379" y="-139"/>
      <point x="413" y="-124"/>
      <point x="427" y="-104" type="curve"/>
      <point x="429" y="-96"/>
      <point x="426" y="-79"/>
      <point x="420" y="-75" type="curve"/>
      <point x="408" y="-84"/>
      <point x="393" y="-98"/>
      <point x="362" y="-98" type="curve" smooth="yes"/>
      <point x="330" y="-98"/>
      <point x="309" y="-83"/>
      <point x="309" y="-51" type="curve" smooth="yes"/>
      <point x="309" y="-14"/>
      <point x="338" y="12"/>
      <point x="389" y="30" type="curve"/>
    </contour>
  </outline>
</glyph>
<glyph name="ecaron" format="1">
  <advance width="452"/>
  <unicode hex="011B"/>
  <outline>
    <contour>
      <point x="264" y="500" type="curve" smooth="yes"/>
      <point x="150" y="500"/>
      <point x="40" y="407"/>
      <point x="40" y="223" type="curve" smooth="yes"/>
      <point x="40" y="61"/>
      <point x="126" y="-15"/>
      <point x="238" y="-15" type="curve" smooth="yes"/>
      <point x="328" y="-15"/>
      <point x="410" y="34"/>
      <point x="410" y="67" type="curve" smooth="yes"/>
      <point x="410" y="74"/>
      <point x="407" y="82"/>
      <point x="400" y="87" type="curve"/>
      <point x="355" y="51"/>
      <point x="312" y="34"/>
      <point x="261" y="34" type="curve" smooth="yes"/>
      <point x="142" y="34"/>
      <point x="102" y="130"/>
      <point x="102" y="232" type="curve" smooth="yes"/>
      <point x="102" y="361"/>
      <point x="165" y="458"/>
      <point x="252" y="458" type="curve" smooth="yes"/>
      <point x="331" y="458"/>
      <point x="366" y="377"/>
      <point x="358" y="287" type="curve"/>
      <point x="385" y="307" type="line"/>
      <point x="74" y="307" type="line"/>
      <point x="77" y="268" type="line"/>
      <point x="421" y="268" type="line"/>
      <point x="421" y="314" type="line" smooth="yes"/>
      <point x="421" y="397"/>
      <point x="384" y="500"/>
    </contour>
    <contour>
      <point x="286" y="544" type="line"/>
      <point x="271" y="540"/>
      <point x="247" y="539"/>
      <point x="228" y="544" type="curve"/>
      <point x="98" y="663" type="line"/>
      <point x="104" y="673"/>
      <point x="112" y="683"/>
      <point x="124" y="689" type="curve"/>
      <point x="280" y="585" type="line"/>
      <point x="234" y="585" type="line"/>
      <point x="390" y="689" type="line"/>
      <point x="402" y="683"/>
      <point x="410" y="673"/>
      <point x="416" y="663" type="curve"/>
    </contour>
  </outline>
</glyph>
<glyph name="Iogonek" format="1">
  <advance width="299"/>
  <unicode hex="012E"/>
  <outline>
    <contour>
      <point x="178" y="645" type="line"/>
      <point x="120" y="645" type="line"/>
      <point x="120" y="0" type="line"/>
      <point x="178" y="0" type="line"/>
    </contour>
    <contour>
      <point x="178" y="45" type="line"/>
      <point x="120" y="43" type="line"/>
      <point x="70" y="40" type="line" smooth="yes"/>
      <point x="37" y="38"/>
      <point x="43" y="10"/>
      <point x="42" y="0" type="curve"/>
      <point x="229" y="0" type="line" smooth="yes"/>
      <point x="257" y="0"/>
      <point x="253" y="29"/>
      <point x="252" y="39" type="curve"/>
    </contour>
    <contour>
      <point x="121" y="630" type="line"/>
      <point x="179" y="632" type="line"/>
      <point x="229" y="635" type="line" smooth="yes"/>
      <point x="262" y="637"/>
      <point x="256" y="665"/>
      <point x="257" y="675" type="curve"/>
      <point x="70" y="675" type="line" smooth="yes"/>
      <point x="42" y="675"/>
      <point x="46" y="646"/>
      <point x="47" y="636" type="curve"/>
    </contour>
    <contour>
      <point x="291" y="39" type="line"/>
      <point x="233" y="22"/>
      <point x="176" y="-17"/>
      <point x="176" y="-77" type="curve" smooth="yes"/>
      <point x="176" y="-128"/>
      <point x="217" y="-154"/>
      <point x="264" y="-154" type="curve" smooth="yes"/>
      <point x="300" y="-154"/>
      <point x="334" y="-139"/>
      <point x="348" y="-119" type="curve"/>
      <point x="350" y="-111"/>
      <point x="347" y="-94"/>
      <point x="341" y="-90" type="curve"/>
      <point x="329" y="-99"/>
      <point x="314" y="-113"/>
      <point x="283" y="-113" type="curve" smooth="yes"/>
      <point x="251" y="-113"/>
      <point x="230" y="-98"/>
      <point x="230" y="-66" type="curve" smooth="yes"/>
      <point x="230" y="-29"/>
      <point x="259" y="-3"/>
      <point x="310" y="15" type="curve"/>
    </contour>
  </outline>
</glyph>
<glyph name="iogonek" format="1">
  <advance width="283"/>
  <unicode hex="012F"/>
  <outline>
    <contour>
      <point x="180" y="500" type="line"/>
      <point x="49" y="485" type="line"/>
      <point x="49" y="472"/>
      <point x="48" y="450"/>
      <point x="69" y="448" type="curve" smooth="yes"/>
      <point x="125" y="443" type="line"/>
      <point x="125" y="0" type="line"/>
      <point x="180" y="0" type="line"/>
    </contour>
    <contour>
      <point x="176" y="41" type="line"/>
      <point x="125" y="39" type="line"/>
      <point x="80" y="36" type="line" smooth="yes"/>
      <point x="47" y="34"/>
      <point x="53" y="10"/>
      <point x="52" y="0" type="curve"/>
      <point x="234" y="0" type="line" smooth="yes"/>
      <point x="262" y="0"/>
      <point x="258" y="25"/>
      <point x="257" y="35" type="curve"/>
    </contour>
    <contour>
      <point x="136" y="607" type="curve" smooth="yes"/>
      <point x="162" y="607"/>
      <point x="179" y="624"/>
      <point x="179" y="650" type="curve" smooth="yes"/>
      <point x="179" y="676"/>
      <point x="162" y="693"/>
      <point x="136" y="693" type="curve" smooth="yes"/>
      <point x="110" y="693"/>
      <point x="93" y="676"/>
      <point x="93" y="650" type="curve" smooth="yes"/>
      <point x="93" y="624"/>
      <point x="110" y="607"/>
    </contour>
    <contour>
      <point x="229" y="29" type="line"/>
      <point x="171" y="12"/>
      <point x="114" y="-27"/>
      <point x="114" y="-87" type="curve" smooth="yes"/>
      <point x="114" y="-138"/>
      <point x="155" y="-164"/>
      <point x="202" y="-164" type="curve" smooth="yes"/>
      <point x="238" y="-164"/>
      <point x="272" y="-149"/>
      <point x="286" y="-129" type="curve"/>
      <point x="288" y="-121"/>
      <point x="285" y="-104"/>
      <point x="279" y="-100" type="curve"/>
      <point x="267" y="-109"/>
      <point x="252" y="-123"/>
      <point x="221" y="-123" type="curve" smooth="yes"/>
      <point x="189" y="-123"/>
      <point x="168" y="-108"/>
      <point x="168" y="-76" type="curve" smooth="yes"/>
      <point x="168" y="-39"/>
      <point x="197" y="-13"/>
      <point x="248" y="5" type="curve"/>
    </contour>
  </outline>
</glyph>
<glyph name="Lcaron" format="1">
  <advance width="600"/>
  <unicode hex="013D"/>
  <outline>
    <contour>
      <point x="326" y="740" type="curve"/>
      <point x="339" y="698"/>
      <point x="336" y="613"/>
      <point x="317" y="566" type="curve"/>
      <point x="317" y="559"/>
      <point x="341" y="546"/>
      <point x="348" y="550" type="curve"/>
      <point x="387" y="595"/>
      <point x="406" y="661"/>
      <point x="403" y="729" type="curve"/>
      <point x="393" y="748"/>
      <point x="345" y="754"/>
    </contour>
    <component base="L"/>
  </outline>
</glyph>
<glyph name="lcaron" format="1">
  <advance width="322"/>
  <unicode hex="013E"/>
  <outline>
    <contour>
      <point x="237" y="715" type="curve"/>
      <point x="250" y="673"/>
      <point x="245" y="595"/>
      <point x="226" y="548" type="curve"/>
      <point x="226" y="541"/>
      <point x="245" y="530"/>
      <point x="252" y="534" type="curve"/>
      <point x="291" y="579"/>
      <point x="306" y="645"/>
      <point x="303" y="713" type="curve"/>
      <point x="293" y="729"/>
      <point x="256" y="728"/>
    </contour>
    <component base="l"/>
  </outline>
</glyph>
<glyph name="oe" format="1">
  <advance width="807"/>
  <unicode hex="0153"/>
  <outline>
    <contour>
      <point x="248" y="485" type="move" name="top"/>
    </contour>
    <contour>
      <point x="619" y="500" type="curve" smooth="yes"/>
      <point x="546" y="500"/>
      <point x="475" y="459"/>
      <point x="433" y="383" type="curve"/>
      <point x="393" y="478"/>
      <point x="310" y="500"/>
      <point x="255" y="500" type="curve" smooth="yes"/>
      <point x="119" y="500"/>
      <point x="37" y="389"/>
      <point x="40" y="225" type="curve" smooth="yes"/>
      <point x="43" y="70"/>
      <point x="116" y="-15"/>
      <point x="239" y="-15" type="curve" smooth="yes"/>
      <point x="324" y="-15"/>
      <point x="385" y="29"/>
      <point x="420" y="95" type="curve"/>
      <point x="453" y="23"/>
      <point x="517" y="-15"/>
      <point x="593" y="-15" type="curve" smooth="yes"/>
      <point x="683" y="-15"/>
      <point x="765" y="34"/>
      <point x="765" y="67" type="curve" smooth="yes"/>
      <point x="765" y="74"/>
      <point x="762" y="82"/>
      <point x="755" y="87" type="curve"/>
      <point x="710" y="51"/>
      <point x="667" y="34"/>
      <point x="616" y="34" type="curve" smooth="yes"/>
      <point x="497" y="34"/>
      <point x="457" y="130"/>
      <point x="457" y="232" type="curve" smooth="yes"/>
      <point x="457" y="244"/>
      <point x="458" y="256"/>
      <point x="459" y="268" type="curve"/>
      <point x="776" y="268" type="line"/>
      <point x="776" y="314" type="line" smooth="yes"/>
      <point x="776" y="397"/>
      <point x="739" y="500"/>
    </contour>
    <contour>
      <point x="248" y="458" type="curve" smooth="yes"/>
      <point x="350" y="459"/>
      <point x="395" y="356"/>
      <point x="395" y="244" type="curve" smooth="yes"/>
      <point x="395" y="123"/>
      <point x="344" y="27"/>
      <point x="247" y="26" type="curve" smooth="yes"/>
      <point x="145" y="25"/>
      <point x="100" y="128"/>
      <point x="100" y="242" type="curve" smooth="yes"/>
      <point x="100" y="361"/>
      <point x="151" y="457"/>
    </contour>
    <contour>
      <point x="607" y="458" type="curve" smooth="yes"/>
      <point x="680" y="458"/>
      <point x="716" y="389"/>
      <point x="714" y="307" type="curve"/>
      <point x="465" y="307" type="line"/>
      <point x="484" y="397"/>
      <point x="538" y="458"/>
    </contour>
  </outline>
</glyph>
<glyph name="Rcaron" format="1">
  <advance width="563"/>
  <unicode hex="0158"/>
  <outline>
    <contour>
      <point x="70" y="677" type="line"/>
      <point x="41" y="677"/>
      <point x="47" y="652"/>
      <point x="47" y="638" type="curve"/>
      <point x="121" y="632" type="line"/>
      <point x="180" y="634" type="line"/>
      <point x="241" y="637" type="line" smooth="yes"/>
      <point x="338" y="642"/>
      <point x="436" y="635"/>
      <point x="436" y="500" type="curve" smooth="yes"/>
      <point x="436" y="413"/>
      <point x="371" y="359"/>
      <point x="247" y="359" type="curve" smooth="yes"/>
      <point x="224" y="359"/>
      <point x="189" y="361"/>
      <point x="162" y="363" type="curve"/>
      <point x="159" y="322" type="line"/>
      <point x="188" y="319"/>
      <point x="226" y="317"/>
      <point x="254" y="317" type="curve" smooth="yes"/>
      <point x="376" y="317"/>
      <point x="497" y="376"/>
      <point x="497" y="514" type="curve" smooth="yes"/>
      <point x="497" y="600"/>
      <point x="453" y="677"/>
      <point x="286" y="677" type="curve" smooth="yes"/>
    </contour>
    <contour>
      <point x="179" y="45" type="line"/>
      <point x="120" y="43" type="line"/>
      <point x="70" y="40" type="line" smooth="yes"/>
      <point x="37" y="38"/>
      <point x="42" y="10"/>
      <point x="42" y="0" type="curve"/>
      <point x="230" y="0" type="line" smooth="yes"/>
      <point x="255" y="0"/>
      <point x="253" y="26"/>
      <point x="253" y="39" type="curve"/>
    </contour>
    <contour>
      <point x="179" y="647" type="line"/>
      <point x="120" y="647" type="line"/>
      <point x="120" y="0" type="line"/>
      <point x="179" y="0" type="line"/>
    </contour>
    <contour>
      <point x="252" y="332" type="line"/>
      <point x="301" y="186"/>
      <point x="423" y="-15"/>
      <point x="509" y="-15" type="curve" smooth="yes"/>
      <point x="532" y="-15"/>
      <point x="549" y="5"/>
      <point x="549" y="37" type="curve"/>
      <point x="491" y="37"/>
      <point x="390" y="139"/>
      <point x="301" y="332" type="curve"/>
    </contour>
    <contour>
      <point x="291" y="734" type="line"/>
      <point x="276" y="730"/>
      <point x="252" y="729"/>
      <point x="233" y="734" type="curve"/>
      <point x="103" y="853" type="line"/>
      <point x="109" y="863"/>
      <point x="117" y="873"/>
      <point x="129" y="879" type="curve"/>
      <point x="285" y="775" type="line"/>
      <point x="239" y="775" type="line"/>
      <point x="395" y="879" type="line"/>
      <point x="407" y="873"/>
      <point x="415" y="863"/>
      <point x="421" y="853" type="curve"/>
    </contour>
  </outline>
</glyph>
<glyph name="tcaron" format="1">
  <advance width="365"/>
  <unicode hex="0165"/>
  <outline>
    <contour>
      <point x="208" y="702" type="curve"/>
      <point x="221" y="660"/>
      <point x="216" y="582"/>
      <point x="197" y="535" type="curve"/>
      <point x="197" y="528"/>
      <point x="216" y="517"/>
      <point x="223" y="521" type="curve"/>
      <point x="262" y="566"/>
      <point x="277" y="632"/>
      <point x="274" y="700" type="curve"/>
      <point x="264" y="716"/>
      <point x="227" y="715"/>
    </contour>
    <component base="t"/>
  </outline>
</glyph>
<glyph name="Uring" format="1">
  <advance width="640"/>
  <unicode hex="016E"/>
  <outline>
    <contour>
      <point x="442" y="675" type="line"/>
      <point x="414" y="675"/>
      <point x="418" y="646"/>
      <point x="419" y="636" type="curve"/>
      <point x="492" y="630" type="line"/>
      <point x="492" y="236" type="line" smooth="yes"/>
      <point x="492" y="94"/>
      <point x="424" y="30"/>
      <point x="314" y="30" type="curve" smooth="yes"/>
      <point x="222" y="30"/>
      <point x="156" y="86"/>
      <point x="156" y="237" type="curve" smooth="yes"/>
      <point x="157" y="632" type="line"/>
      <point x="207" y="635" type="line" smooth="yes"/>
      <point x="240" y="637"/>
      <point x="234" y="665"/>
      <point x="235" y="675" type="curve"/>
      <point x="49" y="675" type="line" smooth="yes"/>
      <point x="21" y="675"/>
      <point x="25" y="646"/>
      <point x="26" y="636" type="curve"/>
      <point x="99" y="630" type="line"/>
      <point x="99" y="228" type="line" smooth="yes"/>
      <point x="99" y="95"/>
      <point x="145" y="-15"/>
      <point x="307" y="-15" type="curve" smooth="yes"/>
      <point x="475" y="-15"/>
      <point x="539" y="95"/>
      <point x="539" y="244" type="curve" smooth="yes"/>
      <point x="539" y="632" type="line"/>
      <point x="587" y="635" type="line" smooth="yes"/>
      <point x="620" y="637"/>
      <point x="614" y="665"/>
      <point x="615" y="675" type="curve"/>
    </contour>
    <contour>
      <point x="326" y="904" type="curve" smooth="yes"/>
      <point x="271" y="904"/>
      <point x="234" y="869"/>
      <point x="234" y="816" type="curve" smooth="yes"/>
      <point x="234" y="766"/>
      <point x="269" y="732"/>
      <point x="322" y="732" type="curve" smooth="yes"/>
      <point x="376" y="732"/>
      <point x="413" y="767"/>
      <point x="414" y="820" type="curve" smooth="yes"/>
      <point x="414" y="870"/>
      <point x="380" y="904"/>
    </contour>
    <contour>
      <point x="324" y="864" type="curve" smooth="yes"/>
      <point x="352" y="864"/>
      <point x="370" y="846"/>
      <point x="370" y="818" type="curve" smooth="yes"/>
      <point x="370" y="790"/>
      <point x="352" y="772"/>
      <point x="324" y="772" type="curve" smooth="yes"/>
      <point x="296" y="772"/>
      <point x="278" y="790"/>
      <point x="278" y="818" type="curve" smooth="yes"/>
      <point x="278" y="846"/>
      <point x="296" y="864"/>
    </contour>
  </outline>
</glyph>
<glyph name="uring" format="1">
  <advance width="564"/>
  <unicode hex="016F"/>
  <outline>
    <contour>
      <point x="467" y="54" type="line"/>
      <point x="467" y="485" type="line"/>
      <point x="358" y="485" type="line" smooth="yes"/>
      <point x="330" y="485"/>
      <point x="334" y="460"/>
      <point x="335" y="450" type="curve"/>
      <point x="412" y="444" type="line"/>
      <point x="412" y="97" type="line"/>
      <point x="372" y="62"/>
      <point x="333" y="37"/>
      <point x="273" y="37" type="curve" smooth="yes"/>
      <point x="196" y="37"/>
      <point x="149" y="91"/>
      <point x="149" y="195" type="curve" smooth="yes"/>
      <point x="149" y="485" type="line"/>
      <point x="41" y="485" type="line" smooth="yes"/>
      <point x="13" y="485"/>
      <point x="17" y="460"/>
      <point x="18" y="450" type="curve"/>
      <point x="94" y="444" type="line"/>
      <point x="94" y="186" type="line" smooth="yes"/>
      <point x="94" y="33"/>
      <point x="186" y="-15"/>
      <point x="262" y="-15" type="curve" smooth="yes"/>
      <point x="338" y="-15"/>
      <point x="384" y="19"/>
      <point x="417" y="53" type="curve"/>
      <point x="428" y="1" type="line"/>
      <point x="543" y="10" type="line"/>
      <point x="543" y="23"/>
      <point x="544" y="46"/>
      <point x="523" y="48" type="curve" smooth="yes"/>
    </contour>
    <contour>
      <point x="287" y="714" type="curve" smooth="yes"/>
      <point x="232" y="714"/>
      <point x="195" y="679"/>
      <point x="195" y="626" type="curve" smooth="yes"/>
      <point x="195" y="576"/>
      <point x="230" y="542"/>
      <point x="283" y="542" type="curve" smooth="yes"/>
      <point x="337" y="542"/>
      <point x="374" y="577"/>
      <point x="375" y="630" type="curve" smooth="yes"/>
      <point x="375" y="680"/>
      <point x="341" y="714"/>
    </contour>
    <contour>
      <point x="285" y="674" type="curve" smooth="yes"/>
      <point x="313" y="674"/>
      <point x="331" y="656"/>
      <point x="331" y="628" type="curve" smooth="yes"/>
      <point x="331" y="600"/>
      <point x="313" y="582"/>
      <point x="285" y="582" type="curve" smooth="yes"/>
      <point x="257" y="582"/>
      <point x="239" y="600"/>
      <point x="239" y="628" type="curve" smooth="yes"/>
      <point x="239" y="656"/>
      <point x="257" y="674"/>
    </contour>
  </outline>
</glyph>
<glyph name="uogonek" format="1">
  <advance width="564"/>
  <unicode hex="0173"/>
  <outline>
    <contour>
      <point x="467" y="54" type="line"/>
      <point x="467" y="485" type="line"/>
      <point x="358" y="485" type="line" smooth="yes"/>
      <point x="330" y="485"/>
      <point x="334" y="460"/>
      <point x="335" y="450" type="curve"/>
      <point x="412" y="444" type="line"/>
      <point x="412" y="97" type="line"/>
      <point x="372" y="62"/>
      <point x="333" y="37"/>
      <point x="273" y="37" type="curve" smooth="yes"/>
      <point x="196" y="37"/>
      <point x="149" y="91"/>
      <point x="149" y="195" type="curve" smooth="yes"/>
      <point x="149" y="485" type="line"/>
      <point x="41" y="485" type="line" smooth="yes"/>
      <point x="13" y="485"/>
      <point x="17" y="460"/>
      <point x="18" y="450" type="curve"/>
      <point x="94" y="444" type="line"/>
      <point x="94" y="186" type="line" smooth="yes"/>
      <point x="94" y="33"/>
      <point x="186" y="-15"/>
      <point x="262" y="-15" type="curve" smooth="yes"/>
      <point x="338" y="-15"/>
      <point x="384" y="19"/>
      <point x="417" y="53" type="curve"/>
      <point x="428" y="1" type="line"/>
      <point x="543" y="10" type="line"/>
      <point x="543" y="23"/>
      <point x="544" y="46"/>
      <point x="523" y="48" type="curve" smooth="yes"/>
    </contour>
    <contour>
      <point x="525" y="39" type="line"/>
      <point x="467" y="22"/>
      <point x="410" y="-17"/>
      <point x="410" y="-77" type="curve" smooth="yes"/>
      <point x="410" y="-128"/>
      <point x="451" y="-154"/>
      <point x="498" y="-154" type="curve" smooth="yes"/>
      <point x="534" y="-154"/>
      <point x="568" y="-139"/>
      <point x="582" y="-119" type="curve"/>
      <point x="584" y="-111"/>
      <point x="581" y="-94"/>
      <point x="575" y="-90" type="curve"/>
      <point x="563" y="-99"/>
      <point x="548" y="-113"/>
      <point x="517" y="-113" type="curve" smooth="yes"/>
      <point x="485" y="-113"/>
      <point x="464" y="-98"/>
      <point x="464" y="-66" type="curve" smooth="yes"/>
      <point x="464" y="-29"/>
      <point x="493" y="-3"/>
      <point x="544" y="15" type="curve"/>
    </contour>
  </outline>
</glyph>
<glyph name="florin" format="1">
  <advance width="400"/>
  <unicode hex="0192"/>
  <outline>
    <contour>
      <point x="297" y="700" type="curve" smooth="yes"/>
      <point x="247" y="700"/>
      <point x="161" y="676"/>
      <point x="139" y="523" type="curve" smooth="yes"/>
      <point x="49" y="-111" type="line"/>
      <point x="99" y="-114" type="line"/>
      <point x="189" y="504" type="line" smooth="yes"/>
      <point x="206" y="621"/>
      <point x="247" y="656"/>
      <point x="295" y="656" type="curve" smooth="yes"/>
      <point x="324" y="656"/>
      <point x="335" y="643"/>
      <point x="337" y="611" type="curve"/>
      <point x="360" y="611"/>
      <point x="376" y="626"/>
      <point x="376" y="649" type="curve" smooth="yes"/>
      <point x="376" y="686"/>
      <point x="335" y="700"/>
    </contour>
    <contour>
      <point x="283" y="483" type="line"/>
      <point x="68" y="483" type="line"/>
      <point x="63" y="444" type="line"/>
      <point x="278" y="444" type="line"/>
    </contour>
  </outline>
</glyph>
<glyph name="ogonek" format="1">
  <advance width="600"/>
  <unicode hex="02DB"/>
  <outline>
    <contour>
      <point x="274" y="0" type="move" name="_ogonek"/>
    </contour>
    <contour>
      <point x="285" y="29" type="line"/>
      <point x="227" y="12"/>
      <point x="170" y="-27"/>
      <point x="170" y="-87" type="curve" smooth="yes"/>
      <point x="170" y="-138"/>
      <point x="211" y="-164"/>
      <point x="258" y="-164" type="curve" smooth="yes"/>
      <point x="294" y="-164"/>
      <point x="328" y="-149"/>
      <point x="342" y="-129" type="curve"/>
      <point x="344" y="-121"/>
      <point x="341" y="-104"/>
      <point x="335" y="-100" type="curve"/>
      <point x="323" y="-109"/>
      <point x="308" y="-123"/>
      <point x="277" y="-123" type="curve" smooth="yes"/>
      <point x="245" y="-123"/>
      <point x="224" y="-108"/>
      <point x="224" y="-76" type="curve" smooth="yes"/>
      <point x="224" y="-39"/>
      <point x="253" y="-13"/>
      <point x="304" y="5" type="curve"/>
    </contour>
  </outline>
</glyph>
<glyph name="tilde" format="1">
  <advance width="600"/>
  <unicode hex="02DC"/>
  <outline>
    <contour>
      <point x="253" y="485" type="move" name="_top"/>
    </contour>
    <contour>
      <point x="115" y="571" type="line"/>
      <point x="124" y="593"/>
      <point x="145" y="618"/>
      <point x="172" y="616" type="curve" smooth="yes"/>
      <point x="225" y="612"/>
      <point x="246" y="560"/>
      <point x="308" y="556" type="curve" smooth="yes"/>
      <point x="370" y="552"/>
      <point x="406" y="594"/>
      <point x="420" y="643" type="curve"/>
      <point x="390" y="654" type="line"/>
      <point x="381" y="626"/>
      <point x="358" y="605"/>
      <point x="325" y="607" type="curve" smooth="yes"/>
      <point x="272" y="611"/>
      <point x="253" y="664"/>
      <point x="194" y="668" type="curve" smooth="yes"/>
      <point x="152" y="671"/>
      <point x="105" y="645"/>
      <point x="86" y="584" type="curve"/>
    </contour>
  </outline>
</glyph>
<glyph name="dvU" format="1">
  <advance width="507"/>
  <unicode hex="0909"/>
  <outline>
    <contour>
      <point x="212" y="319" type="curve"/>
      <point x="217" y="302"/>
      <point x="229" y="278"/>
      <point x="240" y="265" type="curve"/>
      <point x="252" y="271"/>
      <point x="274" y="279"/>
      <point x="306" y="279" type="curve" smooth="yes"/>
      <point x="378" y="279"/>
      <point x="419" y="239"/>
      <point x="419" y="169" type="curve" smooth="yes"/>
      <point x="419" y="95"/>
      <point x="373" y="59"/>
      <point x="304" y="59" type="curve" smooth="yes"/>
      <point x="188" y="59"/>
      <point x="114" y="161"/>
      <point x="35" y="334" type="curve"/>
      <point x="15" y="329"/>
      <point x="9" y="324"/>
      <point x="-2" y="317" type="curve"/>
      <point x="82" y="128"/>
      <point x="184" y="6"/>
      <point x="321" y="6" type="curve" smooth="yes"/>
      <point x="430" y="6"/>
      <point x="474" y="83"/>
      <point x="474" y="159" type="curve" smooth="yes"/>
      <point x="474" y="241"/>
      <point x="414" y="321"/>
      <point x="299" y="322" type="curve"/>
      <point x="326" y="307" type="line"/>
      <point x="357" y="319"/>
      <point x="426" y="377"/>
      <point x="426" y="452" type="curve" smooth="yes"/>
      <point x="426" y="539"/>
      <point x="357" y="580"/>
      <point x="340" y="589" type="curve"/>
      <point x="289" y="576" type="line"/>
      <point x="324" y="565"/>
      <point x="380" y="526"/>
      <point x="380" y="461" type="curve" smooth="yes"/>
      <point x="380" y="409"/>
      <point x="331" y="370"/>
      <point x="291" y="349" type="curve" smooth="yes"/>
      <point x="268" y="337"/>
      <point x="236" y="324"/>
    </contour>
    <contour>
      <point x="517" y="600" type="curve"/>
      <point x="-25" y="600" type="line"/>
      <point x="-25" y="583"/>
      <point x="-18" y="560"/>
      <point x="-10" y="550" type="curve"/>
      <point x="532" y="550" type="line"/>
      <point x="532" y="566"/>
      <point x="526" y="589"/>
    </contour>
  </outline>
</glyph>
<glyph name="dvEcandra" format="1">
  <advance width="521"/>
  <unicode hex="090D"/>
  <outline>
    <contour>
      <point x="141" y="563" type="line"/>
      <point x="90" y="563" type="line"/>
      <point x="90" y="331" type="line" smooth="yes"/>
      <point x="90" y="179"/>
      <point x="172" y="131"/>
      <point x="252" y="84" type="curve" smooth="yes"/>
      <point x="343" y="31"/>
      <point x="413" y="-4"/>
      <point x="413" y="-44" type="curve" smooth="yes"/>
      <point x="413" y="-67"/>
      <point x="393" y="-98"/>
      <point x="357" y="-116" type="curve"/>
      <point x="367" y="-136"/>
      <point x="381" y="-153"/>
      <point x="395" y="-164" type="curve"/>
      <point x="429" y="-133"/>
      <point x="458" y="-104"/>
      <point x="458" y="-52" type="curve" smooth="yes"/>
      <point x="458" y="38"/>
      <point x="371" y="76"/>
      <point x="275" y="131" type="curve" smooth="yes"/>
      <point x="163" y="195"/>
      <point x="141" y="220"/>
      <point x="141" y="302" type="curve" smooth="yes"/>
    </contour>
    <contour>
      <point x="431" y="563" type="line"/>
      <point x="378" y="563" type="line"/>
      <point x="378" y="327" type="line" smooth="yes"/>
      <point x="378" y="281"/>
      <point x="335" y="260"/>
      <point x="301" y="248" type="curve"/>
      <point x="307" y="225"/>
      <point x="319" y="206"/>
      <point x="330" y="195" type="curve"/>
      <point x="382" y="218"/>
      <point x="431" y="256"/>
      <point x="431" y="317" type="curve" smooth="yes"/>
    </contour>
    <contour>
      <point x="531" y="600" type="curve"/>
      <point x="-25" y="600" type="line"/>
      <point x="-25" y="583"/>
      <point x="-18" y="560"/>
      <point x="-10" y="550" type="curve"/>
      <point x="546" y="550" type="line"/>
      <point x="546" y="566"/>
      <point x="540" y="589"/>
    </contour>
    <contour>
      <point x="385" y="888" type="curve"/>
      <point x="356" y="815"/>
      <point x="307" y="770"/>
      <point x="238" y="770" type="curve" smooth="yes"/>
      <point x="176" y="770"/>
      <point x="137" y="806"/>
      <point x="90" y="888" type="curve"/>
      <point x="77" y="885"/>
      <point x="66" y="879"/>
      <point x="55" y="872" type="curve"/>
      <point x="90" y="793"/>
      <point x="152" y="711"/>
      <point x="248" y="711" type="curve" smooth="yes"/>
      <point x="337" y="711"/>
      <point x="407" y="780"/>
      <point x="444" y="856" type="curve"/>
      <point x="426" y="869"/>
      <point x="408" y="880"/>
    </contour>
  </outline>
</glyph>
<glyph name="dvE" format="1">
  <advance width="521"/>
  <unicode hex="090F"/>
  <outline>
    <contour>
      <point x="141" y="563" type="line"/>
      <point x="90" y="563" type="line"/>
      <point x="90" y="331" type="line" smooth="yes"/>
      <point x="90" y="179"/>
      <point x="172" y="131"/>
      <point x="252" y="84" type="curve" smooth="yes"/>
      <point x="343" y="31"/>
      <point x="413" y="-4"/>
      <point x="413" y="-44" type="curve" smooth="yes"/>
      <point x="413" y="-67"/>
      <point x="393" y="-98"/>
      <point x="357" y="-116" type="curve"/>
      <point x="367" y="-136"/>
      <point x="381" y="-153"/>
      <point x="395" y="-164" type="curve"/>
      <point x="429" y="-133"/>
      <point x="458" y="-104"/>
      <point x="458" y="-52" type="curve" smooth="yes"/>
      <point x="458" y="38"/>
      <point x="371" y="76"/>
      <point x="275" y="131" type="curve" smooth="yes"/>
      <point x="163" y="195"/>
      <point x="141" y="220"/>
      <point x="141" y="302" type="curve" smooth="yes"/>
    </contour>
    <contour>
      <point x="431" y="563" type="line"/>
      <point x="378" y="563" type="line"/>
      <point x="378" y="327" type="line" smooth="yes"/>
      <point x="378" y="281"/>
      <point x="335" y="260"/>
      <point x="301" y="248" type="curve"/>
      <point x="307" y="225"/>
      <point x="319" y="206"/>
      <point x="330" y="195" type="curve"/>
      <point x="382" y="218"/>
      <point x="431" y="256"/>
      <point x="431" y="317" type="curve" smooth="yes"/>
    </contour>
    <contour>
      <point x="531" y="600" type="curve"/>
      <point x="-25" y="600" type="line"/>
      <point x="-25" y="583"/>
      <point x="-18" y="560"/>
      <point x="-10" y="550" type="curve"/>
      <point x="546" y="550" type="line"/>
      <point x="546" y="566"/>
      <point x="540" y="589"/>
    </contour>
  </outline>
</glyph>
<glyph name="dvAI" format="1">
  <advance width="558"/>
  <unicode hex="0910"/>
  <outline>
    <contour>
      <point x="405" y="585" type="curve"/>
      <point x="441" y="600" type="line"/>
      <point x="413" y="662"/>
      <point x="304" y="880"/>
      <point x="154" y="880" type="curve" smooth="yes"/>
      <point x="108" y="880"/>
      <point x="55" y="868"/>
      <point x="30" y="857" type="curve"/>
      <point x="33" y="835"/>
      <point x="41" y="813"/>
      <point x="49" y="798" type="curve"/>
      <point x="85" y="812"/>
      <point x="148" y="826"/>
      <point x="189" y="826" type="curve" smooth="yes"/>
      <point x="274" y="826"/>
      <point x="384" y="636"/>
    </contour>
    <contour>
      <point x="159" y="563" type="line"/>
      <point x="108" y="563" type="line"/>
      <point x="108" y="331" type="line" smooth="yes"/>
      <point x="108" y="179"/>
      <point x="190" y="131"/>
      <point x="270" y="84" type="curve" smooth="yes"/>
      <point x="361" y="31"/>
      <point x="431" y="-4"/>
      <point x="431" y="-44" type="curve" smooth="yes"/>
      <point x="431" y="-67"/>
      <point x="411" y="-98"/>
      <point x="375" y="-116" type="curve"/>
      <point x="385" y="-136"/>
      <point x="399" y="-153"/>
      <point x="413" y="-164" type="curve"/>
      <point x="447" y="-133"/>
      <point x="476" y="-104"/>
      <point x="476" y="-52" type="curve" smooth="yes"/>
      <point x="476" y="38"/>
      <point x="389" y="76"/>
      <point x="293" y="131" type="curve" smooth="yes"/>
      <point x="181" y="195"/>
      <point x="159" y="220"/>
      <point x="159" y="302" type="curve" smooth="yes"/>
    </contour>
    <contour>
      <point x="449" y="563" type="line"/>
      <point x="396" y="563" type="line"/>
      <point x="396" y="327" type="line" smooth="yes"/>
      <point x="396" y="281"/>
      <point x="353" y="260"/>
      <point x="319" y="248" type="curve"/>
      <point x="325" y="225"/>
      <point x="337" y="206"/>
      <point x="348" y="195" type="curve"/>
      <point x="400" y="218"/>
      <point x="449" y="256"/>
      <point x="449" y="317" type="curve" smooth="yes"/>
    </contour>
    <contour>
      <point x="549" y="600" type="curve"/>
      <point x="-7" y="600" type="line"/>
      <point x="-7" y="583"/>
      <point x="0" y="560"/>
      <point x="8" y="550" type="curve"/>
      <point x="564" y="550" type="line"/>
      <point x="564" y="566"/>
      <point x="558" y="589"/>
    </contour>
  </outline>
</glyph>
<glyph name="dvCA" format="1">
  <advance width="607"/>
  <unicode hex="091A"/>
  <outline>
    <contour>
      <point x="364" y="435" type="curve"/>
      <point x="-7" y="435" type="line"/>
      <point x="-5" y="416"/>
      <point x="2" y="397"/>
      <point x="10" y="385" type="curve"/>
      <point x="180" y="385" type="line"/>
      <point x="144" y="366"/>
      <point x="116" y="328"/>
      <point x="116" y="279" type="curve" smooth="yes"/>
      <point x="116" y="208"/>
      <point x="175" y="125"/>
      <point x="292" y="125" type="curve" smooth="yes"/>
      <point x="352" y="125"/>
      <point x="406" y="146"/>
      <point x="448" y="184" type="curve"/>
      <point x="443" y="275" type="line"/>
      <point x="407" y="208"/>
      <point x="336" y="169"/>
      <point x="277" y="169" type="curve" smooth="yes"/>
      <point x="226" y="169"/>
      <point x="171" y="197"/>
      <point x="171" y="260" type="curve" smooth="yes"/>
      <point x="171" y="347"/>
      <point x="263" y="385"/>
      <point x="344" y="385" type="curve" smooth="yes"/>
      <point x="379" y="385" type="line"/>
      <point x="377" y="405"/>
      <point x="372" y="421"/>
    </contour>
    <contour>
      <point x="487" y="572" type="line"/>
      <point x="434" y="572" type="line"/>
      <point x="434" y="8" type="line" smooth="yes"/>
      <point x="434" y="-2"/>
      <point x="456" y="-20"/>
      <point x="487" y="-20" type="curve"/>
    </contour>
    <contour>
      <point x="617" y="600" type="curve"/>
      <point x="-25" y="600" type="line"/>
      <point x="-25" y="583"/>
      <point x="-18" y="560"/>
      <point x="-10" y="550" type="curve"/>
      <point x="632" y="550" type="line"/>
      <point x="632" y="566"/>
      <point x="626" y="589"/>
    </contour>
  </outline>
</glyph>
<glyph name="dvJA" format="1">
  <advance width="716"/>
  <unicode hex="091C"/>
  <outline>
    <contour>
      <point x="596" y="572" type="line"/>
      <point x="543" y="572" type="line"/>
      <point x="543" y="8" type="line" smooth="yes"/>
      <point x="543" y="-2"/>
      <point x="565" y="-20"/>
      <point x="596" y="-20" type="curve"/>
    </contour>
    <contour>
      <point x="726" y="600" type="curve"/>
      <point x="-11" y="600" type="line"/>
      <point x="-11" y="583"/>
      <point x="-4" y="560"/>
      <point x="4" y="550" type="curve"/>
      <point x="741" y="550" type="line"/>
      <point x="741" y="566"/>
      <point x="735" y="589"/>
    </contour>
    <contour>
      <point x="268" y="144" type="curve" smooth="yes"/>
      <point x="155" y="144"/>
      <point x="92" y="303"/>
      <point x="55" y="432" type="curve" smooth="yes"/>
      <point x="45" y="432"/>
      <point x="27" y="428"/>
      <point x="18" y="419" type="curve"/>
      <point x="65" y="248"/>
      <point x="143" y="88"/>
      <point x="277" y="88" type="curve" smooth="yes"/>
      <point x="350" y="88"/>
      <point x="390" y="140"/>
      <point x="390" y="209" type="curve" smooth="yes"/>
      <point x="390" y="277"/>
      <point x="348" y="330"/>
      <point x="328" y="354" type="curve"/>
      <point x="557" y="354" type="line"/>
      <point x="557" y="408" type="line"/>
      <point x="284" y="408" type="line"/>
      <point x="281" y="407"/>
      <point x="265" y="387"/>
      <point x="262" y="376" type="curve"/>
      <point x="290" y="345"/>
      <point x="344" y="287"/>
      <point x="344" y="222" type="curve" smooth="yes"/>
      <point x="344" y="166"/>
      <point x="306" y="144"/>
    </contour>
  </outline>
</glyph>
<glyph name="dvNNA" format="1">
  <advance width="737"/>
  <unicode hex="0923"/>
  <outline>
    <contour>
      <point x="138" y="563" type="line"/>
      <point x="85" y="563" type="line"/>
      <point x="85" y="349" type="line" smooth="yes"/>
      <point x="85" y="208"/>
      <point x="166" y="152"/>
      <point x="254" y="152" type="curve" smooth="yes"/>
      <point x="354" y="152"/>
      <point x="404" y="223"/>
      <point x="404" y="338" type="curve" smooth="yes"/>
      <point x="404" y="563" type="line"/>
      <point x="351" y="563" type="line"/>
      <point x="351" y="331" type="line" smooth="yes"/>
      <point x="351" y="226"/>
      <point x="305" y="198"/>
      <point x="253" y="198" type="curve" smooth="yes"/>
      <point x="156" y="198"/>
      <point x="138" y="293"/>
      <point x="138" y="360" type="curve" smooth="yes"/>
    </contour>
    <contour>
      <point x="617" y="572" type="line"/>
      <point x="564" y="572" type="line"/>
      <point x="564" y="8" type="line" smooth="yes"/>
      <point x="564" y="-2"/>
      <point x="586" y="-20"/>
      <point x="617" y="-20" type="curve"/>
    </contour>
    <contour>
      <point x="747" y="600" type="curve"/>
      <point x="-25" y="600" type="line"/>
      <point x="-25" y="583"/>
      <point x="-18" y="560"/>
      <point x="-10" y="550" type="curve"/>
      <point x="762" y="550" type="line"/>
      <point x="762" y="566"/>
      <point x="756" y="589"/>
    </contour>
  </outline>
</glyph>
<glyph name="dvTA" format="1">
  <advance width="527"/>
  <unicode hex="0924"/>
  <outline>
    <contour>
      <point x="407" y="572" type="line"/>
      <point x="354" y="572" type="line"/>
      <point x="354" y="8" type="line" smooth="yes"/>
      <point x="354" y="-2"/>
      <point x="376" y="-20"/>
      <point x="407" y="-20" type="curve"/>
    </contour>
    <contour>
      <point x="537" y="600" type="curve"/>
      <point x="-25" y="600" type="line"/>
      <point x="-25" y="583"/>
      <point x="-18" y="560"/>
      <point x="-10" y="550" type="curve"/>
      <point x="552" y="550" type="line"/>
      <point x="552" y="566"/>
      <point x="546" y="589"/>
    </contour>
    <contour>
      <point x="368" y="424" type="line"/>
      <point x="270" y="424" type="line" smooth="yes"/>
      <point x="127" y="424"/>
      <point x="39" y="386"/>
      <point x="39" y="281" type="curve" smooth="yes"/>
      <point x="39" y="181"/>
      <point x="119" y="57"/>
      <point x="176" y="-20" type="curve"/>
      <point x="181" y="-18"/>
      <point x="200" y="-8"/>
      <point x="210" y="5" type="curve"/>
      <point x="164" y="64"/>
      <point x="94" y="175"/>
      <point x="94" y="260" type="curve" smooth="yes"/>
      <point x="94" y="341"/>
      <point x="147" y="369"/>
      <point x="275" y="369" type="curve" smooth="yes"/>
      <point x="369" y="369" type="line"/>
    </contour>
  </outline>
</glyph>
<glyph name="dvRxA" format="1">
  <advance width="317"/>
  <unicode hex="0931"/>
  <outline>
    <contour>
      <point x="205" y="600" type="move" name="abvm.bindu"/>
    </contour>
    <contour>
      <point x="205" y="600" type="move" name="abvm.e"/>
    </contour>
    <contour>
      <point x="81" y="-19" type="curve" smooth="yes"/>
      <point x="95" y="-19"/>
      <point x="134" y="17"/>
      <point x="134" y="26" type="curve" smooth="yes"/>
      <point x="134" y="39"/>
      <point x="98" y="80"/>
      <point x="88" y="80" type="curve" smooth="yes"/>
      <point x="76" y="80"/>
      <point x="35" y="46"/>
      <point x="35" y="33" type="curve" smooth="yes"/>
      <point x="35" y="22"/>
      <point x="70" y="-19"/>
    </contour>
    <contour>
      <point x="327" y="600" type="curve"/>
      <point x="-25" y="600" type="line"/>
      <point x="-25" y="583"/>
      <point x="-18" y="560"/>
      <point x="-10" y="550" type="curve"/>
      <point x="342" y="550" type="line"/>
      <point x="342" y="566"/>
      <point x="336" y="589"/>
    </contour>
    <contour>
      <point x="205" y="562" type="curve"/>
      <point x="141" y="562" type="line"/>
      <point x="159" y="524"/>
      <point x="179" y="464"/>
      <point x="179" y="408" type="curve" smooth="yes"/>
      <point x="179" y="383"/>
      <point x="175" y="359"/>
      <point x="165" y="338" type="curve"/>
      <point x="148" y="344"/>
      <point x="127" y="349"/>
      <point x="101" y="349" type="curve" smooth="yes"/>
      <point x="62" y="349"/>
      <point x="35" y="327"/>
      <point x="35" y="291" type="curve" smooth="yes"/>
      <point x="35" y="196"/>
      <point x="243" y="-11"/>
      <point x="260" y="-27" type="curve"/>
      <point x="271" y="-21"/>
      <point x="295" y="-5"/>
      <point x="305" y="8" type="curve"/>
      <point x="248" y="54"/>
      <point x="148" y="153"/>
      <point x="92" y="243" type="curve"/>
      <point x="191" y="247"/>
      <point x="224" y="337"/>
      <point x="224" y="427" type="curve" smooth="yes"/>
      <point x="224" y="477"/>
      <point x="215" y="527"/>
    </contour>
  </outline>
</glyph>
<glyph name="dvVA" format="1">
  <advance width="542"/>
  <unicode hex="0935"/>
  <outline>
    <contour>
      <point x="218" y="453" type="curve" smooth="yes"/>
      <point x="129" y="453"/>
      <point x="41" y="403"/>
      <point x="41" y="296" type="curve" smooth="yes"/>
      <point x="41" y="201"/>
      <point x="111" y="108"/>
      <point x="229" y="108" type="curve" smooth="yes"/>
      <point x="295" y="108"/>
      <point x="340" y="137"/>
      <point x="380" y="170" type="curve"/>
      <point x="377" y="257" type="line"/>
      <point x="341" y="191"/>
      <point x="260" y="152"/>
      <point x="206" y="152" type="curve" smooth="yes"/>
      <point x="166" y="152"/>
      <point x="99" y="174"/>
      <point x="99" y="266" type="curve" smooth="yes"/>
      <point x="99" y="364"/>
      <point x="175" y="401"/>
      <point x="239" y="401" type="curve" smooth="yes"/>
      <point x="296" y="401"/>
      <point x="338" y="372"/>
      <point x="378" y="335" type="curve"/>
      <point x="375" y="388" type="line"/>
      <point x="344" y="418"/>
      <point x="292" y="453"/>
    </contour>
    <contour>
      <point x="369" y="572" type="line"/>
      <point x="369" y="8" type="line" smooth="yes"/>
      <point x="369" y="-2"/>
      <point x="391" y="-20"/>
      <point x="422" y="-20" type="curve"/>
      <point x="422" y="572" type="line"/>
    </contour>
    <contour>
      <point x="552" y="600" type="curve"/>
      <point x="-25" y="600" type="line"/>
      <point x="-25" y="583"/>
      <point x="-18" y="560"/>
      <point x="-10" y="550" type="curve"/>
      <point x="567" y="550" type="line"/>
      <point x="567" y="566"/>
      <point x="561" y="589"/>
    </contour>
  </outline>
</glyph>
<glyph name="dvSHA" format="1">
  <advance width="658"/>
  <unicode hex="0936"/>
  <outline>
    <contour>
      <point x="187" y="598" type="curve" smooth="yes"/>
      <point x="125" y="598"/>
      <point x="73" y="542"/>
      <point x="73" y="483" type="curve" smooth="yes"/>
      <point x="73" y="437"/>
      <point x="102" y="384"/>
      <point x="197" y="343" type="curve"/>
      <point x="200" y="345"/>
      <point x="209" y="357"/>
      <point x="211" y="367" type="curve"/>
      <point x="140" y="412"/>
      <point x="128" y="446"/>
      <point x="128" y="477" type="curve" smooth="yes"/>
      <point x="128" y="523"/>
      <point x="169" y="551"/>
      <point x="210" y="551" type="curve" smooth="yes"/>
      <point x="277" y="551"/>
      <point x="297" y="491"/>
      <point x="297" y="451" type="curve" smooth="yes"/>
      <point x="297" y="349"/>
      <point x="213" y="275"/>
      <point x="144" y="260" type="curve"/>
      <point x="124" y="286"/>
      <point x="94" y="311"/>
      <point x="71" y="311" type="curve" smooth="yes"/>
      <point x="50" y="311"/>
      <point x="13" y="284"/>
      <point x="13" y="260" type="curve" smooth="yes"/>
      <point x="13" y="236"/>
      <point x="47" y="203"/>
      <point x="97" y="203" type="curve" smooth="yes"/>
      <point x="107" y="203"/>
      <point x="118" y="204"/>
      <point x="129" y="206" type="curve"/>
      <point x="185" y="154"/>
      <point x="272" y="33"/>
      <point x="301" y="-27" type="curve"/>
      <point x="322" y="-19"/>
      <point x="340" y="-2"/>
      <point x="349" y="10" type="curve"/>
      <point x="336" y="45"/>
      <point x="221" y="172"/>
      <point x="164" y="215" type="curve"/>
      <point x="255" y="245"/>
      <point x="347" y="331"/>
      <point x="347" y="438" type="curve" smooth="yes"/>
      <point x="347" y="528"/>
      <point x="273" y="598"/>
    </contour>
    <contour>
      <point x="538" y="572" type="line"/>
      <point x="485" y="572" type="line"/>
      <point x="485" y="8" type="line" smooth="yes"/>
      <point x="485" y="-2"/>
      <point x="507" y="-20"/>
      <point x="538" y="-20" type="curve"/>
    </contour>
    <contour>
      <point x="668" y="600" type="curve"/>
      <point x="-25" y="600" type="line"/>
      <point x="-25" y="583"/>
      <point x="-18" y="560"/>
      <point x="-10" y="550" type="curve"/>
      <point x="683" y="550" type="line"/>
      <point x="683" y="566"/>
      <point x="677" y="589"/>
    </contour>
  </outline>
</glyph>
<glyph name="dvSA" format="1">
  <advance width="616"/>
  <unicode hex="0938"/>
  <outline>
    <contour>
      <point x="204" y="562" type="curve"/>
      <point x="140" y="562" type="line"/>
      <point x="158" y="524"/>
      <point x="178" y="464"/>
      <point x="178" y="408" type="curve" smooth="yes"/>
      <point x="178" y="383"/>
      <point x="174" y="359"/>
      <point x="164" y="338" type="curve"/>
      <point x="147" y="344"/>
      <point x="126" y="349"/>
      <point x="100" y="349" type="curve" smooth="yes"/>
      <point x="61" y="349"/>
      <point x="34" y="327"/>
      <point x="34" y="291" type="curve" smooth="yes"/>
      <point x="34" y="269"/>
      <point x="47" y="239"/>
      <point x="67" y="206" type="curve" smooth="yes"/>
      <point x="125" y="109"/>
      <point x="240" y="-12"/>
      <point x="259" y="-27" type="curve"/>
      <point x="270" y="-21"/>
      <point x="291" y="-7"/>
      <point x="301" y="6" type="curve"/>
      <point x="244" y="52"/>
      <point x="147" y="153"/>
      <point x="91" y="243" type="curve"/>
      <point x="186" y="247"/>
      <point x="223" y="329"/>
      <point x="223" y="427" type="curve" smooth="yes"/>
      <point x="223" y="477"/>
      <point x="214" y="527"/>
    </contour>
    <contour>
      <point x="453" y="338" type="line"/>
      <point x="422" y="310"/>
      <point x="367" y="299"/>
      <point x="314" y="299" type="curve" smooth="yes"/>
      <point x="269" y="299"/>
      <point x="225" y="307"/>
      <point x="194" y="321" type="curve"/>
      <point x="170" y="290" type="line"/>
      <point x="215" y="265"/>
      <point x="277" y="253"/>
      <point x="337" y="253" type="curve" smooth="yes"/>
      <point x="380" y="253"/>
      <point x="423" y="260"/>
      <point x="457" y="272" type="curve"/>
    </contour>
    <contour>
      <point x="496" y="572" type="line"/>
      <point x="443" y="572" type="line"/>
      <point x="443" y="8" type="line" smooth="yes"/>
      <point x="443" y="-2"/>
      <point x="465" y="-20"/>
      <point x="496" y="-20" type="curve"/>
    </contour>
    <contour>
      <point x="626" y="600" type="curve"/>
      <point x="-25" y="600" type="line"/>
      <point x="-25" y="583"/>
      <point x="-18" y="560"/>
      <point x="-10" y="550" type="curve"/>
      <point x="641" y="550" type="line"/>
      <point x="641" y="566"/>
      <point x="635" y="589"/>
    </contour>
  </outline>
</glyph>
<glyph name="dvmAA" format="1">
  <advance width="293"/>
  <unicode hex="093E"/>
  <outline>
    <contour>
      <point x="173" y="572" type="line"/>
      <point x="120" y="572" type="line"/>
      <point x="120" y="8" type="line" smooth="yes"/>
      <point x="120" y="-2"/>
      <point x="142" y="-20"/>
      <point x="173" y="-20" type="curve"/>
    </contour>
    <contour>
      <point x="303" y="600" type="curve"/>
      <point x="-25" y="600" type="line"/>
      <point x="-25" y="583"/>
      <point x="-18" y="560"/>
      <point x="-10" y="550" type="curve"/>
      <point x="318" y="550" type="line"/>
      <point x="318" y="566"/>
      <point x="312" y="589"/>
    </contour>
  </outline>
</glyph>
<glyph name="dvmvR" format="1">
  <advance width="0"/>
  <unicode hex="0943"/>
  <outline>
    <contour>
      <point x="-120" y="0" type="move" name="_blwm.u"/>
    </contour>
    <contour>
      <point x="-145" y="31" type="curve"/>
      <point x="-201" y="15"/>
      <point x="-266" y="-28"/>
      <point x="-266" y="-104" type="curve" smooth="yes"/>
      <point x="-266" y="-166"/>
      <point x="-220" y="-214"/>
      <point x="-148" y="-214" type="curve" smooth="yes"/>
      <point x="-104" y="-214"/>
      <point x="-54" y="-196"/>
      <point x="-26" y="-161" type="curve"/>
      <point x="-34" y="-151"/>
      <point x="-44" y="-141"/>
      <point x="-65" y="-124" type="curve"/>
      <point x="-94" y="-161"/>
      <point x="-137" y="-172"/>
      <point x="-162" y="-172" type="curve" smooth="yes"/>
      <point x="-192" y="-172"/>
      <point x="-224" y="-153"/>
      <point x="-224" y="-115" type="curve" smooth="yes"/>
      <point x="-224" y="-60"/>
      <point x="-178" y="-32"/>
      <point x="-120" y="-20" type="curve"/>
      <point x="-121" y="-13"/>
      <point x="-135" y="20"/>
    </contour>
  </outline>
</glyph>
<glyph name="dvmEcandra" format="1">
  <advance width="0"/>
  <unicode hex="0945"/>
  <outline>
    <contour>
      <point x="-120" y="600" type="move" name="_abvm.bindu"/>
    </contour>
    <contour>
      <point x="-29" y="836" type="curve"/>
      <point x="-59" y="760"/>
      <point x="-110" y="716"/>
      <point x="-175" y="716" type="curve" smooth="yes"/>
      <point x="-232" y="716"/>
      <point x="-279" y="750"/>
      <point x="-319" y="832" type="curve"/>
      <point x="-332" y="829"/>
      <point x="-343" y="823"/>
      <point x="-354" y="816" type="curve"/>
      <point x="-323" y="737"/>
      <point x="-261" y="663"/>
      <point x="-170" y="663" type="curve" smooth="yes"/>
      <point x="-82" y="663"/>
      <point x="-12" y="730"/>
      <point x="25" y="808" type="curve"/>
      <point x="7" y="821"/>
      <point x="-6" y="828"/>
    </contour>
  </outline>
</glyph>
<glyph name="dvmE" format="1">
  <advance width="0"/>
  <unicode hex="0947"/>
  <outline>
    <contour>
      <point x="-120" y="600" type="move" name="_abvm.e"/>
    </contour>
    <contour>
      <point x="-167" y="585" type="curve"/>
      <point x="-131" y="600" type="line"/>
      <point x="-160" y="662"/>
      <point x="-264" y="880"/>
      <point x="-423" y="880" type="curve" smooth="yes"/>
      <point x="-460" y="880"/>
      <point x="-518" y="868"/>
      <point x="-542" y="857" type="curve"/>
      <point x="-539" y="835"/>
      <point x="-531" y="813"/>
      <point x="-523" y="798" type="curve"/>
      <point x="-488" y="812"/>
      <point x="-441" y="826"/>
      <point x="-408" y="826" type="curve" smooth="yes"/>
      <point x="-287" y="826"/>
      <point x="-188" y="631"/>
    </contour>
  </outline>
</glyph>
<glyph name="dvDDxA" format="1">
  <advance width="441"/>
  <unicode hex="095C"/>
  <outline>
    <contour>
      <point x="367" y="600" type="move" name="abvm.e"/>
    </contour>
    <contour>
      <point x="230" y="-123" type="curve" smooth="yes"/>
      <point x="244" y="-123"/>
      <point x="283" y="-87"/>
      <point x="283" y="-78" type="curve" smooth="yes"/>
      <point x="283" y="-65"/>
      <point x="247" y="-24"/>
      <point x="237" y="-24" type="curve" smooth="yes"/>
      <point x="225" y="-24"/>
      <point x="184" y="-58"/>
      <point x="184" y="-71" type="curve" smooth="yes"/>
      <point x="184" y="-82"/>
      <point x="219" y="-123"/>
    </contour>
    <contour>
      <point x="451" y="600" type="curve"/>
      <point x="-25" y="600" type="line"/>
      <point x="-25" y="583"/>
      <point x="-18" y="560"/>
      <point x="-10" y="550" type="curve"/>
      <point x="466" y="550" type="line"/>
      <point x="466" y="566"/>
      <point x="460" y="589"/>
    </contour>
    <contour>
      <point x="367" y="563" type="line"/>
      <point x="314" y="563" type="line"/>
      <point x="314" y="453" type="line"/>
      <point x="190" y="453" type="line" smooth="yes"/>
      <point x="105" y="453"/>
      <point x="55" y="424"/>
      <point x="55" y="358" type="curve" smooth="yes"/>
      <point x="55" y="289"/>
      <point x="107" y="211"/>
      <point x="174" y="211" type="curve" smooth="yes"/>
      <point x="215" y="211"/>
      <point x="288" y="239"/>
      <point x="329" y="239" type="curve" smooth="yes"/>
      <point x="362" y="239"/>
      <point x="377" y="221"/>
      <point x="377" y="190" type="curve" smooth="yes"/>
      <point x="377" y="136"/>
      <point x="333" y="75"/>
      <point x="230" y="75" type="curve" smooth="yes"/>
      <point x="147" y="75"/>
      <point x="98" y="116"/>
      <point x="42" y="184" type="curve"/>
      <point x="31" y="178"/>
      <point x="18" y="167"/>
      <point x="12" y="158" type="curve"/>
      <point x="82" y="65"/>
      <point x="160" y="25"/>
      <point x="245" y="25" type="curve" smooth="yes"/>
      <point x="346" y="25"/>
      <point x="419" y="81"/>
      <point x="419" y="168" type="curve" smooth="yes"/>
      <point x="419" y="227"/>
      <point x="386" y="293"/>
      <point x="321" y="293" type="curve" smooth="yes"/>
      <point x="278" y="293"/>
      <point x="171" y="263"/>
      <point x="154" y="263" type="curve" smooth="yes"/>
      <point x="134" y="263"/>
      <point x="109" y="287"/>
      <point x="109" y="331" type="curve" smooth="yes"/>
      <point x="109" y="382"/>
      <point x="134" y="402"/>
      <point x="246" y="402" type="curve" smooth="yes"/>
      <point x="292" y="402"/>
      <point x="314" y="399"/>
      <point x="340" y="399" type="curve" smooth="yes"/>
      <point x="351" y="399"/>
      <point x="367" y="419"/>
      <point x="367" y="432" type="curve" smooth="yes"/>
    </contour>
  </outline>
</glyph>
<glyph name="dvDDHxA" format="1">
  <advance width="516"/>
  <unicode hex="095D"/>
  <outline>
    <contour>
      <point x="402" y="600" type="move" name="abvm.e"/>
    </contour>
    <contour>
      <point x="298" y="-133" type="curve" smooth="yes"/>
      <point x="312" y="-133"/>
      <point x="351" y="-97"/>
      <point x="351" y="-88" type="curve" smooth="yes"/>
      <point x="351" y="-75"/>
      <point x="315" y="-34"/>
      <point x="305" y="-34" type="curve" smooth="yes"/>
      <point x="293" y="-34"/>
      <point x="252" y="-68"/>
      <point x="252" y="-81" type="curve" smooth="yes"/>
      <point x="252" y="-92"/>
      <point x="287" y="-133"/>
    </contour>
    <contour>
      <point x="552" y="600" type="curve"/>
      <point x="-22" y="600" type="line"/>
      <point x="-22" y="583"/>
      <point x="-15" y="560"/>
      <point x="-7" y="550" type="curve"/>
      <point x="567" y="550" type="line"/>
      <point x="567" y="566"/>
      <point x="561" y="589"/>
    </contour>
    <contour>
      <point x="349" y="563" type="line"/>
      <point x="349" y="449" type="line"/>
      <point x="330" y="451"/>
      <point x="315" y="453"/>
      <point x="290" y="453" type="curve" smooth="yes"/>
      <point x="138" y="453"/>
      <point x="53" y="378"/>
      <point x="53" y="266" type="curve" smooth="yes"/>
      <point x="53" y="153"/>
      <point x="139" y="50"/>
      <point x="303" y="50" type="curve" smooth="yes"/>
      <point x="445" y="50"/>
      <point x="506" y="127"/>
      <point x="506" y="198" type="curve" smooth="yes"/>
      <point x="506" y="275"/>
      <point x="435" y="305"/>
      <point x="385" y="305" type="curve" smooth="yes"/>
      <point x="319" y="305"/>
      <point x="286" y="252"/>
      <point x="286" y="199" type="curve" smooth="yes"/>
      <point x="286" y="165"/>
      <point x="300" y="128"/>
      <point x="330" y="92" type="curve"/>
      <point x="364" y="99" type="line"/>
      <point x="348" y="121"/>
      <point x="331" y="149"/>
      <point x="331" y="183" type="curve" smooth="yes"/>
      <point x="331" y="225"/>
      <point x="357" y="257"/>
      <point x="399" y="257" type="curve" smooth="yes"/>
      <point x="423" y="257"/>
      <point x="456" y="247"/>
      <point x="456" y="207" type="curve" smooth="yes"/>
      <point x="456" y="133"/>
      <point x="383" y="94"/>
      <point x="278" y="94" type="curve" smooth="yes"/>
      <point x="170" y="94"/>
      <point x="108" y="162"/>
      <point x="108" y="251" type="curve" smooth="yes"/>
      <point x="108" y="334"/>
      <point x="161" y="404"/>
      <point x="316" y="404" type="curve" smooth="yes"/>
      <point x="342" y="404"/>
      <point x="371" y="397"/>
      <point x="379" y="397" type="curve" smooth="yes"/>
      <point x="387" y="397"/>
      <point x="402" y="417"/>
      <point x="402" y="428" type="curve" smooth="yes"/>
      <point x="402" y="563" type="line"/>
    </contour>
  </outline>
</glyph>
<glyph name="doubledanda" format="1">
  <advance width="599"/>
  <unicode hex="0965"/>
  <outline>
    <contour>
      <point x="225" y="-19" type="curve"/>
      <point x="225" y="555" type="line" smooth="yes"/>
      <point x="225" y="575"/>
      <point x="209" y="594"/>
      <point x="170" y="594" type="curve"/>
      <point x="170" y="14" type="line" smooth="yes"/>
      <point x="170" y="0"/>
      <point x="196" y="-22"/>
    </contour>
    <contour>
      <point x="429" y="-19" type="curve"/>
      <point x="429" y="555" type="line" smooth="yes"/>
      <point x="429" y="575"/>
      <point x="413" y="594"/>
      <point x="374" y="594" type="curve"/>
      <point x="374" y="14" type="line" smooth="yes"/>
      <point x="374" y="0"/>
      <point x="400" y="-22"/>
    </contour>
  </outline>
</glyph>
<glyph name="dvZero" format="1">
  <advance width="493"/>
  <unicode hex="0966"/>
  <outline>
    <contour>
      <point x="228" y="506" type="curve" smooth="yes"/>
      <point x="124" y="506"/>
      <point x="52" y="424"/>
      <point x="52" y="304" type="curve" smooth="yes"/>
      <point x="52" y="172"/>
      <point x="140" y="71"/>
      <point x="258" y="71" type="curve" smooth="yes"/>
      <point x="359" y="71"/>
      <point x="430" y="145"/>
      <point x="430" y="270" type="curve" smooth="yes"/>
      <point x="430" y="412"/>
      <point x="339" y="506"/>
    </contour>
    <contour>
      <point x="241" y="453" type="curve" smooth="yes"/>
      <point x="298" y="453"/>
      <point x="377" y="416"/>
      <point x="377" y="289" type="curve" smooth="yes"/>
      <point x="377" y="195"/>
      <point x="333" y="123"/>
      <point x="245" y="123" type="curve" smooth="yes"/>
      <point x="161" y="123"/>
      <point x="106" y="189"/>
      <point x="106" y="286" type="curve" smooth="yes"/>
      <point x="106" y="387"/>
      <point x="165" y="453"/>
    </contour>
  </outline>
</glyph>
<glyph name="dvFour" format="1">
  <advance width="650"/>
  <unicode hex="096A"/>
  <outline>
    <contour>
      <point x="58" y="619" type="curve"/>
      <point x="132" y="515"/>
      <point x="166" y="482"/>
      <point x="310" y="328" type="curve" smooth="yes"/>
      <point x="367" y="267"/>
      <point x="418" y="211"/>
      <point x="418" y="159" type="curve" smooth="yes"/>
      <point x="418" y="108"/>
      <point x="369" y="86"/>
      <point x="319" y="86" type="curve" smooth="yes"/>
      <point x="269" y="86"/>
      <point x="243" y="108"/>
      <point x="243" y="147" type="curve" smooth="yes"/>
      <point x="243" y="200"/>
      <point x="293" y="263"/>
      <point x="349" y="322" type="curve" smooth="yes"/>
      <point x="433" y="410"/>
      <point x="538" y="500"/>
      <point x="550" y="573" type="curve"/>
      <point x="538" y="589"/>
      <point x="520" y="600"/>
      <point x="501" y="606" type="curve"/>
      <point x="481" y="533"/>
      <point x="339" y="396"/>
      <point x="303" y="355" type="curve" smooth="yes"/>
      <point x="245" y="289"/>
      <point x="196" y="217"/>
      <point x="196" y="156" type="curve" smooth="yes"/>
      <point x="196" y="87"/>
      <point x="258" y="30"/>
      <point x="337" y="30" type="curve" smooth="yes"/>
      <point x="410" y="30"/>
      <point x="462" y="79"/>
      <point x="462" y="153" type="curve" smooth="yes"/>
      <point x="462" y="225"/>
      <point x="417" y="288"/>
      <point x="355" y="359" type="curve" smooth="yes"/>
      <point x="298" y="425"/>
      <point x="328" y="387"/>
      <point x="111" y="657" type="curve"/>
      <point x="98" y="654"/>
      <point x="65" y="629"/>
    </contour>
  </outline>
</glyph>
<glyph name="dvFive" format="1">
  <advance width="549"/>
  <unicode hex="096B"/>
  <outline>
    <contour>
      <point x="194" y="615" type="curve"/>
      <point x="140" y="551"/>
      <point x="83" y="466"/>
      <point x="83" y="367" type="curve" smooth="yes"/>
      <point x="83" y="274"/>
      <point x="128" y="161"/>
      <point x="259" y="161" type="curve" smooth="yes"/>
      <point x="343" y="161"/>
      <point x="420" y="224"/>
      <point x="420" y="301" type="curve" smooth="yes"/>
      <point x="420" y="340"/>
      <point x="397" y="352"/>
      <point x="382" y="352" type="curve" smooth="yes"/>
      <point x="362" y="352"/>
      <point x="316" y="330"/>
      <point x="316" y="296" type="curve" smooth="yes"/>
      <point x="316" y="272"/>
      <point x="341" y="229"/>
      <point x="354" y="238" type="curve"/>
      <point x="358" y="264" type="line"/>
      <point x="334" y="233"/>
      <point x="292" y="217"/>
      <point x="249" y="217" type="curve" smooth="yes"/>
      <point x="178" y="217"/>
      <point x="133" y="267"/>
      <point x="133" y="345" type="curve" smooth="yes"/>
      <point x="133" y="443"/>
      <point x="191" y="524"/>
      <point x="237" y="582" type="curve"/>
      <point x="224" y="598"/>
      <point x="213" y="605"/>
    </contour>
    <contour>
      <point x="390" y="233" type="curve"/>
      <point x="366" y="209" type="line"/>
      <point x="411" y="146"/>
      <point x="466" y="43"/>
      <point x="490" y="-4" type="curve"/>
      <point x="511" y="4"/>
      <point x="532" y="21"/>
      <point x="541" y="33" type="curve"/>
      <point x="525" y="67"/>
      <point x="435" y="196"/>
    </contour>
  </outline>
</glyph>
<glyph name="dvAbbreviationsign" format="1">
  <advance width="384"/>
  <unicode hex="0970"/>
  <outline>
    <contour>
      <point x="162" y="501" type="curve" smooth="yes"/>
      <point x="93" y="501"/>
      <point x="55" y="445"/>
      <point x="55" y="376" type="curve" smooth="yes"/>
      <point x="55" y="281"/>
      <point x="125" y="225"/>
      <point x="190" y="225" type="curve" smooth="yes"/>
      <point x="249" y="225"/>
      <point x="298" y="268"/>
      <point x="298" y="344" type="curve" smooth="yes"/>
      <point x="298" y="431"/>
      <point x="240" y="501"/>
    </contour>
    <contour>
      <point x="175" y="456" type="curve" smooth="yes"/>
      <point x="222" y="456"/>
      <point x="255" y="420"/>
      <point x="255" y="360" type="curve" smooth="yes"/>
      <point x="255" y="302"/>
      <point x="224" y="266"/>
      <point x="177" y="266" type="curve" smooth="yes"/>
      <point x="117" y="266"/>
      <point x="102" y="321"/>
      <point x="102" y="365" type="curve" smooth="yes"/>
      <point x="102" y="419"/>
      <point x="128" y="456"/>
    </contour>
  </outline>
</glyph>
<glyph name="quoteleft" format="1">
  <advance width="168"/>
  <unicode hex="2018"/>
  <outline>
    <contour>
      <point x="88" y="596" type="line"/>
      <point x="88" y="612"/>
      <point x="100" y="647"/>
      <point x="126" y="665" type="curve"/>
      <point x="126" y="670"/>
      <point x="114" y="682"/>
      <point x="109" y="679" type="curve"/>
      <point x="77" y="666"/>
      <point x="40" y="614"/>
      <point x="40" y="570" type="curve" smooth="yes"/>
      <point x="40" y="542"/>
      <point x="58" y="524"/>
      <point x="84" y="524" type="curve" smooth="yes"/>
      <point x="111" y="524"/>
      <point x="128" y="541"/>
      <point x="128" y="569" type="curve" smooth="yes"/>
      <point x="128" y="591"/>
      <point x="112" y="613"/>
      <point x="86" y="613" type="curve" smooth="yes"/>
      <point x="78" y="613"/>
      <point x="73" y="611"/>
      <point x="65" y="607" type="curve"/>
    </contour>
  </outline>
</glyph>
<glyph name="quoteright" format="1">
  <advance width="168"/>
  <unicode hex="2019"/>
  <outline>
    <contour>
      <point x="80" y="607" type="line"/>
      <point x="80" y="591"/>
      <point x="68" y="556"/>
      <point x="42" y="538" type="curve"/>
      <point x="42" y="533"/>
      <point x="54" y="521"/>
      <point x="59" y="524" type="curve"/>
      <point x="91" y="537"/>
      <point x="128" y="589"/>
      <point x="128" y="633" type="curve" smooth="yes"/>
      <point x="128" y="661"/>
      <point x="110" y="679"/>
      <point x="84" y="679" type="curve" smooth="yes"/>
      <point x="57" y="679"/>
      <point x="40" y="662"/>
      <point x="40" y="634" type="curve" smooth="yes"/>
      <point x="40" y="612"/>
      <point x="56" y="590"/>
      <point x="82" y="590" type="curve" smooth="yes"/>
      <point x="90" y="590"/>
      <point x="95" y="592"/>
      <point x="103" y="596" type="curve"/>
    </contour>
  </outline>
</glyph>
<glyph name="ellipsis" format="1">
  <advance width="548"/>
  <unicode hex="2026"/>
  <outline>
    <contour>
      <point x="86" y="-15" type="curve" smooth="yes"/>
      <point x="113" y="-15"/>
      <point x="132" y="5"/>
      <point x="132" y="32" type="curve" smooth="yes"/>
      <point x="132" y="59"/>
      <point x="113" y="79"/>
      <point x="86" y="79" type="curve" smooth="yes"/>
      <point x="59" y="79"/>
      <point x="40" y="59"/>
      <point x="40" y="32" type="curve" smooth="yes"/>
      <point x="40" y="5"/>
      <point x="59" y="-15"/>
    </contour>
    <contour>
      <point x="274" y="-15" type="curve" smooth="yes"/>
      <point x="301" y="-15"/>
      <point x="320" y="5"/>
      <point x="320" y="32" type="curve" smooth="yes"/>
      <point x="320" y="59"/>
      <point x="301" y="79"/>
      <point x="274" y="79" type="curve" smooth="yes"/>
      <point x="247" y="79"/>
      <point x="228" y="59"/>
      <point x="228" y="32" type="curve" smooth="yes"/>
      <point x="228" y="5"/>
      <point x="247" y="-15"/>
    </contour>
    <contour>
      <point x="462" y="-15" type="curve" smooth="yes"/>
      <point x="489" y="-15"/>
      <point x="508" y="5"/>
      <point x="508" y="32" type="curve" smooth="yes"/>
      <point x="508" y="59"/>
      <point x="489" y="79"/>
      <point x="462" y="79" type="curve" smooth="yes"/>
      <point x="435" y="79"/>
      <point x="416" y="59"/>
      <point x="416" y="32" type="curve" smooth="yes"/>
      <point x="416" y="5"/>
      <point x="435" y="-15"/>
    </contour>
  </outline>
</glyph>
<glyph name="Omega.math" format="1">
  <advance width="698"/>
  <unicode hex="2126"/>
  <outline>
    <contour>
      <point x="351" y="675" type="curve" smooth="yes"/>
      <point x="179" y="675"/>
      <point x="53" y="541"/>
      <point x="53" y="353" type="curve" smooth="yes"/>
      <point x="53" y="182"/>
      <point x="174" y="85"/>
      <point x="255" y="40" type="curve"/>
      <point x="277" y="46" type="line"/>
      <point x="74" y="46" type="line"/>
      <point x="64" y="104" type="line" smooth="yes"/>
      <point x="60" y="124"/>
      <point x="36" y="121"/>
      <point x="30" y="117" type="curve"/>
      <point x="30" y="0" type="line"/>
      <point x="314" y="0" type="line"/>
      <point x="320" y="12"/>
      <point x="325" y="24"/>
      <point x="327" y="36" type="curve"/>
      <point x="251" y="91"/>
      <point x="112" y="183"/>
      <point x="112" y="346" type="curve" smooth="yes"/>
      <point x="112" y="505"/>
      <point x="207" y="630"/>
      <point x="347" y="630" type="curve" smooth="yes"/>
      <point x="486" y="630"/>
      <point x="581" y="506"/>
      <point x="581" y="346" type="curve" smooth="yes"/>
      <point x="581" y="181"/>
      <point x="451" y="93"/>
      <point x="371" y="36" type="curve"/>
      <point x="373" y="24"/>
      <point x="378" y="12"/>
      <point x="384" y="0" type="curve"/>
      <point x="668" y="0" type="line"/>
      <point x="668" y="117" type="line"/>
      <point x="662" y="121"/>
      <point x="637" y="122"/>
      <point x="633" y="100" type="curve" smooth="yes"/>
      <point x="624" y="46" type="line"/>
      <point x="421" y="46" type="line"/>
      <point x="445" y="40" type="line"/>
      <point x="538" y="101"/>
      <point x="640" y="187"/>
      <point x="640" y="355" type="curve" smooth="yes"/>
      <point x="640" y="539"/>
      <point x="525" y="675"/>
    </contour>
  </outline>
</glyph>
<glyph name="partialdiff" format="1">
  <advance width="527"/>
  <unicode hex="2202"/>
  <outline>
    <contour>
      <point x="237" y="667" type="curve" smooth="yes"/>
      <point x="156" y="667"/>
      <point x="124" y="627"/>
      <point x="124" y="593" type="curve" smooth="yes"/>
      <point x="124" y="568"/>
      <point x="138" y="548"/>
      <point x="171" y="550" type="curve"/>
      <point x="167" y="576"/>
      <point x="185" y="624"/>
      <point x="245" y="624" type="curve" smooth="yes"/>
      <point x="345" y="624"/>
      <point x="412" y="487"/>
      <point x="412" y="326" type="curve" smooth="yes"/>
      <point x="412" y="209"/>
      <point x="367" y="35"/>
      <point x="223" y="35" type="curve" smooth="yes"/>
      <point x="154" y="35"/>
      <point x="104" y="84"/>
      <point x="104" y="192" type="curve" smooth="yes"/>
      <point x="104" y="288"/>
      <point x="143" y="411"/>
      <point x="269" y="411" type="curve" smooth="yes"/>
      <point x="347" y="411"/>
      <point x="400" y="379"/>
      <point x="425" y="346" type="curve"/>
      <point x="422" y="404" type="line"/>
      <point x="390" y="435"/>
      <point x="333" y="458"/>
      <point x="280" y="458" type="curve" smooth="yes"/>
      <point x="110" y="458"/>
      <point x="50" y="309"/>
      <point x="50" y="187" type="curve" smooth="yes"/>
      <point x="50" y="64"/>
      <point x="109" y="-12"/>
      <point x="212" y="-12" type="curve" smooth="yes"/>
      <point x="413" y="-12"/>
      <point x="467" y="196"/>
      <point x="467" y="345" type="curve" smooth="yes"/>
      <point x="467" y="508"/>
      <point x="406" y="667"/>
    </contour>
  </outline>
</glyph>
<glyph name="radical" format="1">
  <advance width="545"/>
  <unicode hex="221A"/>
  <outline>
    <contour>
      <point x="505" y="700" type="line"/>
      <point x="454" y="700" type="line"/>
      <point x="227" y="-58" type="line"/>
      <point x="271" y="-44" type="line"/>
      <point x="130" y="378" type="line"/>
      <point x="33" y="378" type="line"/>
      <point x="29" y="372"/>
      <point x="34" y="336"/>
      <point x="53" y="336" type="curve" smooth="yes"/>
      <point x="124" y="336" type="line"/>
      <point x="71" y="367" type="line"/>
      <point x="217" y="-68" type="line"/>
      <point x="237" y="-72"/>
      <point x="261" y="-70"/>
      <point x="275" y="-64" type="curve"/>
    </contour>
  </outline>
</glyph>
<glyph name="integral" format="1">
  <advance width="833"/>
  <unicode hex="222B"/>
  <outline>
    <contour>
      <point x="207" y="523" type="line"/>
      <point x="215" y="584"/>
      <point x="258" y="613"/>
      <point x="294" y="613" type="curve" smooth="yes"/>
      <point x="331" y="613"/>
      <point x="359" y="584"/>
      <point x="359" y="553" type="curve" smooth="yes"/>
      <point x="359" y="536"/>
      <point x="349" y="521"/>
      <point x="328" y="521" type="curve"/>
      <point x="331" y="546"/>
      <point x="317" y="582"/>
      <point x="285" y="582" type="curve" smooth="yes"/>
      <point x="271" y="582"/>
      <point x="262" y="573"/>
      <point x="260" y="555" type="curve" smooth="yes"/>
      <point x="196" y="22" type="line" smooth="yes"/>
      <point x="189" y="-39"/>
      <point x="145" y="-68"/>
      <point x="109" y="-68" type="curve" smooth="yes"/>
      <point x="72" y="-68"/>
      <point x="44" y="-39"/>
      <point x="44" y="-8" type="curve" smooth="yes"/>
      <point x="44" y="9"/>
      <point x="54" y="24"/>
      <point x="75" y="24" type="curve"/>
      <point x="72" y="-1"/>
      <point x="86" y="-37"/>
      <point x="118" y="-37" type="curve" smooth="yes"/>
      <point x="132" y="-37"/>
      <point x="141" y="-28"/>
      <point x="143" y="-10" type="curve" smooth="yes"/>
    </contour>
  </outline>
</glyph>
<glyph name="dvNG" format="1">
  <advance width="527"/>
  <unicode hex="E010"/>
  <outline>
    <contour>
      <point x="379" y="563" type="line"/>
      <point x="326" y="563" type="line"/>
      <point x="326" y="453" type="line"/>
      <point x="176" y="453" type="line" smooth="yes"/>
      <point x="113" y="453"/>
      <point x="67" y="423"/>
      <point x="67" y="358" type="curve" smooth="yes"/>
      <point x="67" y="288"/>
      <point x="119" y="211"/>
      <point x="186" y="211" type="curve" smooth="yes"/>
      <point x="227" y="211"/>
      <point x="300" y="239"/>
      <point x="341" y="239" type="curve" smooth="yes"/>
      <point x="374" y="239"/>
      <point x="388" y="220"/>
      <point x="388" y="189" type="curve" smooth="yes"/>
      <point x="388" y="135"/>
      <point x="345" y="75"/>
      <point x="242" y="75" type="curve" smooth="yes"/>
      <point x="161" y="75"/>
      <point x="113" y="112"/>
      <point x="54" y="184" type="curve"/>
      <point x="43" y="178"/>
      <point x="30" y="167"/>
      <point x="24" y="158" type="curve"/>
      <point x="96" y="62"/>
      <point x="174" y="25"/>
      <point x="257" y="25" type="curve" smooth="yes"/>
      <point x="358" y="25"/>
      <point x="431" y="80"/>
      <point x="431" y="167" type="curve" smooth="yes"/>
      <point x="431" y="226"/>
      <point x="398" y="293"/>
      <point x="333" y="293" type="curve" smooth="yes"/>
      <point x="290" y="293"/>
      <point x="183" y="263"/>
      <point x="163" y="263" type="curve" smooth="yes"/>
      <point x="146" y="263"/>
      <point x="119" y="286"/>
      <point x="119" y="331" type="curve" smooth="yes"/>
      <point x="119" y="382"/>
      <point x="153" y="399"/>
      <point x="264" y="399" type="curve" smooth="yes"/>
      <point x="310" y="399"/>
      <point x="332" y="396"/>
      <point x="358" y="396" type="curve" smooth="yes"/>
      <point x="369" y="396"/>
      <point x="379" y="418"/>
      <point x="379" y="432" type="curve" smooth="yes"/>
    </contour>
    <contour>
      <point x="537" y="600" type="curve"/>
      <point x="-22" y="600" type="line"/>
      <point x="-22" y="583"/>
      <point x="-15" y="560"/>
      <point x="-7" y="550" type="curve"/>
      <point x="552" y="550" type="line"/>
      <point x="552" y="566"/>
      <point x="546" y="589"/>
    </contour>
    <contour>
      <point x="455" y="292" type="curve" smooth="yes"/>
      <point x="469" y="292"/>
      <point x="508" y="328"/>
      <point x="508" y="337" type="curve" smooth="yes"/>
      <point x="508" y="350"/>
      <point x="472" y="391"/>
      <point x="462" y="391" type="curve" smooth="yes"/>
      <point x="450" y="391"/>
      <point x="409" y="357"/>
      <point x="409" y="344" type="curve" smooth="yes"/>
      <point x="409" y="333"/>
      <point x="444" y="292"/>
    </contour>
    <contour>
      <point x="133" y="-23" type="curve"/>
      <point x="131" y="-43"/>
      <point x="133" y="-64"/>
      <point x="140" y="-80" type="curve"/>
      <point x="158" y="-77"/>
      <point x="181" y="-75"/>
      <point x="203" y="-75" type="curve" smooth="yes"/>
      <point x="227" y="-75"/>
      <point x="247" y="-78"/>
      <point x="265" y="-83" type="curve" smooth="yes"/>
      <point x="322" y="-99"/>
      <point x="381" y="-162"/>
      <point x="410" y="-199" type="curve"/>
      <point x="422" y="-192"/>
      <point x="429" y="-186"/>
      <point x="436" y="-177" type="curve"/>
      <point x="403" y="-136"/>
      <point x="338" y="-59"/>
      <point x="259" y="-30" type="curve" smooth="yes"/>
      <point x="243" y="-24"/>
      <point x="211" y="-19"/>
      <point x="186" y="-19" type="curve" smooth="yes"/>
      <point x="163" y="-19"/>
      <point x="148" y="-21"/>
    </contour>
  </outline>
</glyph>
<glyph name="dvTT" format="1">
  <advance width="493"/>
  <unicode hex="E016"/>
  <outline>
    <contour>
      <point x="502" y="600" type="curve"/>
      <point x="-25" y="600" type="line"/>
      <point x="-25" y="583"/>
      <point x="-18" y="560"/>
      <point x="-10" y="550" type="curve"/>
      <point x="517" y="550" type="line"/>
      <point x="517" y="566"/>
      <point x="511" y="589"/>
    </contour>
    <contour>
      <point x="326" y="563" type="line"/>
      <point x="326" y="427" type="line"/>
      <point x="309" y="430"/>
      <point x="293" y="431"/>
      <point x="277" y="431" type="curve" smooth="yes"/>
      <point x="135" y="431"/>
      <point x="41" y="357"/>
      <point x="41" y="235" type="curve" smooth="yes"/>
      <point x="41" y="107"/>
      <point x="146" y="25"/>
      <point x="274" y="25" type="curve" smooth="yes"/>
      <point x="376" y="25"/>
      <point x="448" y="77"/>
      <point x="483" y="128" type="curve"/>
      <point x="472" y="144"/>
      <point x="458" y="159"/>
      <point x="440" y="169" type="curve"/>
      <point x="402" y="115"/>
      <point x="344" y="75"/>
      <point x="257" y="75" type="curve" smooth="yes"/>
      <point x="173" y="75"/>
      <point x="95" y="125"/>
      <point x="95" y="220" type="curve" smooth="yes"/>
      <point x="95" y="330"/>
      <point x="178" y="380"/>
      <point x="302" y="380" type="curve" smooth="yes"/>
      <point x="325" y="380"/>
      <point x="349" y="375"/>
      <point x="355" y="375" type="curve" smooth="yes"/>
      <point x="364" y="375"/>
      <point x="379" y="394"/>
      <point x="379" y="409" type="curve" smooth="yes"/>
      <point x="379" y="563" type="line"/>
    </contour>
    <contour>
      <point x="174" y="-23" type="curve"/>
      <point x="172" y="-43"/>
      <point x="174" y="-64"/>
      <point x="181" y="-80" type="curve"/>
      <point x="199" y="-77"/>
      <point x="222" y="-75"/>
      <point x="244" y="-75" type="curve" smooth="yes"/>
      <point x="268" y="-75"/>
      <point x="288" y="-78"/>
      <point x="306" y="-83" type="curve" smooth="yes"/>
      <point x="363" y="-99"/>
      <point x="422" y="-162"/>
      <point x="451" y="-199" type="curve"/>
      <point x="463" y="-192"/>
      <point x="470" y="-186"/>
      <point x="477" y="-177" type="curve"/>
      <point x="444" y="-136"/>
      <point x="379" y="-59"/>
      <point x="300" y="-30" type="curve" smooth="yes"/>
      <point x="284" y="-24"/>
      <point x="252" y="-19"/>
      <point x="227" y="-19" type="curve" smooth="yes"/>
      <point x="204" y="-19"/>
      <point x="189" y="-21"/>
    </contour>
  </outline>
</glyph>
<glyph name="dvTTH" format="1">
  <advance width="554"/>
  <unicode hex="E017"/>
  <outline>
    <contour>
      <point x="551" y="600" type="curve"/>
      <point x="-25" y="600" type="line"/>
      <point x="-25" y="583"/>
      <point x="-18" y="560"/>
      <point x="-10" y="550" type="curve"/>
      <point x="566" y="550" type="line"/>
      <point x="566" y="566"/>
      <point x="560" y="589"/>
    </contour>
    <contour>
      <point x="311" y="563" type="line"/>
      <point x="311" y="420" type="line"/>
      <point x="364" y="413" type="line"/>
      <point x="364" y="563" type="line"/>
    </contour>
    <contour>
      <point x="284" y="434" type="curve" smooth="yes"/>
      <point x="128" y="434"/>
      <point x="40" y="364"/>
      <point x="40" y="245" type="curve" smooth="yes"/>
      <point x="40" y="120"/>
      <point x="144" y="29"/>
      <point x="275" y="29" type="curve" smooth="yes"/>
      <point x="387" y="29"/>
      <point x="514" y="98"/>
      <point x="514" y="246" type="curve" smooth="yes"/>
      <point x="514" y="409"/>
      <point x="368" y="434"/>
    </contour>
    <contour>
      <point x="305" y="386" type="curve" smooth="yes"/>
      <point x="375" y="386"/>
      <point x="465" y="365"/>
      <point x="465" y="259" type="curve" smooth="yes"/>
      <point x="465" y="154"/>
      <point x="367" y="79"/>
      <point x="256" y="79" type="curve" smooth="yes"/>
      <point x="165" y="79"/>
      <point x="96" y="131"/>
      <point x="96" y="224" type="curve" smooth="yes"/>
      <point x="96" y="355"/>
      <point x="218" y="386"/>
    </contour>
    <contour>
      <point x="200" y="-23" type="curve"/>
      <point x="198" y="-43"/>
      <point x="200" y="-64"/>
      <point x="207" y="-80" type="curve"/>
      <point x="225" y="-77"/>
      <point x="248" y="-75"/>
      <point x="270" y="-75" type="curve" smooth="yes"/>
      <point x="294" y="-75"/>
      <point x="314" y="-78"/>
      <point x="332" y="-83" type="curve" smooth="yes"/>
      <point x="389" y="-99"/>
      <point x="448" y="-162"/>
      <point x="477" y="-199" type="curve"/>
      <point x="489" y="-192"/>
      <point x="496" y="-186"/>
      <point x="503" y="-177" type="curve"/>
      <point x="470" y="-136"/>
      <point x="405" y="-59"/>
      <point x="326" y="-30" type="curve" smooth="yes"/>
      <point x="310" y="-24"/>
      <point x="278" y="-19"/>
      <point x="253" y="-19" type="curve" smooth="yes"/>
      <point x="230" y="-19"/>
      <point x="215" y="-21"/>
    </contour>
  </outline>
</glyph>
<glyph name="dvDD" format="1">
  <advance width="461"/>
  <unicode hex="E018"/>
  <outline>
    <contour>
      <point x="465" y="600" type="curve"/>
      <point x="-11" y="600" type="line"/>
      <point x="-11" y="583"/>
      <point x="-4" y="560"/>
      <point x="4" y="550" type="curve"/>
      <point x="480" y="550" type="line"/>
      <point x="480" y="566"/>
      <point x="474" y="589"/>
    </contour>
    <contour>
      <point x="381" y="563" type="line"/>
      <point x="328" y="563" type="line"/>
      <point x="328" y="453" type="line"/>
      <point x="204" y="453" type="line" smooth="yes"/>
      <point x="119" y="453"/>
      <point x="69" y="424"/>
      <point x="69" y="358" type="curve" smooth="yes"/>
      <point x="69" y="289"/>
      <point x="121" y="211"/>
      <point x="188" y="211" type="curve" smooth="yes"/>
      <point x="229" y="211"/>
      <point x="302" y="239"/>
      <point x="343" y="239" type="curve" smooth="yes"/>
      <point x="376" y="239"/>
      <point x="391" y="221"/>
      <point x="391" y="190" type="curve" smooth="yes"/>
      <point x="391" y="136"/>
      <point x="347" y="75"/>
      <point x="244" y="75" type="curve" smooth="yes"/>
      <point x="161" y="75"/>
      <point x="112" y="116"/>
      <point x="56" y="184" type="curve"/>
      <point x="45" y="178"/>
      <point x="32" y="167"/>
      <point x="26" y="158" type="curve"/>
      <point x="96" y="65"/>
      <point x="174" y="25"/>
      <point x="259" y="25" type="curve" smooth="yes"/>
      <point x="360" y="25"/>
      <point x="433" y="81"/>
      <point x="433" y="168" type="curve" smooth="yes"/>
      <point x="433" y="227"/>
      <point x="400" y="293"/>
      <point x="335" y="293" type="curve" smooth="yes"/>
      <point x="292" y="293"/>
      <point x="185" y="263"/>
      <point x="168" y="263" type="curve" smooth="yes"/>
      <point x="148" y="263"/>
      <point x="123" y="287"/>
      <point x="123" y="331" type="curve" smooth="yes"/>
      <point x="123" y="382"/>
      <point x="148" y="402"/>
      <point x="260" y="402" type="curve" smooth="yes"/>
      <point x="306" y="402"/>
      <point x="328" y="399"/>
      <point x="354" y="399" type="curve" smooth="yes"/>
      <point x="365" y="399"/>
      <point x="381" y="419"/>
      <point x="381" y="432" type="curve" smooth="yes"/>
    </contour>
    <contour>
      <point x="168" y="-23" type="curve"/>
      <point x="166" y="-43"/>
      <point x="168" y="-64"/>
      <point x="175" y="-80" type="curve"/>
      <point x="193" y="-77"/>
      <point x="216" y="-75"/>
      <point x="238" y="-75" type="curve" smooth="yes"/>
      <point x="262" y="-75"/>
      <point x="282" y="-78"/>
      <point x="300" y="-83" type="curve" smooth="yes"/>
      <point x="357" y="-99"/>
      <point x="416" y="-162"/>
      <point x="445" y="-199" type="curve"/>
      <point x="457" y="-192"/>
      <point x="464" y="-186"/>
      <point x="471" y="-177" type="curve"/>
      <point x="438" y="-136"/>
      <point x="373" y="-59"/>
      <point x="294" y="-30" type="curve" smooth="yes"/>
      <point x="278" y="-24"/>
      <point x="246" y="-19"/>
      <point x="221" y="-19" type="curve" smooth="yes"/>
      <point x="198" y="-19"/>
      <point x="183" y="-21"/>
    </contour>
  </outline>
</glyph>
<glyph name="dvDDH" format="1">
  <advance width="539"/>
  <unicode hex="E019"/>
  <outline>
    <contour>
      <point x="545" y="600" type="curve"/>
      <point x="-29" y="600" type="line"/>
      <point x="-29" y="583"/>
      <point x="-22" y="560"/>
      <point x="-14" y="550" type="curve"/>
      <point x="560" y="550" type="line"/>
      <point x="560" y="566"/>
      <point x="554" y="589"/>
    </contour>
    <contour>
      <point x="342" y="563" type="line"/>
      <point x="342" y="449" type="line"/>
      <point x="323" y="451"/>
      <point x="308" y="453"/>
      <point x="283" y="453" type="curve" smooth="yes"/>
      <point x="131" y="453"/>
      <point x="46" y="378"/>
      <point x="46" y="266" type="curve" smooth="yes"/>
      <point x="46" y="153"/>
      <point x="132" y="50"/>
      <point x="296" y="50" type="curve" smooth="yes"/>
      <point x="438" y="50"/>
      <point x="499" y="127"/>
      <point x="499" y="198" type="curve" smooth="yes"/>
      <point x="499" y="275"/>
      <point x="428" y="305"/>
      <point x="378" y="305" type="curve" smooth="yes"/>
      <point x="312" y="305"/>
      <point x="279" y="252"/>
      <point x="279" y="199" type="curve" smooth="yes"/>
      <point x="279" y="165"/>
      <point x="293" y="128"/>
      <point x="323" y="92" type="curve"/>
      <point x="357" y="99" type="line"/>
      <point x="341" y="121"/>
      <point x="324" y="149"/>
      <point x="324" y="183" type="curve" smooth="yes"/>
      <point x="324" y="225"/>
      <point x="350" y="257"/>
      <point x="392" y="257" type="curve" smooth="yes"/>
      <point x="416" y="257"/>
      <point x="449" y="247"/>
      <point x="449" y="207" type="curve" smooth="yes"/>
      <point x="449" y="133"/>
      <point x="376" y="94"/>
      <point x="271" y="94" type="curve" smooth="yes"/>
      <point x="163" y="94"/>
      <point x="101" y="162"/>
      <point x="101" y="251" type="curve" smooth="yes"/>
      <point x="101" y="334"/>
      <point x="154" y="404"/>
      <point x="309" y="404" type="curve" smooth="yes"/>
      <point x="335" y="404"/>
      <point x="364" y="397"/>
      <point x="372" y="397" type="curve" smooth="yes"/>
      <point x="380" y="397"/>
      <point x="395" y="417"/>
      <point x="395" y="428" type="curve" smooth="yes"/>
      <point x="395" y="563" type="line"/>
    </contour>
    <contour>
      <point x="215" y="-23" type="curve"/>
      <point x="213" y="-43"/>
      <point x="215" y="-64"/>
      <point x="222" y="-80" type="curve"/>
      <point x="240" y="-77"/>
      <point x="263" y="-75"/>
      <point x="285" y="-75" type="curve" smooth="yes"/>
      <point x="309" y="-75"/>
      <point x="329" y="-78"/>
      <point x="347" y="-83" type="curve" smooth="yes"/>
      <point x="404" y="-99"/>
      <point x="463" y="-162"/>
      <point x="492" y="-199" type="curve"/>
      <point x="504" y="-192"/>
      <point x="511" y="-186"/>
      <point x="518" y="-177" type="curve"/>
      <point x="485" y="-136"/>
      <point x="420" y="-59"/>
      <point x="341" y="-30" type="curve" smooth="yes"/>
      <point x="325" y="-24"/>
      <point x="293" y="-19"/>
      <point x="268" y="-19" type="curve" smooth="yes"/>
      <point x="245" y="-19"/>
      <point x="230" y="-21"/>
    </contour>
  </outline>
</glyph>
<glyph name="dvB" format="1">
  <advance width="341"/>
  <unicode hex="E023"/>
  <outline>
    <contour>
      <point x="348" y="600" type="curve"/>
      <point x="-25" y="600" type="line"/>
      <point x="-25" y="583"/>
      <point x="-18" y="560"/>
      <point x="-10" y="550" type="curve"/>
      <point x="363" y="550" type="line"/>
      <point x="363" y="566"/>
      <point x="357" y="589"/>
    </contour>
    <contour>
      <point x="232" y="453" type="curve" smooth="yes"/>
      <point x="145" y="453"/>
      <point x="57" y="403"/>
      <point x="57" y="297" type="curve" smooth="yes"/>
      <point x="57" y="202"/>
      <point x="125" y="107"/>
      <point x="243" y="107" type="curve" smooth="yes"/>
      <point x="311" y="107"/>
      <point x="372" y="142"/>
      <point x="411" y="194" type="curve"/>
      <point x="391" y="249" type="line"/>
      <point x="360" y="195"/>
      <point x="302" y="149"/>
      <point x="222" y="149" type="curve" smooth="yes"/>
      <point x="170" y="149"/>
      <point x="111" y="186"/>
      <point x="111" y="268" type="curve" smooth="yes"/>
      <point x="111" y="353"/>
      <point x="168" y="403"/>
      <point x="250" y="403" type="curve" smooth="yes"/>
      <point x="299" y="403"/>
      <point x="319" y="392"/>
      <point x="345" y="376" type="curve"/>
      <point x="354" y="410" type="line"/>
      <point x="322" y="441"/>
      <point x="272" y="453"/>
    </contour>
    <contour>
      <point x="170" y="392" type="line"/>
      <point x="134" y="364" type="line"/>
      <point x="328" y="173" type="line"/>
      <point x="364" y="200" type="line"/>
    </contour>
  </outline>
</glyph>
<glyph name="dvR" format="1">
  <advance width="317"/>
  <unicode hex="E027"/>
  <outline>
    <contour>
      <point x="327" y="600" type="curve"/>
      <point x="-25" y="600" type="line"/>
      <point x="-25" y="583"/>
      <point x="-18" y="560"/>
      <point x="-10" y="550" type="curve"/>
      <point x="342" y="550" type="line"/>
      <point x="342" y="566"/>
      <point x="336" y="589"/>
    </contour>
    <contour>
      <point x="205" y="562" type="curve"/>
      <point x="141" y="562" type="line"/>
      <point x="159" y="524"/>
      <point x="179" y="464"/>
      <point x="179" y="408" type="curve" smooth="yes"/>
      <point x="179" y="383"/>
      <point x="175" y="359"/>
      <point x="165" y="338" type="curve"/>
      <point x="148" y="344"/>
      <point x="127" y="349"/>
      <point x="101" y="349" type="curve" smooth="yes"/>
      <point x="62" y="349"/>
      <point x="35" y="327"/>
      <point x="35" y="291" type="curve" smooth="yes"/>
      <point x="35" y="196"/>
      <point x="243" y="-11"/>
      <point x="260" y="-27" type="curve"/>
      <point x="271" y="-21"/>
      <point x="295" y="-5"/>
      <point x="305" y="8" type="curve"/>
      <point x="248" y="54"/>
      <point x="148" y="153"/>
      <point x="92" y="243" type="curve"/>
      <point x="191" y="247"/>
      <point x="224" y="337"/>
      <point x="224" y="427" type="curve" smooth="yes"/>
      <point x="224" y="477"/>
      <point x="215" y="527"/>
    </contour>
    <contour>
      <point x="145" y="-41" type="curve"/>
      <point x="143" y="-61"/>
      <point x="145" y="-82"/>
      <point x="152" y="-98" type="curve"/>
      <point x="170" y="-95"/>
      <point x="193" y="-93"/>
      <point x="215" y="-93" type="curve" smooth="yes"/>
      <point x="239" y="-93"/>
      <point x="259" y="-96"/>
      <point x="277" y="-101" type="curve" smooth="yes"/>
      <point x="334" y="-117"/>
      <point x="393" y="-180"/>
      <point x="422" y="-217" type="curve"/>
      <point x="434" y="-210"/>
      <point x="441" y="-204"/>
      <point x="448" y="-195" type="curve"/>
      <point x="415" y="-154"/>
      <point x="350" y="-77"/>
      <point x="271" y="-48" type="curve" smooth="yes"/>
      <point x="255" y="-42"/>
      <point x="223" y="-37"/>
      <point x="198" y="-37" type="curve" smooth="yes"/>
      <point x="175" y="-37"/>
      <point x="160" y="-39"/>
    </contour>
  </outline>
</glyph>
<glyph name="dvV" format="1">
  <advance width="314"/>
  <unicode hex="E02A"/>
  <outline>
    <contour>
      <point x="217" y="453" type="curve" smooth="yes"/>
      <point x="129" y="453"/>
      <point x="41" y="403"/>
      <point x="41" y="295" type="curve" smooth="yes"/>
      <point x="41" y="201"/>
      <point x="109" y="108"/>
      <point x="231" y="108" type="curve" smooth="yes"/>
      <point x="318" y="108"/>
      <point x="378" y="155"/>
      <point x="413" y="200" type="curve"/>
      <point x="386" y="264" type="line"/>
      <point x="351" y="193"/>
      <point x="277" y="152"/>
      <point x="212" y="152" type="curve" smooth="yes"/>
      <point x="165" y="152"/>
      <point x="99" y="174"/>
      <point x="99" y="267" type="curve" smooth="yes"/>
      <point x="99" y="365"/>
      <point x="171" y="401"/>
      <point x="239" y="401" type="curve" smooth="yes"/>
      <point x="265" y="401"/>
      <point x="288" y="396"/>
      <point x="322" y="375" type="curve"/>
      <point x="337" y="411" type="line"/>
      <point x="306" y="436"/>
      <point x="269" y="453"/>
    </contour>
    <contour>
      <point x="325" y="600" type="curve"/>
      <point x="-25" y="600" type="line"/>
      <point x="-25" y="583"/>
      <point x="-18" y="560"/>
      <point x="-10" y="550" type="curve"/>
      <point x="340" y="550" type="line"/>
      <point x="340" y="566"/>
      <point x="334" y="589"/>
    </contour>
  </outline>
</glyph>
<glyph name="dvH" format="1">
  <advance width="427"/>
  <unicode hex="E02E"/>
  <outline>
    <contour>
      <point x="435" y="600" type="curve"/>
      <point x="-25" y="600" type="line"/>
      <point x="-25" y="583"/>
      <point x="-18" y="560"/>
      <point x="-10" y="550" type="curve"/>
      <point x="450" y="550" type="line"/>
      <point x="450" y="566"/>
      <point x="444" y="589"/>
    </contour>
    <contour>
      <point x="368" y="564" type="line"/>
      <point x="314" y="564" type="line"/>
      <point x="314" y="451" type="line"/>
      <point x="199" y="451" type="line" smooth="yes"/>
      <point x="90" y="451"/>
      <point x="58" y="411"/>
      <point x="58" y="365" type="curve" smooth="yes"/>
      <point x="58" y="312"/>
      <point x="97" y="275"/>
      <point x="130" y="246" type="curve"/>
      <point x="164" y="265" type="line"/>
      <point x="127" y="291"/>
      <point x="112" y="324"/>
      <point x="112" y="349" type="curve" smooth="yes"/>
      <point x="112" y="382"/>
      <point x="126" y="400"/>
      <point x="231" y="400" type="curve" smooth="yes"/>
      <point x="345" y="400" type="line" smooth="yes"/>
      <point x="357" y="400"/>
      <point x="368" y="418"/>
      <point x="368" y="430" type="curve" smooth="yes"/>
    </contour>
    <contour>
      <point x="257" y="298" type="line"/>
      <point x="167" y="297"/>
      <point x="74" y="242"/>
      <point x="74" y="145" type="curve" smooth="yes"/>
      <point x="74" y="11"/>
      <point x="258" y="-67"/>
      <point x="384" y="-102" type="curve"/>
      <point x="392" y="-94"/>
      <point x="395" y="-79"/>
      <point x="399" y="-64" type="curve"/>
      <point x="269" y="-27"/>
      <point x="131" y="29"/>
      <point x="131" y="134" type="curve" smooth="yes"/>
      <point x="131" y="197"/>
      <point x="189" y="244"/>
      <point x="275" y="244" type="curve" smooth="yes"/>
      <point x="465" y="244" type="line"/>
      <point x="465" y="299" type="line"/>
    </contour>
  </outline>
</glyph>
<glyph name="dvJ_NY" format="1">
  <advance width="404"/>
  <unicode hex="E02F"/>
  <outline>
    <contour>
      <point x="462" y="424" type="line"/>
      <point x="121" y="424" type="line"/>
      <point x="118" y="423"/>
      <point x="98" y="404"/>
      <point x="91" y="392" type="curve"/>
      <point x="168" y="336"/>
      <point x="248" y="259"/>
      <point x="248" y="185" type="curve" smooth="yes"/>
      <point x="248" y="143"/>
      <point x="221" y="89"/>
      <point x="130" y="87" type="curve"/>
      <point x="108" y="125"/>
      <point x="85" y="160"/>
      <point x="58" y="160" type="curve" smooth="yes"/>
      <point x="37" y="160"/>
      <point x="-3" y="139"/>
      <point x="-3" y="108" type="curve" smooth="yes"/>
      <point x="-3" y="85"/>
      <point x="42" y="46"/>
      <point x="106" y="36" type="curve"/>
      <point x="140" y="-20"/>
      <point x="170" y="-81"/>
      <point x="194" y="-130" type="curve"/>
      <point x="215" y="-122"/>
      <point x="234" y="-106"/>
      <point x="243" y="-94" type="curve"/>
      <point x="227" y="-65"/>
      <point x="184" y="-7"/>
      <point x="149" y="33" type="curve"/>
      <point x="233" y="37"/>
      <point x="299" y="87"/>
      <point x="299" y="171" type="curve" smooth="yes"/>
      <point x="299" y="232"/>
      <point x="263" y="305"/>
      <point x="176" y="370" type="curve"/>
      <point x="462" y="370" type="line"/>
    </contour>
    <contour>
      <point x="415" y="600" type="curve"/>
      <point x="-25" y="600" type="line"/>
      <point x="-25" y="583"/>
      <point x="-18" y="560"/>
      <point x="-10" y="550" type="curve"/>
      <point x="430" y="550" type="line"/>
      <point x="430" y="566"/>
      <point x="424" y="589"/>
    </contour>
  </outline>
</glyph>
<glyph name="dvNY_R" format="1">
  <advance width="500"/>
  <unicode hex="E037"/>
  <outline>
    <contour>
      <point x="451" y="312" type="curve" smooth="yes"/>
      <point x="451" y="421"/>
      <point x="368" y="470"/>
      <point x="284" y="470" type="curve" smooth="yes"/>
      <point x="222" y="470"/>
      <point x="176" y="443"/>
      <point x="149" y="420" type="curve"/>
      <point x="157" y="400"/>
      <point x="169" y="381"/>
      <point x="184" y="368" type="curve"/>
      <point x="214" y="391"/>
      <point x="254" y="419"/>
      <point x="306" y="419" type="curve" smooth="yes"/>
      <point x="366" y="419"/>
      <point x="397" y="381"/>
      <point x="397" y="322" type="curve" smooth="yes"/>
      <point x="397" y="260"/>
      <point x="356" y="223"/>
      <point x="283" y="223" type="curve" smooth="yes"/>
      <point x="200" y="223"/>
      <point x="119" y="274"/>
      <point x="30" y="398" type="curve"/>
      <point x="17" y="392"/>
      <point x="9" y="387"/>
      <point x="2" y="378" type="curve"/>
      <point x="48" y="296"/>
      <point x="159" y="172"/>
      <point x="299" y="172" type="curve" smooth="yes"/>
      <point x="393" y="172"/>
      <point x="451" y="227"/>
    </contour>
    <contour>
      <point x="510" y="600" type="curve"/>
      <point x="-13" y="600" type="line"/>
      <point x="-13" y="583"/>
      <point x="-6" y="560"/>
      <point x="2" y="550" type="curve"/>
      <point x="525" y="550" type="line"/>
      <point x="525" y="566"/>
      <point x="519" y="589"/>
    </contour>
    <contour>
      <point x="566" y="372" type="line"/>
      <point x="553" y="363"/>
      <point x="529" y="352"/>
      <point x="505" y="344" type="curve" smooth="yes"/>
      <point x="481" y="336"/>
      <point x="457" y="330"/>
      <point x="440" y="328" type="curve"/>
      <point x="438" y="289" type="line"/>
      <point x="447" y="287"/>
      <point x="456" y="287"/>
      <point x="465" y="287" type="curve" smooth="yes"/>
      <point x="490" y="287"/>
      <point x="546" y="301"/>
      <point x="566" y="308" type="curve"/>
    </contour>
    <contour>
      <point x="573" y="255" type="line"/>
      <point x="223" y="58" type="line"/>
      <point x="230" y="38"/>
      <point x="241" y="20"/>
      <point x="254" y="8" type="curve"/>
      <point x="586" y="218" type="line"/>
    </contour>
  </outline>
</glyph>
<glyph name="dvDDH_R" format="1">
  <advance width="539"/>
  <unicode hex="E03B"/>
  <outline>
    <contour>
      <point x="549" y="600" type="curve"/>
      <point x="-25" y="600" type="line"/>
      <point x="-25" y="583"/>
      <point x="-18" y="560"/>
      <point x="-10" y="550" type="curve"/>
      <point x="564" y="550" type="line"/>
      <point x="564" y="566"/>
      <point x="558" y="589"/>
    </contour>
    <contour>
      <point x="346" y="563" type="line"/>
      <point x="346" y="449" type="line"/>
      <point x="327" y="451"/>
      <point x="312" y="453"/>
      <point x="287" y="453" type="curve" smooth="yes"/>
      <point x="135" y="453"/>
      <point x="50" y="378"/>
      <point x="50" y="266" type="curve" smooth="yes"/>
      <point x="50" y="153"/>
      <point x="136" y="50"/>
      <point x="300" y="50" type="curve" smooth="yes"/>
      <point x="442" y="50"/>
      <point x="503" y="127"/>
      <point x="503" y="198" type="curve" smooth="yes"/>
      <point x="503" y="275"/>
      <point x="432" y="305"/>
      <point x="382" y="305" type="curve" smooth="yes"/>
      <point x="316" y="305"/>
      <point x="283" y="252"/>
      <point x="283" y="199" type="curve" smooth="yes"/>
      <point x="283" y="165"/>
      <point x="297" y="128"/>
      <point x="327" y="92" type="curve"/>
      <point x="361" y="99" type="line"/>
      <point x="345" y="121"/>
      <point x="328" y="149"/>
      <point x="328" y="183" type="curve" smooth="yes"/>
      <point x="328" y="225"/>
      <point x="354" y="257"/>
      <point x="396" y="257" type="curve" smooth="yes"/>
      <point x="420" y="257"/>
      <point x="453" y="247"/>
      <point x="453" y="207" type="curve" smooth="yes"/>
      <point x="453" y="133"/>
      <point x="380" y="94"/>
      <point x="275" y="94" type="curve" smooth="yes"/>
      <point x="167" y="94"/>
      <point x="105" y="162"/>
      <point x="105" y="251" type="curve" smooth="yes"/>
      <point x="105" y="334"/>
      <point x="158" y="404"/>
      <point x="313" y="404" type="curve" smooth="yes"/>
      <point x="339" y="404"/>
      <point x="368" y="397"/>
      <point x="376" y="397" type="curve" smooth="yes"/>
      <point x="384" y="397"/>
      <point x="399" y="417"/>
      <point x="399" y="428" type="curve" smooth="yes"/>
      <point x="399" y="563" type="line"/>
    </contour>
    <contour>
      <point x="303" y="65" type="line"/>
      <point x="104" y="-63" type="line"/>
      <point x="112" y="-80"/>
      <point x="128" y="-100"/>
      <point x="143" y="-111" type="curve"/>
      <point x="308" y="10" type="line"/>
      <point x="449" y="-101" type="line"/>
      <point x="461" y="-95"/>
      <point x="477" y="-79"/>
      <point x="482" y="-68" type="curve"/>
    </contour>
    <contour>
      <point x="244" y="-86" type="curve"/>
      <point x="242" y="-106"/>
      <point x="244" y="-127"/>
      <point x="251" y="-143" type="curve"/>
      <point x="269" y="-140"/>
      <point x="292" y="-138"/>
      <point x="314" y="-138" type="curve" smooth="yes"/>
      <point x="338" y="-138"/>
      <point x="358" y="-141"/>
      <point x="376" y="-146" type="curve" smooth="yes"/>
      <point x="433" y="-162"/>
      <point x="492" y="-225"/>
      <point x="521" y="-262" type="curve"/>
      <point x="533" y="-255"/>
      <point x="540" y="-249"/>
      <point x="547" y="-240" type="curve"/>
      <point x="514" y="-199"/>
      <point x="449" y="-122"/>
      <point x="370" y="-93" type="curve" smooth="yes"/>
      <point x="354" y="-87"/>
      <point x="322" y="-82"/>
      <point x="297" y="-82" type="curve" smooth="yes"/>
      <point x="274" y="-82"/>
      <point x="259" y="-84"/>
    </contour>
  </outline>
</glyph>
<glyph name="dvV_R" format="1">
  <advance width="317"/>
  <unicode hex="E048"/>
  <outline>
    <contour>
      <point x="326" y="600" type="curve"/>
      <point x="-25" y="600" type="line"/>
      <point x="-25" y="583"/>
      <point x="-18" y="560"/>
      <point x="-10" y="550" type="curve"/>
      <point x="341" y="550" type="line"/>
      <point x="341" y="566"/>
      <point x="335" y="589"/>
    </contour>
    <contour>
      <point x="217" y="453" type="curve" smooth="yes"/>
      <point x="129" y="453"/>
      <point x="41" y="403"/>
      <point x="41" y="295" type="curve" smooth="yes"/>
      <point x="41" y="206"/>
      <point x="101" y="118"/>
      <point x="211" y="108" type="curve"/>
      <point x="64" y="30" type="line"/>
      <point x="71" y="10"/>
      <point x="82" y="-8"/>
      <point x="95" y="-20" type="curve"/>
      <point x="403" y="175" type="line"/>
      <point x="386" y="264" type="line"/>
      <point x="351" y="193"/>
      <point x="277" y="152"/>
      <point x="212" y="152" type="curve" smooth="yes"/>
      <point x="165" y="152"/>
      <point x="99" y="174"/>
      <point x="99" y="267" type="curve" smooth="yes"/>
      <point x="99" y="365"/>
      <point x="171" y="401"/>
      <point x="239" y="401" type="curve" smooth="yes"/>
      <point x="265" y="401"/>
      <point x="288" y="396"/>
      <point x="322" y="375" type="curve"/>
      <point x="337" y="411" type="line"/>
      <point x="306" y="436"/>
      <point x="269" y="453"/>
    </contour>
  </outline>
</glyph>
<glyph name="dvKH_RA" format="1">
  <advance width="735"/>
  <unicode hex="E04A"/>
  <outline>
    <contour>
      <point x="127" y="562" type="line"/>
      <point x="148" y="521"/>
      <point x="166" y="474"/>
      <point x="166" y="416" type="curve" smooth="yes"/>
      <point x="166" y="390"/>
      <point x="163" y="349"/>
      <point x="153" y="318" type="curve"/>
      <point x="136" y="323"/>
      <point x="116" y="328"/>
      <point x="96" y="328" type="curve" smooth="yes"/>
      <point x="49" y="328"/>
      <point x="27" y="305"/>
      <point x="27" y="272" type="curve" smooth="yes"/>
      <point x="27" y="166"/>
      <point x="165" y="58"/>
      <point x="349" y="49" type="curve"/>
      <point x="57" y="-33" type="line"/>
      <point x="60" y="-53"/>
      <point x="69" y="-74"/>
      <point x="79" y="-84" type="curve"/>
      <point x="580" y="77" type="line"/>
      <point x="580" y="134" type="line"/>
      <point x="511" y="104"/>
      <point x="444" y="95"/>
      <point x="382" y="95" type="curve" smooth="yes"/>
      <point x="250" y="95"/>
      <point x="141" y="150"/>
      <point x="87" y="222" type="curve"/>
      <point x="182" y="230"/>
      <point x="211" y="331"/>
      <point x="211" y="437" type="curve" smooth="yes"/>
      <point x="211" y="489"/>
      <point x="202" y="527"/>
      <point x="192" y="562" type="curve"/>
    </contour>
    <contour>
      <point x="438" y="452" type="curve" smooth="yes"/>
      <point x="358" y="452"/>
      <point x="274" y="406"/>
      <point x="274" y="308" type="curve" smooth="yes"/>
      <point x="274" y="223"/>
      <point x="337" y="143"/>
      <point x="449" y="143" type="curve" smooth="yes"/>
      <point x="506" y="143"/>
      <point x="541" y="163"/>
      <point x="575" y="193" type="curve"/>
      <point x="575" y="236" type="line"/>
      <point x="575" y="278" type="line"/>
      <point x="546" y="220"/>
      <point x="485" y="193"/>
      <point x="434" y="193" type="curve" smooth="yes"/>
      <point x="394" y="193"/>
      <point x="330" y="214"/>
      <point x="330" y="290" type="curve" smooth="yes"/>
      <point x="330" y="373"/>
      <point x="393" y="402"/>
      <point x="454" y="402" type="curve" smooth="yes"/>
      <point x="506" y="402"/>
      <point x="543" y="381"/>
      <point x="570" y="357" type="curve"/>
      <point x="570" y="403" type="line"/>
      <point x="540" y="427"/>
      <point x="497" y="452"/>
    </contour>
    <contour>
      <point x="562" y="572" type="line"/>
      <point x="562" y="8" type="line" smooth="yes"/>
      <point x="562" y="-2"/>
      <point x="584" y="-20"/>
      <point x="615" y="-20" type="curve"/>
      <point x="615" y="570" type="line"/>
    </contour>
    <contour>
      <point x="745" y="600" type="curve"/>
      <point x="-25" y="600" type="line"/>
      <point x="-25" y="583"/>
      <point x="-18" y="560"/>
      <point x="-10" y="550" type="curve"/>
      <point x="760" y="550" type="line"/>
      <point x="760" y="566"/>
      <point x="754" y="589"/>
    </contour>
  </outline>
</glyph>
<glyph name="dvGH_RA" format="1">
  <advance width="575"/>
  <unicode hex="E04C"/>
  <outline>
    <contour>
      <point x="455" y="572" type="line"/>
      <point x="402" y="572" type="line"/>
      <point x="402" y="8" type="line" smooth="yes"/>
      <point x="402" y="-2"/>
      <point x="424" y="-20"/>
      <point x="455" y="-20" type="curve"/>
    </contour>
    <contour>
      <point x="585" y="600" type="curve"/>
      <point x="-25" y="600" type="line"/>
      <point x="-25" y="583"/>
      <point x="-18" y="560"/>
      <point x="-10" y="550" type="curve"/>
      <point x="600" y="550" type="line"/>
      <point x="600" y="566"/>
      <point x="594" y="589"/>
    </contour>
    <contour>
      <point x="63" y="561" type="line"/>
      <point x="45" y="544"/>
      <point x="33" y="520"/>
      <point x="33" y="483" type="curve" smooth="yes"/>
      <point x="33" y="432"/>
      <point x="55" y="382"/>
      <point x="127" y="352" type="curve"/>
      <point x="103" y="328"/>
      <point x="90" y="298"/>
      <point x="90" y="260" type="curve" smooth="yes"/>
      <point x="90" y="169"/>
      <point x="169" y="114"/>
      <point x="262" y="114" type="curve" smooth="yes"/>
      <point x="325" y="114"/>
      <point x="374" y="140"/>
      <point x="414" y="171" type="curve"/>
      <point x="411" y="259" type="line"/>
      <point x="379" y="201"/>
      <point x="306" y="158"/>
      <point x="245" y="158" type="curve" smooth="yes"/>
      <point x="197" y="158"/>
      <point x="144" y="185"/>
      <point x="144" y="243" type="curve" smooth="yes"/>
      <point x="144" y="309"/>
      <point x="211" y="343"/>
      <point x="286" y="368" type="curve"/>
      <point x="279" y="387"/>
      <point x="264" y="405"/>
      <point x="253" y="416" type="curve"/>
      <point x="222" y="407"/>
      <point x="195" y="397"/>
      <point x="171" y="384" type="curve"/>
      <point x="137" y="389"/>
      <point x="91" y="420"/>
      <point x="91" y="477" type="curve" smooth="yes"/>
      <point x="91" y="510"/>
      <point x="106" y="543"/>
      <point x="128" y="560" type="curve"/>
    </contour>
    <contour>
      <point x="439" y="216" type="line"/>
      <point x="103" y="37" type="line"/>
      <point x="110" y="17"/>
      <point x="121" y="-1"/>
      <point x="134" y="-13" type="curve"/>
      <point x="442" y="182" type="line"/>
    </contour>
  </outline>
</glyph>
<glyph name="dvN_PH_RA" format="1">
  <advance width="961"/>
  <unicode hex="E050"/>
  <outline>
    <contour>
      <point x="227" y="364" type="line"/>
      <point x="175" y="364"/>
      <point x="127" y="363"/>
      <point x="96" y="361" type="curve" smooth="yes"/>
      <point x="51" y="358"/>
      <point x="27" y="343"/>
      <point x="27" y="319" type="curve" smooth="yes"/>
      <point x="27" y="277"/>
      <point x="73" y="223"/>
      <point x="88" y="218" type="curve" smooth="yes"/>
      <point x="92" y="217"/>
      <point x="96" y="216"/>
      <point x="100" y="216" type="curve" smooth="yes"/>
      <point x="110" y="216"/>
      <point x="120" y="220"/>
      <point x="127" y="230" type="curve" smooth="yes"/>
      <point x="137" y="245"/>
      <point x="147" y="285"/>
      <point x="149" y="313" type="curve"/>
      <point x="168" y="314"/>
      <point x="188" y="314"/>
      <point x="209" y="314" type="curve" smooth="yes"/>
      <point x="358" y="314" type="line"/>
      <point x="356" y="364" type="line"/>
    </contour>
    <contour>
      <point x="636" y="300" type="line"/>
      <point x="305" y="52" type="line"/>
      <point x="310" y="35"/>
      <point x="327" y="14"/>
      <point x="340" y="6" type="curve"/>
      <point x="649" y="264" type="line"/>
    </contour>
    <contour>
      <point x="370" y="565" type="line"/>
      <point x="311" y="565" type="line"/>
      <point x="311" y="394" type="line" smooth="yes"/>
      <point x="311" y="260"/>
      <point x="370" y="179"/>
      <point x="472" y="179" type="curve" smooth="yes"/>
      <point x="532" y="179"/>
      <point x="581" y="208"/>
      <point x="608" y="229" type="curve"/>
      <point x="608" y="327" type="line"/>
      <point x="578" y="263"/>
      <point x="520" y="221"/>
      <point x="459" y="221" type="curve" smooth="yes"/>
      <point x="391" y="221"/>
      <point x="370" y="273"/>
      <point x="370" y="422" type="curve" smooth="yes"/>
    </contour>
    <contour>
      <point x="652" y="572" type="line"/>
      <point x="599" y="572" type="line"/>
      <point x="599" y="8" type="line" smooth="yes"/>
      <point x="599" y="-2"/>
      <point x="621" y="-20"/>
      <point x="652" y="-20" type="curve"/>
    </contour>
    <contour>
      <point x="784" y="414" type="curve" smooth="yes"/>
      <point x="721" y="414"/>
      <point x="673" y="375"/>
      <point x="642" y="341" type="curve"/>
      <point x="644" y="250" type="line"/>
      <point x="673" y="294"/>
      <point x="728" y="362"/>
      <point x="798" y="362" type="curve" smooth="yes"/>
      <point x="840" y="362"/>
      <point x="893" y="337"/>
      <point x="893" y="262" type="curve" smooth="yes"/>
      <point x="893" y="182"/>
      <point x="832" y="128"/>
      <point x="782" y="91" type="curve"/>
      <point x="794" y="71"/>
      <point x="803" y="56"/>
      <point x="823" y="43" type="curve"/>
      <point x="869" y="80"/>
      <point x="936" y="153"/>
      <point x="936" y="252" type="curve" smooth="yes"/>
      <point x="936" y="350"/>
      <point x="865" y="414"/>
    </contour>
    <contour>
      <point x="974" y="600" type="curve"/>
      <point x="-25" y="600" type="line"/>
      <point x="-25" y="583"/>
      <point x="-18" y="560"/>
      <point x="-10" y="550" type="curve"/>
      <point x="989" y="550" type="line"/>
      <point x="989" y="566"/>
      <point x="983" y="589"/>
    </contour>
  </outline>
</glyph>
